<svg width="73" height="73" viewBox="0 0 73 73" fill="none" xmlns="http://www.w3.org/2000/svg">
<circle cx="36.1797" cy="36.5469" r="35.5" fill="#FCFAF7" stroke="#BDA37E"/>
<path d="M48.3337 33.9813C48.1929 33.6621 48.027 33.3076 47.8384 32.9129C47.0189 31.1783 45.7795 28.5587 45.0504 24.8606C44.4596 21.8564 44.3189 18.7416 44.6306 15.6016C44.6708 15.1868 44.3691 14.8173 43.9543 14.777C43.537 14.7368 43.17 15.0385 43.1297 15.4533C42.8029 18.7391 42.9512 22.0022 43.5697 25.1522C44.3339 29.0363 45.6211 31.759 46.4733 33.559C46.6543 33.9411 46.8152 34.283 46.951 34.5897C48.0421 37.0761 48.2909 43.625 47.494 48.9043C46.9761 51.1317 46.2169 53.5276 45.239 56.0265C45.0881 56.4136 45.2792 56.851 45.6663 57.0044C45.7569 57.0396 45.8499 57.0572 45.9404 57.0572C46.242 57.0572 46.5261 56.8762 46.6418 56.577C47.6499 54.0002 48.4317 51.5239 48.9672 49.2186C48.9672 49.2085 48.9672 49.201 48.9697 49.1909C48.9697 49.1809 48.9747 49.1708 48.9773 49.1608C49.8446 43.4515 49.558 36.7844 48.3287 33.9839L48.3337 33.9813Z" fill="#BDA37E"/>
<path d="M29.812 23.7997C30.2293 21.0746 30.2972 18.2664 30.0182 15.4533C29.9779 15.0385 29.6084 14.7368 29.1936 14.777C28.7788 14.8173 28.4771 15.1868 28.5173 15.6016C28.7863 18.2941 28.7184 20.9815 28.3212 23.586C28.3212 23.586 28.3212 23.5911 28.3212 23.5936V23.5986C27.7958 27.4827 26.0083 31.3794 25.1486 33.2498C25.0178 33.5364 24.9047 33.7827 24.8167 33.9813C22.3078 39.6956 22.8759 47.2979 26.5036 56.5745C26.6192 56.8712 26.9058 57.0547 27.205 57.0547C27.2955 57.0547 27.3885 57.0371 27.479 57.0019C27.8662 56.8511 28.0572 56.4136 27.9064 56.024C24.4296 47.132 23.8539 39.9194 26.1944 34.5872C26.2799 34.3936 26.388 34.1573 26.5162 33.8783C27.4036 31.9425 29.2514 27.9151 29.8095 23.8148C29.8095 23.8148 29.8095 23.8123 29.8095 23.8098C29.8095 23.8073 29.8095 23.8047 29.8095 23.8022L29.812 23.7997Z" fill="#BDA37E"/>
<path d="M39.9033 41.535C39.5539 41.3087 39.0863 41.4093 38.86 41.7587C38.5106 42.2992 38.1033 42.802 37.6483 43.2571C37.3089 43.5965 36.9419 43.9082 36.5547 44.1898C36.1047 43.8881 35.6899 43.5412 35.3178 43.149C34.9307 42.7392 34.5913 42.2842 34.3072 41.7939C34.0986 41.4319 33.6385 41.3087 33.2765 41.5174C32.9145 41.7261 32.7913 42.1861 32.9999 42.5481C33.3418 43.1389 33.7516 43.6895 34.2217 44.1847C34.6994 44.6875 35.2349 45.1275 35.8181 45.5071V56.3046C35.8181 56.722 36.155 57.0588 36.5723 57.0588C36.9896 57.0588 37.3265 56.722 37.3265 56.3046V45.487C37.8192 45.14 38.2843 44.7529 38.7117 44.3255C39.2422 43.7976 39.7173 43.2093 40.1246 42.5808C40.3508 42.2314 40.2503 41.7638 39.9008 41.5375L39.9033 41.535Z" fill="#BDA37E"/>
<path d="M42.1465 31.5386C42.2018 31.3199 42.2345 31.0937 42.2345 30.8624C42.2345 30.1509 41.9555 29.4772 41.4476 28.9719C40.7638 28.2881 39.7784 28.0417 38.8809 28.273C38.4133 27.4836 37.5535 26.9531 36.573 26.9531C35.668 26.9531 34.8308 27.4056 34.3331 28.1598C34.3079 28.1975 34.2903 28.2353 34.2677 28.273C34.0465 28.2151 33.8202 28.185 33.5889 28.185C32.8775 28.185 32.2037 28.464 31.6984 28.9719C31.0121 29.6582 30.7682 30.6411 30.9995 31.5386C30.2101 32.0062 29.6797 32.866 29.6797 33.8465C29.6797 34.7515 30.1322 35.5912 30.8889 36.0889C30.9241 36.1116 30.9643 36.1292 31.002 36.1518C30.7708 37.0518 31.0146 38.0373 31.7009 38.7236C32.2088 39.2314 32.88 39.5105 33.5914 39.5105C33.8227 39.5105 34.0515 39.4803 34.2702 39.4225C34.2928 39.4602 34.3104 39.4979 34.3356 39.5356C34.8334 40.2923 35.6705 40.7423 36.5755 40.7423C37.5459 40.7423 38.4158 40.2194 38.8859 39.42C38.9286 39.43 38.9689 39.4451 39.0116 39.4552C39.1926 39.4929 39.3761 39.5105 39.5571 39.5105C40.261 39.5105 40.9423 39.2339 41.4502 38.7236C41.958 38.2158 42.237 37.5445 42.237 36.8331C42.237 36.6018 42.2069 36.373 42.149 36.1518C42.1868 36.1292 42.227 36.1116 42.2622 36.0889C43.0189 35.5912 43.4714 34.754 43.4714 33.849C43.4714 32.866 42.9409 32.0087 42.1516 31.5411L42.1465 31.5386ZM41.43 34.8294C41.0932 35.0507 40.6884 35.0859 40.3189 34.9275L39.9845 34.7842C40.0675 34.4875 40.1152 34.1733 40.1152 33.8515C40.1152 33.5297 40.0675 33.2155 39.9845 32.9188L40.3189 32.7755C40.4697 32.7101 40.6281 32.6775 40.7865 32.6775C41.3496 32.6775 41.9605 33.1275 41.9605 33.854C41.9605 34.2562 41.7669 34.6132 41.4326 34.8345L41.43 34.8294ZM31.7135 34.8294C31.3766 34.6082 31.1856 34.2512 31.1856 33.849C31.1856 33.1224 31.7939 32.6724 32.3596 32.6724C32.518 32.6724 32.6738 32.7051 32.8247 32.7705L33.2319 32.9465C33.154 33.2356 33.1088 33.5372 33.1088 33.849C33.1088 34.1607 33.154 34.4624 33.2319 34.7515L32.8247 34.9275C32.4551 35.0859 32.0504 35.0507 31.7135 34.8294ZM34.6171 33.849C34.6171 32.7504 35.5121 31.8554 36.6107 31.8554C37.7093 31.8554 38.6043 32.7504 38.6043 33.849C38.6043 34.9476 37.7093 35.8426 36.6107 35.8426C35.5121 35.8426 34.6171 34.9476 34.6171 33.849ZM40.3792 30.0403C40.6004 30.2615 40.7236 30.5557 40.7236 30.8649C40.7236 30.968 40.7085 31.071 40.6809 31.1691C40.3515 31.1816 40.0298 31.252 39.7205 31.3853L39.273 31.5789C39.1398 31.423 38.9965 31.2797 38.8381 31.149L39.0317 30.699C39.1649 30.3897 39.2353 30.068 39.2479 29.7386C39.6124 29.6431 40.0474 29.7085 40.3767 30.0403H40.3792ZM36.5705 28.4615C37.2971 28.4615 37.7471 29.0699 37.7471 29.6355C37.7471 29.7939 37.7144 29.9498 37.649 30.1006L37.4931 30.4626C37.2116 30.3897 36.9174 30.347 36.6133 30.347C36.2814 30.347 35.9621 30.3973 35.6579 30.4828L35.4945 30.1031C35.3362 29.7336 35.3713 29.3288 35.5926 28.992C35.8138 28.6551 36.1708 28.464 36.573 28.464L36.5705 28.4615ZM32.7618 30.0378C32.9831 29.8166 33.2772 29.6934 33.5864 29.6934C33.6895 29.6934 33.79 29.7085 33.8906 29.7361C33.9032 30.0629 33.9761 30.3872 34.1093 30.6964L34.3255 31.1992C34.1822 31.3224 34.049 31.4557 33.9283 31.6015L33.4205 31.3828C33.1113 31.2495 32.7895 31.1791 32.4602 31.1666C32.3646 30.802 32.43 30.3671 32.7618 30.0378ZM32.7618 37.6552C32.43 37.3233 32.3646 36.8909 32.4602 36.5239C32.787 36.5113 33.1113 36.4409 33.4205 36.3077L33.9258 36.0889C34.0465 36.2347 34.1822 36.368 34.323 36.4912L34.1068 36.994C33.9736 37.3032 33.9007 37.63 33.8881 37.9543C33.7901 37.9795 33.687 37.9971 33.5839 37.9971C33.2747 37.9971 32.9805 37.8739 32.7593 37.6526L32.7618 37.6552ZM36.5705 39.2314C36.1683 39.2314 35.8113 39.0378 35.5901 38.7035C35.3688 38.3666 35.3336 37.9619 35.492 37.5923L35.6554 37.2102C35.9596 37.2957 36.2789 37.3459 36.6107 37.3459C36.6962 37.3459 36.7817 37.3384 36.8647 37.3334L37.0557 37.8135C37.1789 38.1253 37.3599 38.4068 37.5811 38.6457C37.3901 38.97 37.0381 39.2289 36.5705 39.2289V39.2314ZM40.3792 37.6552C40.0951 37.9392 39.7055 38.0574 39.3108 37.9744C38.9161 37.894 38.6043 37.6325 38.456 37.2579L38.3152 36.901C38.6797 36.6973 39.0015 36.4308 39.273 36.1141L39.7205 36.3077C40.0298 36.4409 40.3541 36.5088 40.6809 36.5239C40.7085 36.6244 40.7236 36.7275 40.7236 36.8306C40.7236 37.1398 40.6004 37.4339 40.3792 37.6552Z" fill="#BDA37E"/>
</svg>
