<svg width="73" height="73" viewBox="0 0 73 73" fill="none" xmlns="http://www.w3.org/2000/svg">
<circle cx="36.1797" cy="36.4844" r="35.5" fill="#FCFAF7" stroke="#BDA37E"/>
<path fill-rule="evenodd" clip-rule="evenodd" d="M32.4968 39.468C32.4972 40.0203 32.0499 40.4684 31.4976 40.4688C30.9453 40.4693 30.4972 40.0219 30.4968 39.4697C30.4963 38.9174 30.9436 38.4693 31.4959 38.4688C32.0482 38.4684 32.4963 38.9157 32.4968 39.468ZM37.4976 40.4639C37.498 41.0162 37.0507 41.4643 36.4984 41.4647C35.9461 41.4652 35.498 41.0178 35.4976 40.4656C35.4971 39.9133 35.9445 39.4652 36.4967 39.4647C37.049 39.4643 37.4971 39.9116 37.4976 40.4639ZM33.5017 45.4672C34.0539 45.4667 34.5013 45.0187 34.5008 44.4664C34.5004 43.9141 34.0523 43.4667 33.5 43.4672C32.9477 43.4677 32.5004 43.9157 32.5008 44.468C32.5013 45.0203 32.9494 45.4677 33.5017 45.4672ZM39.5 43.4623C39.5005 44.0146 39.0531 44.4627 38.5008 44.4631C37.9486 44.4636 37.5005 44.0162 37.5 43.4639C37.4996 42.9116 37.9469 42.4636 38.4992 42.4631C39.0515 42.4627 39.4996 42.91 39.5 43.4623ZM40.5041 48.4615C41.0564 48.461 41.5038 48.0128 41.5033 47.4606C41.5028 46.9083 41.0548 46.461 40.5025 46.4615C39.9502 46.4619 39.5028 46.91 39.5033 47.4623C39.5038 48.0146 39.9518 48.4619 40.5041 48.4615ZM43.5 43.459C43.5005 44.0113 43.0531 44.4594 42.5008 44.4598C41.9486 44.4603 41.5005 44.0129 41.5 43.4606C41.4996 42.9084 41.9469 42.4603 42.4992 42.4598C43.0515 42.4594 43.4996 42.9067 43.5 43.459ZM35.5049 49.4656C36.0572 49.4651 36.5046 49.017 36.5041 48.4647C36.5037 47.9125 36.0556 47.4651 35.5033 47.4656C34.951 47.466 34.5037 47.914 34.5041 48.4663C34.5046 49.0186 34.9527 49.466 35.5049 49.4656ZM31.5033 47.4688C31.5038 48.0211 31.0564 48.4692 30.5041 48.4697C29.9518 48.4701 29.5038 48.0227 29.5033 47.4704C29.5029 46.9181 29.9502 46.4701 30.5025 46.4697C31.0548 46.4692 31.5029 46.9166 31.5033 47.4688ZM28.5008 44.4713C29.0531 44.4708 29.5005 44.0228 29.5 43.4705C29.4996 42.9182 29.0515 42.4708 28.4992 42.4713C27.9469 42.4717 27.4996 42.9198 27.5 43.4721C27.5005 44.0244 27.9486 44.4717 28.5008 44.4713Z" fill="#BDA37E"/>
<path fill-rule="evenodd" clip-rule="evenodd" d="M36.0156 18.4844C36.844 18.4844 37.5156 19.1559 37.5156 19.9844V35.4844H39.5156V22.9844C39.5156 22.1559 40.1872 21.4844 41.0156 21.4844C41.844 21.4844 42.5156 22.1559 42.5156 22.9844V38.5699C42.5156 40.4742 44.9252 41.3009 46.0943 39.7977L49.2808 35.7008C49.8954 34.9106 51.0931 34.9211 51.6938 35.722C52.0659 36.2182 52.0988 36.8908 51.7769 37.421L44.5729 49.2836C42.6118 52.5127 39.1077 54.4844 35.3297 54.4844C29.3572 54.4844 24.5156 49.6428 24.5156 43.6703V28.9844C24.5156 28.156 25.1872 27.4844 26.0156 27.4844C26.844 27.4844 27.5156 28.156 27.5156 28.9844V37.602H29.5156V22.9844C29.5156 22.1559 30.1872 21.4844 31.0156 21.4844C31.844 21.4844 32.5156 22.1559 32.5156 22.9844V35.4844H34.5156V19.9844C34.5156 19.1559 35.1872 18.4844 36.0156 18.4844ZM32.5193 19.8229C32.6036 17.9649 34.1367 16.4844 36.0156 16.4844C37.8945 16.4844 39.4276 17.9649 39.5119 19.8229C39.9675 19.6059 40.4774 19.4844 41.0156 19.4844C42.9486 19.4844 44.5156 21.0514 44.5156 22.9844V38.5699L47.7021 34.4729C49.1263 32.6418 51.9019 32.6661 53.2938 34.522C54.1562 35.6718 54.2324 37.2306 53.4863 38.4591L46.2823 50.3217C43.9586 54.1481 39.8064 56.4844 35.3297 56.4844C28.2527 56.4844 22.5156 50.7473 22.5156 43.6703V28.9844C22.5156 27.0514 24.0826 25.4844 26.0156 25.4844C26.5524 25.4844 27.061 25.6052 27.5156 25.8212V22.9844C27.5156 21.0514 29.0826 19.4844 31.0156 19.4844C31.5538 19.4844 32.0637 19.6059 32.5193 19.8229Z" fill="#BDA37E"/>
</svg>
