<svg width="73" height="73" viewBox="0 0 73 73" fill="none" xmlns="http://www.w3.org/2000/svg">
<circle cx="36.1797" cy="36.5469" r="35.5" fill="#FCFAF7" stroke="#BDA37E"/>
<path d="M56.1283 30.3745L54.5184 28.9424C53.1752 27.7473 52.4048 26.0313 52.4048 24.2338V17.5399C52.4048 15.5794 50.8098 13.9844 48.8493 13.9844C46.5406 13.9844 44.3653 14.572 42.4666 15.6017C40.7555 14.5918 38.5653 13.9844 36.1777 13.9844C33.79 13.9844 31.6419 14.5547 29.8764 15.5967C27.9802 14.5696 25.8098 13.9844 23.5085 13.9844C21.5481 13.9844 19.953 15.5794 19.953 17.5399V24.2338C19.953 26.0313 19.1826 27.7473 17.8394 28.9424L16.2295 30.3745C14.5703 31.8486 13.6172 33.9696 13.6172 36.1893V41.4757C13.6172 43.1992 14.8493 44.6387 16.4764 44.9622C16.7579 47.3819 18.5406 49.256 20.6937 49.256C23.0419 49.256 24.953 47.0288 24.953 44.2906C24.953 41.5523 23.0419 39.3276 20.6937 39.3276C18.595 39.3276 16.8518 41.1054 16.5011 43.4362C15.6863 43.1547 15.0987 42.3844 15.0987 41.4757V36.1893C15.0987 34.3918 15.869 32.6757 17.2122 31.4807L18.8221 30.0486C20.4814 28.5745 21.4345 26.4535 21.4345 24.2338V17.5399C21.4345 16.3967 22.3653 15.4659 23.5085 15.4659C29.8295 15.4659 35.0147 20.4091 35.4122 26.6313C31.1332 26.372 27.7703 23.9745 27.7703 21.0609C27.7703 20.2288 28.0443 19.4288 28.5826 18.6782C28.8221 18.3449 28.7456 17.8831 28.4122 17.6436C28.0789 17.4041 27.6172 17.4807 27.3777 17.814C26.6641 18.8066 26.2863 19.9301 26.2863 21.0609C26.2863 23.8091 28.4913 26.1967 31.6987 27.3671C31.3801 28.0313 31.2122 28.7597 31.2122 29.5078C31.2122 31.9918 33.0493 34.051 35.4345 34.4115V57.6264C34.6962 57.6066 34.1011 57.0017 34.1011 56.256V37.1547C34.1011 36.2189 33.6048 35.3399 32.7727 34.8041C31.9332 34.2634 31.2246 33.5202 30.7234 32.656C30.5184 32.3029 30.0641 32.1819 29.711 32.3868C29.3579 32.5918 29.2369 33.0461 29.4419 33.3992C30.0616 34.4659 30.9357 35.3844 31.9727 36.051C32.3777 36.3128 32.6197 36.7251 32.6197 37.1572V56.2585C32.6197 57.8313 33.8987 59.1103 35.4715 59.1103H36.8789C38.4518 59.1103 39.7308 57.8313 39.7308 56.2585V37.1572C39.7308 36.7251 39.9727 36.3128 40.3777 36.051C41.4147 35.3844 42.2888 34.4659 42.9085 33.3992C43.1135 33.0461 42.9925 32.5918 42.6394 32.3868C42.2863 32.1819 41.832 32.3029 41.6271 32.656C41.1258 33.5202 40.4172 34.2634 39.5752 34.8041C38.7431 35.3399 38.2468 36.2189 38.2468 37.1547V56.256C38.2468 56.9992 37.6518 57.6041 36.9135 57.6264V34.4115C39.2987 34.051 41.1357 31.9943 41.1357 29.5078C41.1357 29.098 40.8048 28.7671 40.395 28.7671C39.9851 28.7671 39.6542 29.098 39.6542 29.5078C39.6542 31.4288 38.0913 32.9893 36.1727 32.9893C34.2542 32.9893 32.6913 31.4263 32.6913 29.5078C32.6913 28.9029 32.8468 28.3152 33.1406 27.7943C34.0962 28.014 35.116 28.135 36.1727 28.135C41.6271 28.135 46.0641 24.9597 46.0641 21.0584C46.0641 19.3597 45.2221 17.7967 43.8197 16.577C45.3481 15.8659 47.0493 15.4634 48.8419 15.4634C49.9851 15.4634 50.916 16.3943 50.916 17.5375V24.2313C50.916 26.451 51.8666 28.572 53.5283 30.0461L55.1382 31.4782C56.4814 32.6733 57.2518 34.3893 57.2518 36.1868V41.4733C57.2518 42.3819 56.6641 43.1547 55.8493 43.4338C55.5011 41.1029 53.7555 39.3251 51.6567 39.3251C49.3085 39.3251 47.3974 41.5523 47.3974 44.2881C47.3974 47.0239 49.3085 49.2535 51.6567 49.2535C53.8098 49.2535 55.59 47.3819 55.874 44.9597C57.5011 44.6338 58.7332 43.1943 58.7332 41.4733V36.1868C58.7332 33.9671 57.7826 31.8461 56.1209 30.372L56.1283 30.3745ZM20.6913 40.8066C22.2246 40.8066 23.469 42.3696 23.469 44.2881C23.469 46.2066 22.2221 47.772 20.6913 47.772C19.1604 47.772 17.9135 46.2091 17.9135 44.2881C17.9135 42.3671 19.1604 40.8066 20.6913 40.8066ZM31.3258 16.5103C32.7406 15.8362 34.4246 15.4683 36.1777 15.4683C37.9308 15.4683 39.6666 15.8535 41.0419 16.5029C38.8123 18.1054 37.0937 20.3696 36.1777 23.0115C35.2616 20.377 33.5481 18.1128 31.3258 16.5128V16.5103ZM44.5876 21.0609C44.5876 23.9745 41.2246 26.372 36.9456 26.6313C37.195 22.7276 39.3283 19.3276 42.4468 17.3375C43.7777 18.3276 44.5876 19.6313 44.5876 21.0609ZM51.6641 47.772C50.1308 47.772 48.8863 46.2091 48.8863 44.2881C48.8863 42.3671 50.1332 40.8066 51.6641 40.8066C53.195 40.8066 54.4419 42.3696 54.4419 44.2881C54.4419 46.2066 53.195 47.772 51.6641 47.772Z" fill="#BDA37E"/>
</svg>
