<svg width="73" height="73" viewBox="0 0 73 73" fill="none" xmlns="http://www.w3.org/2000/svg">
<circle cx="36.1797" cy="36.4844" r="35.5" fill="#FCFAF7" stroke="#BDA37E"/>
<path fill-rule="evenodd" clip-rule="evenodd" d="M47.3596 36.3907H54.1097C55.9433 36.3907 57.4297 34.9043 57.4297 33.0707C57.4297 31.2372 55.9433 29.7508 54.1097 29.7508H37.1841L39.4699 28.9148C41.6708 28.1099 42.3044 25.2998 40.6618 23.6283C39.7776 22.7285 38.4498 22.4272 37.2639 22.8573L25.2798 27.203C20.5678 28.9117 17.4297 33.3877 17.4297 38.4C17.4297 44.978 22.7622 50.3105 29.3402 50.3105H40.4037C42.0605 50.3105 43.4037 48.9674 43.4037 47.3105V46.6706C43.4037 46.3199 43.3435 45.9833 43.2329 45.6706H43.7745C45.4313 45.6706 46.7745 44.3274 46.7745 42.6706V42.0306C46.7745 41.4463 46.6074 40.9009 46.3184 40.4398C47.0538 39.893 47.5303 39.0175 47.5303 38.0306V37.3907C47.5303 37.0401 47.4701 36.7035 47.3596 36.3907ZM55.4297 33.0707C55.4297 32.3417 54.8387 31.7508 54.1097 31.7508H37.1841C34.9482 31.7508 34.3973 28.6404 36.4971 27.8725L38.7829 27.0365C39.6182 26.731 39.8587 25.6645 39.2353 25.0301C38.8997 24.6886 38.3958 24.5743 37.9457 24.7375L25.9617 29.0832C22.0408 30.505 19.4297 34.2294 19.4297 38.4C19.4297 43.8734 23.8668 48.3105 29.3402 48.3105H40.4037C40.9559 48.3105 41.4036 47.8628 41.4036 47.3105V46.6706C41.4036 46.1183 40.9559 45.6706 40.4036 45.6706H36.6677V43.6706H43.7745C44.3268 43.6706 44.7745 43.2228 44.7745 42.6706V42.0306C44.7745 41.4784 44.3268 41.0306 43.7745 41.0306H38.9475V39.0306H44.5303C45.0826 39.0306 45.5303 38.5829 45.5303 38.0306V37.3907C45.5303 36.8384 45.0826 36.3907 44.5303 36.3907H38.9475V34.3907H49.4325C49.4306 34.3642 49.4297 34.3375 49.4297 34.3106C49.4297 33.4822 50.3251 32.8106 51.4297 32.8106C52.5343 32.8106 53.4297 33.4822 53.4297 34.3106C53.4297 34.3375 53.4288 34.3642 53.4269 34.3907H54.1097C54.8387 34.3907 55.4297 33.7997 55.4297 33.0707Z" fill="#BDA37E"/>
<path d="M54.4297 42.4475C54.4297 44.0475 53.1097 45.3047 51.4297 45.3047C49.7497 45.3047 48.4297 44.0475 48.4297 42.4475C48.4297 40.8475 51.4297 37.3047 51.4297 37.3047C51.4297 37.3047 54.4297 40.9618 54.4297 42.4475Z" fill="#BDA37E"/>
</svg>
