<svg width="73" height="73" viewBox="0 0 73 73" fill="none" xmlns="http://www.w3.org/2000/svg">
<circle cx="36.1797" cy="36.4844" r="35.5" fill="#FCFAF7" stroke="#BDA37E"/>
<path fill-rule="evenodd" clip-rule="evenodd" d="M39.1046 16.4844C40.0722 16.4844 40.9707 16.701 41.7721 17.159C42.4568 17.5502 43.2341 18.0891 43.8088 18.8936L43.7964 18.9025L43.8077 18.9176L46.1393 21.9398L46.9603 23.0346C49.4913 26.3772 49.4908 31.0315 46.9589 34.3737L42.451 40.1928L49.3999 49.1365C50.0431 49.9643 49.938 51.1483 49.1589 51.8498L45.093 55.5112C44.2324 56.2862 42.8956 56.1705 42.1809 55.2593L36.3902 47.8761L30.546 55.3274C29.8724 56.1863 28.6346 56.3464 27.7646 55.6873L23.3862 52.3703C22.4963 51.6962 22.3306 50.4242 23.018 49.5446L30.3319 40.186L25.8277 34.4722L25.8218 34.4644C23.2898 31.1223 23.2893 26.4681 25.8202 23.1254L25.8218 23.1234L26.6331 22.0415L28.9695 19.0128C29.0049 18.9653 29.0412 18.9181 29.0783 18.8713C30.1881 17.3341 32.0325 16.4844 33.857 16.4844H39.1046ZM40.7799 18.8955C41.3309 19.2104 41.799 19.5552 42.1274 19.9833L42.1128 19.9948L42.2129 20.1245C43.2568 21.5347 43.2494 23.5141 42.1907 24.9161C41.2566 24.3464 40.1458 23.9937 39.0142 23.9937H33.7665C32.6442 23.9937 31.4993 24.2943 30.5254 24.9177C30.0425 24.2306 29.7903 23.3616 29.7903 22.5511C29.7903 21.736 30.0466 20.9191 30.564 20.2202L30.679 20.0711L30.6897 20.0561C31.3912 19.074 32.614 18.4844 33.857 18.4844H39.1046C39.7655 18.4844 40.3146 18.6296 40.7799 18.8955ZM31.7548 26.511L36.3551 32.4531L40.9551 26.5115C40.3564 26.1863 39.6768 25.9937 39.0142 25.9937H33.7665C33.0473 25.9937 32.3472 26.172 31.7548 26.511ZM41.1772 38.5715L37.6246 34.0805L43.6907 26.2451C44.3161 25.461 44.7158 24.5515 44.8898 23.6072L45.3646 24.2403C47.3549 26.8675 47.356 30.5334 45.3678 33.1618L41.1772 38.5715ZM31.6066 41.8029L24.5939 50.7762L28.9723 54.0931L35.1181 46.2573L31.6066 41.8029ZM29.0899 26.3359C28.4681 25.5561 28.074 24.6244 27.8978 23.6887L27.4189 24.3273L27.416 24.3311C25.4265 26.9572 25.4246 30.6212 27.4103 33.2492L37.1771 45.6387L43.7546 54.025L47.8206 50.3636L40.4012 40.8143L35.606 34.7525L29.0899 26.3359Z" fill="#BDA37E"/>
</svg>
