<svg width="73" height="73" viewBox="0 0 73 73" fill="none" xmlns="http://www.w3.org/2000/svg">
<circle cx="36.1797" cy="36.5469" r="35.5" fill="#FCFAF7" stroke="#BDA37E"/>
<path d="M25.6503 45.6617C25.2021 45.6617 24.7676 45.5208 24.3991 45.2528C23.9344 44.9158 23.6264 44.4159 23.5357 43.8468C23.445 43.2778 23.577 42.706 23.9124 42.2392C24.2479 41.7723 24.7456 41.463 25.3121 41.3718C26.4807 41.1812 27.5861 41.9823 27.7786 43.1563C27.8693 43.7253 27.7374 44.2971 27.4019 44.7639C27.0664 45.2307 26.5687 45.5401 26.0022 45.6313C25.8868 45.6506 25.7685 45.6589 25.653 45.6589L25.6503 45.6617ZM25.6558 43.0016C25.6283 43.0016 25.6035 43.0016 25.576 43.0071C25.444 43.0292 25.3286 43.101 25.2516 43.2087C25.1746 43.3165 25.1416 43.4491 25.1636 43.5816C25.1856 43.7142 25.2571 43.8303 25.3643 43.9076C25.4715 43.9849 25.6035 44.0153 25.7355 43.996C25.8675 43.9739 25.983 43.9021 26.06 43.7943C26.137 43.6866 26.17 43.554 26.148 43.4214C26.1095 43.1756 25.895 43.0016 25.6558 43.0016Z" fill="#BDA37E"/>
<path d="M25.6503 53.9379C25.2021 53.9379 24.7676 53.797 24.3992 53.529C23.9345 53.192 23.6265 52.6921 23.5357 52.123C23.346 50.949 24.1434 49.8386 25.3121 49.6452C26.4807 49.4546 27.5889 50.2557 27.7786 51.4297C27.8694 51.9987 27.7374 52.5705 27.4019 53.0374C27.0664 53.5042 26.5687 53.8136 26.0023 53.9047C25.8868 53.9241 25.7685 53.9323 25.6531 53.9323L25.6503 53.9379ZM25.5761 51.2833C25.3038 51.3275 25.1196 51.5844 25.1636 51.8578C25.1856 51.9904 25.2571 52.1065 25.3643 52.1838C25.4716 52.2611 25.6036 52.2915 25.7356 52.2722C25.8675 52.2501 25.983 52.1783 26.06 52.0705C26.137 51.9628 26.17 51.8302 26.148 51.6976C26.104 51.4242 25.8483 51.2419 25.5761 51.2833Z" fill="#BDA37E"/>
<path d="M31.773 45.6627C30.7391 45.6627 29.8234 44.9086 29.6529 43.8506C29.4632 42.6767 30.2606 41.5634 31.4293 41.3728C31.9957 41.2789 32.5649 41.4143 33.0296 41.7513C33.4943 42.0883 33.8023 42.5883 33.8958 43.1573C34.0855 44.3313 33.2881 45.4417 32.1195 45.6351C32.004 45.6544 31.8885 45.6627 31.773 45.6627ZM31.773 43.0026C31.7455 43.0026 31.718 43.0026 31.6933 43.0081C31.421 43.0523 31.2368 43.3092 31.2808 43.5827C31.3248 43.8562 31.5833 44.0412 31.8527 43.997C32.125 43.9528 32.3092 43.6959 32.2652 43.4225C32.2432 43.2899 32.1717 43.1739 32.0645 43.0965C31.9792 43.033 31.8775 43.0026 31.773 43.0026Z" fill="#BDA37E"/>
<path d="M31.773 53.9334C30.7391 53.9334 29.8234 53.1793 29.6529 52.1213C29.5621 51.5523 29.6941 50.9805 30.0296 50.5137C30.3651 50.0468 30.8628 49.7374 31.4292 49.6463C31.9957 49.5524 32.5649 49.6877 33.0296 50.0247C33.4943 50.3617 33.8023 50.8617 33.8958 51.4307C33.9893 51.9998 33.8545 52.5716 33.5191 53.0384C33.1836 53.5052 32.6859 53.8146 32.1194 53.9058C32.0039 53.9251 31.8885 53.9334 31.773 53.9334ZM31.773 51.2733C31.7455 51.2733 31.718 51.2733 31.6932 51.2788C31.5612 51.3009 31.4457 51.3727 31.3687 51.4805C31.2918 51.5882 31.2588 51.7208 31.2808 51.8534C31.3248 52.1268 31.5805 52.3119 31.8527 52.2677C31.9847 52.2456 32.1002 52.1738 32.1772 52.0661C32.2542 51.9583 32.2872 51.8257 32.2652 51.6932C32.2432 51.5606 32.1717 51.4446 32.0644 51.3672C31.9792 51.3064 31.8775 51.2733 31.773 51.2733Z" fill="#BDA37E"/>
<path d="M37.8902 45.6627C36.8563 45.6627 35.9406 44.9086 35.7701 43.8506C35.5804 42.6767 36.3778 41.5662 37.5465 41.3728C38.1129 41.2789 38.6821 41.4143 39.1468 41.7513C39.6115 42.0883 39.9195 42.5883 40.013 43.1573C40.1065 43.7263 39.9718 44.2981 39.6363 44.765C39.3008 45.2318 38.8031 45.5412 38.2367 45.6323C38.1212 45.6517 38.0057 45.66 37.8902 45.66V45.6627ZM37.8104 43.0081C37.5382 43.0523 37.354 43.312 37.398 43.5827C37.442 43.8562 37.6977 44.0412 37.9699 43.997C38.1019 43.9749 38.2174 43.9031 38.2944 43.7954C38.3714 43.6877 38.4044 43.5551 38.3824 43.4225C38.3604 43.2899 38.2889 43.1739 38.1817 43.0965C38.0744 43.0192 37.9397 42.986 37.8104 43.0081Z" fill="#BDA37E"/>
<path d="M37.8874 53.9311C37.4392 53.9311 37.0048 53.7902 36.6363 53.5223C36.1716 53.1853 35.8636 52.6853 35.7701 52.1162C35.5804 50.9423 36.3778 49.8318 37.5465 49.6384C38.1129 49.5445 38.6821 49.6799 39.1468 50.0196C39.6115 50.3566 39.9195 50.8566 40.0103 51.4257C40.101 51.9947 39.969 52.5665 39.6335 53.0333C39.2981 53.5002 38.8004 53.8095 38.2339 53.9007C38.1184 53.92 38.0002 53.9283 37.8847 53.9283L37.8874 53.9311ZM37.8132 51.2765C37.541 51.3207 37.3567 51.5804 37.4007 51.8511C37.4227 51.9836 37.4942 52.0997 37.6015 52.177C37.7087 52.2544 37.8407 52.2875 37.9727 52.2654C38.1047 52.2433 38.2202 52.1715 38.2971 52.0638C38.3741 51.956 38.4071 51.8234 38.3851 51.6908C38.3631 51.5583 38.2917 51.4422 38.1844 51.3649C38.0772 51.2875 37.9452 51.2572 37.8132 51.2765Z" fill="#BDA37E"/>
<path d="M43.9979 53.9351C43.5496 53.9351 43.1152 53.7942 42.7467 53.5263C42.282 53.1893 41.974 52.6893 41.8805 52.1203C41.787 51.5512 41.9218 50.9794 42.2572 50.5126C42.5927 50.0458 43.0904 49.7364 43.6569 49.6452C44.8255 49.4546 45.9337 50.2557 46.1234 51.4297C46.2142 51.9987 46.0822 52.5705 45.7467 53.0374C45.4112 53.5042 44.9135 53.8136 44.3471 53.9047C44.2316 53.9241 44.1133 53.9323 43.9979 53.9323V53.9351ZM44.0033 51.275C43.9759 51.275 43.9511 51.275 43.9236 51.2805C43.7916 51.3026 43.6761 51.3744 43.5991 51.4822C43.5221 51.5899 43.4891 51.7225 43.5111 51.8551C43.5331 51.9877 43.6046 52.1037 43.7119 52.181C43.8191 52.2584 43.9511 52.2888 44.0831 52.2694C44.2151 52.2473 44.3306 52.1755 44.4076 52.0678C44.4846 51.9601 44.5176 51.8275 44.4956 51.6949C44.4571 51.449 44.2426 51.275 44.0033 51.275Z" fill="#BDA37E"/>
<path d="M58.4883 22.2789L56.7587 19.2708C56.591 18.978 56.3215 18.7708 55.9971 18.6824C55.6726 18.594 55.3344 18.641 55.0456 18.8095L54.7817 18.9641L53.7862 17.2322C53.4948 16.7239 52.9476 16.4062 52.3619 16.4062H45.9384C45.5039 16.4062 45.0805 16.583 44.7753 16.8924L43.6671 18.0056L42.5589 16.8924C42.2482 16.5803 41.833 16.4062 41.393 16.4062H34.9696C34.3839 16.4062 33.8394 16.7239 33.5452 17.2322L32.5498 18.9641L32.2858 18.8122C31.9971 18.6437 31.6589 18.5995 31.3344 18.6852C31.0099 18.7736 30.7404 18.9807 30.5727 19.2735L28.8431 22.2844C28.4966 22.8866 28.7029 23.6573 29.3023 24.0054L31.2574 25.1407C31.4499 25.2539 31.6644 25.3092 31.8816 25.3092C31.9916 25.3092 32.1016 25.2954 32.2088 25.265C32.5333 25.1766 32.8028 24.9694 32.9705 24.6766L34.7001 21.6657C35.0466 21.0635 34.8403 20.2928 34.2409 19.9448L33.9769 19.7928L34.9668 18.0636H41.3903L42.8394 19.5194V20.4807H42.3775C41.6983 20.4807 41.1428 21.0359 41.1428 21.7209V38.5931H34.2079L34.9338 37.7727C35.4205 37.2258 35.4205 36.3971 34.9338 35.8446L34.0264 34.8226L34.9338 33.8005C35.4205 33.2508 35.4205 32.4221 34.9338 31.8724L34.0264 30.8504L34.6864 30.1073C35.0108 29.7427 35.0906 29.2178 34.8926 28.7704C34.6946 28.3229 34.2491 28.0356 33.7624 28.0356H15.2345C14.7478 28.0356 14.3051 28.3229 14.1043 28.7704C13.9064 29.2178 13.9861 29.7427 14.3106 30.1073L14.9705 30.8504L14.0631 31.8752C13.5764 32.4249 13.5764 33.2536 14.0631 33.8005L14.9705 34.8226L14.0603 35.8474C13.5736 36.3971 13.5736 37.2258 14.0603 37.7727L14.9678 38.7948L14.0603 39.8168C13.5736 40.3665 13.5736 41.1952 14.0603 41.7422L14.9678 42.767L14.3051 43.5128C13.9806 43.8774 13.9009 44.4023 14.0988 44.8498C14.2968 45.2973 14.7423 45.5845 15.229 45.5845H19.8321V55.2941C19.8321 56.0675 20.4591 56.6973 21.229 56.6973H48.4187C49.1886 56.6973 49.8156 56.0675 49.8156 55.2941V53.3135C49.8156 52.8549 49.4471 52.4848 48.9907 52.4848C48.5342 52.4848 48.1657 52.8549 48.1657 53.3135V55.0399H21.4875V40.2505H41.1456V40.4439C41.1456 41.1262 41.6983 41.6842 42.3802 41.6842H42.8422V43.1592H42.6799C41.9155 43.1592 41.2941 43.7835 41.2941 44.5514V46.8165H24.7349C24.2785 46.8165 23.91 47.1867 23.91 47.6452C23.91 48.1038 24.2785 48.4739 24.7349 48.4739H41.6378C41.8935 48.7695 42.262 48.9573 42.6799 48.9573H44.657C45.4215 48.9573 46.0429 48.333 46.0429 47.5651V44.5514C46.0429 43.7835 45.4215 43.1592 44.657 43.1592H44.4948V41.6842H44.9567C45.6359 41.6842 46.1914 41.1289 46.1914 40.4439V40.2505H48.1795V50.2473C48.1795 50.7059 48.5479 51.076 49.0044 51.076C49.4609 51.076 49.8293 50.7059 49.8293 50.2473V39.9936C49.8293 39.2202 49.2024 38.5904 48.4324 38.5904H46.1914V21.7182C46.1914 21.0359 45.6387 20.4779 44.9567 20.4779H44.4948V19.5166L45.9412 18.0609H52.3619L53.3573 19.7901L53.0933 19.942C52.4939 20.2901 52.2876 21.0607 52.6341 21.6629L54.3637 24.6738C54.5947 25.0771 55.0181 25.3037 55.4526 25.3037C55.6643 25.3037 55.8816 25.2484 56.0768 25.1352L58.0346 23.9998C58.6341 23.6518 58.8403 22.8811 58.4939 22.2789H58.4883ZM31.7386 23.5026L30.4655 22.7651L31.7991 20.442L32.4343 20.8094L33.0667 21.1768L31.7331 23.4999L31.7386 23.5026ZM16.1529 43.9244L16.3262 43.7283C16.8129 43.1786 16.8129 42.3526 16.3262 41.8002L15.4187 40.7781L16.3262 39.7561C16.8129 39.2064 16.8129 38.3777 16.3262 37.8307L15.4187 36.8059L16.3262 35.7839C16.8129 35.2342 16.8129 34.4082 16.3262 33.8558L15.4187 32.8337L16.3262 31.8117C16.8156 31.262 16.8156 30.4333 16.3262 29.8836L16.1529 29.6902H32.8468L32.6735 29.8863C32.1868 30.436 32.1868 31.2647 32.6735 31.8117L33.581 32.8337L32.6735 33.8558C32.1868 34.4055 32.1868 35.2342 32.6735 35.7839L33.581 36.8059L32.6735 37.828C32.4783 38.049 32.3628 38.3141 32.3243 38.5876H31.4691V31.5934C31.4691 30.9553 30.9522 30.4388 30.317 30.4388H18.6772C18.042 30.4388 17.5251 30.9581 17.5251 31.5934V33.4801C17.5251 33.9386 17.8935 34.3088 18.35 34.3088C18.8064 34.3088 19.1749 33.9386 19.1749 33.4801V32.0934H29.8193V38.5848H28.0182C28.2904 38.0407 28.4444 37.433 28.4444 36.8032C28.4444 34.6154 26.6735 32.8392 24.4985 32.8392C22.3234 32.8392 20.5525 34.6182 20.5525 36.8032C20.5525 37.444 20.7093 38.06 20.9898 38.6097C20.3353 38.7257 19.8349 39.2975 19.8349 39.9881V41.5101H19.1777V36.5407C19.1777 36.0822 18.8092 35.712 18.3527 35.712C17.8963 35.712 17.5278 36.0822 17.5278 36.5407V42.0101C17.5278 42.6482 18.0448 43.1648 18.68 43.1648H19.8376V43.9161H16.1529V43.9244ZM23.0466 38.5904C22.5159 38.1539 22.2024 37.5048 22.2024 36.8087C22.2024 35.5353 23.2336 34.5021 24.4985 34.5021C25.7634 34.5021 26.7945 35.538 26.7945 36.8087C26.7945 37.5048 26.481 38.1539 25.9503 38.5904H23.0411H23.0466ZM44.3903 47.2972H42.9412V44.8111H44.3903V47.2972ZM44.536 40.0212H42.7982V39.4218V22.1408H43.6644H44.5305V40.0268L44.536 40.0212ZM55.5928 23.5026L54.2592 21.1795L54.8917 20.8121H54.8944H54.8972L55.5296 20.4447L56.8632 22.7679L55.5901 23.5054L55.5928 23.5026Z" fill="#BDA37E"/>
</svg>
