<svg width="73" height="73" viewBox="0 0 73 73" fill="none" xmlns="http://www.w3.org/2000/svg">
<circle cx="36.1797" cy="36.5469" r="35.5" fill="#FCFAF7" stroke="#BDA37E"/>
<path d="M38.3782 31.4349C38.0591 31.1169 37.5436 31.1169 37.2245 31.4349C36.9482 31.7103 36.5779 31.8637 36.1848 31.8637C35.7917 31.8637 35.4242 31.7103 35.1451 31.4349C34.7747 31.0658 34.2933 31.1652 34.0056 31.4491C33.7179 31.7359 33.6211 32.2157 33.9914 32.5849C34.5753 33.1669 35.353 33.4878 36.1819 33.4878C37.0109 33.4878 37.7885 33.1669 38.3725 32.5849C38.6915 32.2669 38.6915 31.7529 38.3725 31.4349H38.3782Z" fill="#BDA37E"/>
<path d="M48.1086 44.8527L45.4983 43.5319C46.5196 41.8466 47.0587 39.9109 47.0587 37.9239V24.2514C47.0587 18.2592 42.1748 13.3828 36.1725 13.3828C34.0329 13.3828 31.9789 13.9977 30.2045 15.162C28.7467 15.9676 27.1492 18.1738 27.1492 18.1738C25.9339 19.9728 25.2892 22.0737 25.2892 24.2514V37.9239C25.2892 39.908 25.8283 41.8466 26.8525 43.5347L24.2393 44.8527C22.4535 45.7836 21.3438 47.6111 21.3438 49.6209V58.7615C21.3438 59.8062 22.9784 59.8062 22.9784 58.7615V49.6209C22.9784 48.2203 23.7515 46.9479 24.9925 46.2988L28.2988 44.6477V53.1735C27.3546 53.5151 26.727 54.4033 26.727 55.4138C26.727 56.729 27.7996 57.7993 29.1176 57.7993C30.4356 57.7993 31.5082 56.729 31.5082 55.4138C31.5082 54.4033 30.8806 53.5151 29.9335 53.1707V43.8535L30.2131 43.7197L35.3994 58.9949C35.5107 59.3223 35.8159 59.5358 36.1725 59.5358C36.532 59.5358 36.8344 59.3223 36.9456 58.9949L38.4433 54.5883C38.5232 54.3577 38.5032 54.1328 38.3891 53.9393C38.2893 53.7713 38.1267 53.6404 37.927 53.5749C37.7273 53.5066 37.5162 53.5094 37.3365 53.5834C37.1282 53.666 36.977 53.8339 36.8971 54.0645L36.1725 56.1938L33.9901 49.7689H38.3578L38.0382 50.7055C37.9412 50.9873 37.9926 51.2606 38.178 51.4712C38.3777 51.6989 38.7115 51.81 39.0082 51.753C39.2849 51.6989 39.4903 51.5111 39.5845 51.2292L42.1577 43.7254L42.4116 43.8507V48.932C41.1278 49.2935 40.2434 50.4578 40.2434 51.7957V57.973C40.2434 58.9039 41.0023 59.6611 41.9551 59.6611C42.4059 59.6611 42.771 59.2967 42.771 58.8469C42.771 58.3971 42.4059 58.0328 41.9351 58.0328C41.9038 58.0328 41.8781 58.0072 41.8781 57.9758V53.4468H44.5825V58.0328C44.5825 58.0612 44.5597 58.0897 44.5283 58.0897C44.0776 58.121 43.7381 58.511 43.7695 58.9579C43.798 59.3849 44.1575 59.718 44.5825 59.718C44.5996 59.718 44.6196 59.718 44.6396 59.718C45.5239 59.6554 46.2143 58.9181 46.2143 58.0328V51.7957C46.2143 50.4549 45.3271 49.2935 44.0462 48.932V44.6648C44.7138 45.0007 46.6765 45.9629 47.3497 46.2931C48.5935 46.9422 49.3666 48.2146 49.3666 49.6152V58.7558C49.3666 59.8006 51.0013 59.8006 51.0013 58.7558V49.6152C51.0013 47.6054 49.8916 45.7779 48.1057 44.847L48.1086 44.8527ZM29.1176 56.1711C28.7011 56.1711 28.3616 55.8323 28.3616 55.4167C28.3616 55.0011 28.7011 54.6623 29.1176 54.6623C29.5341 54.6623 29.8736 55.0011 29.8736 55.4167C29.8736 55.8323 29.5341 56.1711 29.1176 56.1711ZM38.9283 48.1435H33.4396L31.6851 42.9796C31.9447 42.8487 32.1729 42.7348 32.3241 42.6579C33.0687 42.2793 33.9588 41.579 33.9588 40.4091V36.4636C35.4051 36.8934 36.9656 36.8963 38.4091 36.4636V40.4091C38.4091 41.3115 38.9511 42.0658 40.0238 42.6465C40.1864 42.7348 40.4203 42.8543 40.6856 42.991L38.9255 48.1435H38.9283ZM31.8249 33.3493C30.6581 32.185 30.0162 30.6393 30.0162 28.9968L30.0219 26.6625C32.7092 26.3949 35.0029 24.5844 36.2267 21.7776C37.1225 23.5824 38.8969 25.7914 42.3602 26.7109V28.9968C42.3602 32.3928 39.5902 35.1541 36.1839 35.1541C34.5379 35.1541 32.9917 34.5136 31.8249 33.3493ZM44.5825 51.8014V51.8213H41.8781C41.8924 51.457 42.0321 51.1125 42.2775 50.8592C42.5257 50.5973 42.8652 50.4549 43.2332 50.4549C43.9777 50.4549 44.5854 51.0613 44.5854 51.8043L44.5825 51.8014ZM45.4241 37.9239C45.4241 39.6632 44.9391 41.3485 44.0205 42.8116C43.4671 42.5384 41.0964 41.3684 40.8054 41.2118C40.3005 40.9385 40.0437 40.6653 40.0437 40.4062V35.7633C42.48 34.3741 43.9891 31.7894 43.9891 28.9968V26.0647C43.9891 25.6804 43.7153 25.3445 43.3359 25.2676C39.69 24.519 38.0867 22.1904 37.3821 20.3657C37.191 19.8732 36.726 19.5544 36.1754 19.5686C35.6333 19.58 35.1712 19.9102 35 20.4112C34.4066 22.1505 32.8604 25.0712 29.2003 25.0712C28.7496 25.0712 28.3844 25.4356 28.3844 25.8854L28.3787 28.9968C28.3787 31.7894 29.8878 34.3741 32.3241 35.7633V40.4062C32.3241 40.5087 32.3241 40.8247 31.5795 41.2033C31.1231 41.4367 28.8637 42.5526 28.3245 42.8202C27.4031 41.3542 26.9152 39.6632 26.9152 37.9268V24.2542C26.9152 22.5178 27.4031 20.8411 28.316 19.3779C28.373 19.301 28.4329 19.2042 28.4957 19.0904C29.0292 18.0912 29.9506 17.3084 30.6182 16.8358C30.6724 16.813 30.7237 16.7846 30.7751 16.7504C32.3526 15.6174 34.2184 15.0168 36.1697 15.0168C41.2704 15.0168 45.4212 19.1615 45.4212 24.2571V37.9296L45.4241 37.9239Z" fill="#BDA37E"/>
</svg>
