<svg width="73" height="73" viewBox="0 0 73 73" fill="none" xmlns="http://www.w3.org/2000/svg">
<circle cx="36.1797" cy="36.5469" r="35.5" fill="#FCFAF7" stroke="#BDA37E"/>
<path d="M28.4085 29.6953C28.7715 29.5076 28.9147 29.0607 28.7271 28.6977C28.5394 28.3348 28.0925 28.1916 27.7295 28.3792C26.6752 28.9224 25.3715 28.5101 24.8283 27.4558C24.6406 27.0928 24.1937 26.9496 23.8308 27.1372C23.4678 27.3249 23.3246 27.7718 23.5122 28.1348C24.1567 29.3817 25.4308 30.0977 26.7468 30.0977C27.3073 30.0977 27.8777 29.9669 28.4085 29.6928V29.6953Z" fill="#BDA37E"/>
<path d="M37.8049 33.1464C36.9111 34.0377 35.4568 34.0377 34.5605 33.1464C34.2716 32.8575 33.8024 32.8575 33.5135 33.1464C33.2247 33.4352 33.2247 33.9044 33.5135 34.1933C34.2493 34.9266 35.2148 35.2945 36.1827 35.2945C37.1506 35.2945 38.116 34.9266 38.8518 34.1933C39.1407 33.9044 39.1407 33.4352 38.8518 33.1464C38.5629 32.8575 38.0938 32.8575 37.8049 33.1464Z" fill="#BDA37E"/>
<path d="M48.5204 27.1377C48.1574 26.9501 47.7105 27.0908 47.5229 27.4562C46.9772 28.5081 45.6759 28.9229 44.6192 28.3772C44.2562 28.1896 43.8093 28.3328 43.6216 28.6957C43.434 29.0587 43.5772 29.5056 43.9401 29.6933C44.4735 29.9673 45.0414 30.0982 45.6019 30.0982C46.9204 30.0982 48.1945 29.3822 48.8389 28.1352C49.0266 27.7723 48.8858 27.3254 48.5204 27.1377Z" fill="#BDA37E"/>
<path d="M30.7764 39.3611C29.7196 39.9043 28.4184 39.492 27.8752 38.4401C27.6875 38.0772 27.2406 37.934 26.8776 38.1216C26.5147 38.3093 26.3715 38.7562 26.5591 39.1192C27.2036 40.3661 28.4776 41.0821 29.7937 41.0821C30.3542 41.0821 30.9221 40.9512 31.4554 40.6796C31.8184 40.492 31.9616 40.0451 31.7739 39.6821C31.5863 39.3192 31.1394 39.1759 30.7764 39.3636V39.3611Z" fill="#BDA37E"/>
<path d="M45.4867 38.1143C45.1237 37.9266 44.6768 38.0674 44.4891 38.4328C43.9459 39.4846 42.6422 39.8995 41.5879 39.3538C41.2249 39.1661 40.778 39.3093 40.5904 39.6723C40.4027 40.0353 40.5459 40.4822 40.9089 40.6698C41.4398 40.9439 42.0101 41.0723 42.5706 41.0723C43.8867 41.0723 45.1607 40.3562 45.8052 39.1093C45.9928 38.7464 45.8521 38.2995 45.4867 38.1118V38.1143Z" fill="#BDA37E"/>
<path d="M54.3895 25.4888C53.308 21.2542 50.0784 19.0147 45.7475 19.4962C43.6191 19.7332 41.7055 20.5851 40.4586 21.7135V18.8987C41.587 18.5752 42.4142 17.5382 42.4142 16.3085C42.4142 14.8246 41.2043 13.6172 39.7179 13.6172H32.6364C31.15 13.6172 29.9401 14.8246 29.9401 16.3085C29.9401 17.5382 30.7697 18.5752 31.8957 18.8987V21.7135C30.6487 20.5851 28.7352 19.7332 26.6068 19.4962C22.2759 19.0122 19.0463 21.2542 17.9648 25.4888C17.2858 28.1505 16.4389 31.4616 18.5648 37.9184C20.6759 44.39 25.0216 48.2542 30.192 48.2542C30.8562 48.2542 31.4117 48.1629 31.8932 48.0197V54.195C30.7648 54.5184 29.9376 55.553 29.9376 56.7826C29.9376 58.269 31.1475 59.4764 32.6339 59.4764H39.7154C41.2018 59.4764 42.4117 58.2666 42.4117 56.7826C42.4117 55.5555 41.5821 54.5184 40.4562 54.195V48.0197C40.9376 48.1629 41.4957 48.2542 42.1574 48.2542C45.5031 48.2542 48.4932 46.6814 50.8043 43.7036C54.3944 39.0814 55.9006 31.4197 54.3846 25.4863L54.3895 25.4888ZM38.9771 19.0024V22.7431H33.3771V19.0024H38.9771ZM33.3771 24.2246H38.9771V24.474C38.9129 26.6369 37.1944 26.9604 36.1771 26.9604C35.1599 26.9604 33.4413 26.6369 33.3796 24.474V24.2246H33.3771ZM31.4216 16.3085C31.4216 15.6419 31.9673 15.0987 32.6364 15.0987H39.7179C40.387 15.0987 40.9327 15.6419 40.9327 16.3085C40.9327 16.9752 40.387 17.5209 39.7179 17.5209H32.6364C31.9673 17.5209 31.4216 16.9777 31.4216 16.3085ZM33.3771 54.0913V50.3357H38.9771V54.0913H33.3771ZM40.9327 56.7826C40.9327 57.4518 40.387 57.995 39.7179 57.995H32.6364C31.9673 57.995 31.4216 57.4518 31.4216 56.7826C31.4216 56.1135 31.9673 55.5727 32.6364 55.5727H39.7154C40.3846 55.5727 40.9302 56.1159 40.9302 56.7826H40.9327ZM38.9771 48.8542H33.3771V47.3234C33.5969 47.1801 33.7994 47.0345 33.992 46.8962C34.6784 46.3999 35.2191 46.0073 36.1722 46.0024C37.1352 46.0073 37.6759 46.3999 38.3623 46.8962C38.5525 47.0345 38.7549 47.1801 38.9771 47.3234V48.8542ZM49.6389 42.795C48.229 44.6098 45.7895 46.7727 42.1623 46.7727C40.7228 46.7727 40.0315 46.274 39.2315 45.6962C38.4759 45.1481 37.6166 44.5283 36.1722 44.5234C34.7376 44.5308 33.8808 45.1505 33.1228 45.6962C32.3228 46.274 31.6339 46.7727 30.192 46.7727C25.6932 46.7727 21.8734 43.2913 19.9722 37.4567C17.9821 31.4098 18.7673 28.3308 19.3994 25.8567C20.6685 20.8814 24.7475 20.7801 26.4413 20.9703C29.5154 21.311 31.8562 23.1234 31.8932 24.516C31.9747 27.4172 34.2512 28.4443 36.1722 28.4443C38.0932 28.4443 40.3722 27.4147 40.4537 24.516C40.4932 23.1234 42.8339 21.3135 45.9055 20.9703C47.5994 20.7826 51.6784 20.8814 52.9475 25.8567C54.3599 31.3826 52.9648 38.5085 49.6315 42.7974L49.6389 42.795Z" fill="#BDA37E"/>
</svg>
