<svg width="73" height="73" viewBox="0 0 73 73" fill="none" xmlns="http://www.w3.org/2000/svg">
<circle cx="36.1797" cy="36.5469" r="35.5" fill="#FCFAF7" stroke="#BDA37E"/>
<path d="M51.0213 21.5165H49.78C49.3271 21.5165 48.9616 21.8837 48.9616 22.3386C48.9616 22.7936 49.3271 23.1608 49.78 23.1608H51.0213C53.4112 23.1608 55.3563 25.1148 55.3563 27.5156C55.3563 29.0668 54.527 30.5111 53.1902 31.2839L52.9556 31.4209L52.4727 30.5823L52.7073 30.4453C53.7467 29.8424 54.3906 28.7187 54.3906 27.5129C54.3906 25.6465 52.8792 24.1282 51.0213 24.1282H46.6154C45.0167 24.1282 43.6308 25.2135 43.2434 26.7674C42.9542 27.924 42.3977 29.1271 41.2518 31.0592C40.6489 32.0787 40.2206 33.1859 39.9832 34.3479L39.0093 39.1056C38.8402 39.0507 38.671 39.0042 38.4991 38.9603C38.5237 38.7767 38.5455 38.5931 38.5728 38.4122L39.0475 35.3564C39.0475 35.3564 39.0502 35.3345 39.0529 35.3235C39.2712 33.3942 39.8714 31.5552 40.8344 29.8561C41.3801 28.8941 41.7565 28.1295 42.0157 27.4498C42.2449 26.8442 42.5723 26.3043 42.9815 25.8466L43.4262 25.3478C43.759 24.9778 43.92 24.479 43.8736 23.9802C43.8245 23.4842 43.568 23.0265 43.1697 22.7278L42.5941 22.2948C42.1603 21.9686 41.7675 21.5493 41.4237 21.0451C40.2397 19.2966 38.2782 18.2551 36.1802 18.2551C34.0823 18.2551 32.1207 19.2993 30.9367 21.0451C30.593 21.5493 30.2001 21.9714 29.7663 22.2948L29.1907 22.7278C28.7924 23.0265 28.5359 23.4842 28.4868 23.9802C28.4377 24.4763 28.6014 24.9751 28.9343 25.3478L29.3789 25.8438C29.7909 26.3043 30.1155 26.8442 30.3447 27.4498C30.5657 28.0308 30.8794 28.6886 31.305 29.4642C31.5233 29.8615 32.0225 30.0068 32.4181 29.7848C32.8137 29.5656 32.9583 29.064 32.7373 28.6666C32.3499 27.9596 32.0662 27.3703 31.8725 26.8633C31.5696 26.0686 31.1413 25.356 30.5957 24.7449L30.151 24.2488C30.1183 24.2105 30.1128 24.1693 30.1155 24.1419C30.1183 24.1145 30.1292 24.0734 30.1701 24.046L30.7457 23.613C31.3241 23.18 31.8425 22.6264 32.2871 21.9714C33.1683 20.6723 34.6224 19.8995 36.1802 19.8995C37.738 19.8995 39.1921 20.6751 40.0733 21.9714C40.518 22.6264 41.0363 23.1772 41.6147 23.613L42.1903 24.046C42.2312 24.0762 42.2422 24.1145 42.2449 24.1419C42.2449 24.1693 42.2449 24.2105 42.2121 24.2461L41.7647 24.7449C41.2191 25.356 40.7908 26.0686 40.488 26.8633C40.2615 27.4635 39.9205 28.1542 39.4158 29.0394C38.3436 30.9276 37.6752 32.9721 37.4297 35.118L36.9577 38.1573C36.9305 38.3327 36.9114 38.5109 36.8841 38.689C36.6495 38.6698 36.4148 38.6588 36.1802 38.6588C35.9456 38.6588 35.7082 38.6698 35.4764 38.689C35.4518 38.5109 35.43 38.3327 35.4027 38.1573L34.9307 35.118C34.7834 33.8135 34.4724 32.5336 34.0141 31.3141C33.8531 30.8893 33.3811 30.6755 32.9583 30.8372C32.5354 30.9989 32.3226 31.473 32.4836 31.8978C32.8983 32.9968 33.1738 34.1478 33.3075 35.3208C33.3075 35.3318 33.3102 35.3427 33.3129 35.3537L33.7876 38.4094C33.8149 38.5876 33.8367 38.7712 33.8613 38.9521C33.6894 38.9959 33.5203 39.0453 33.3511 39.1001L32.3772 34.3452C32.1398 33.1831 31.7115 32.0759 31.1086 31.0564C29.9628 29.1243 29.4062 27.9212 29.117 26.7647C28.7296 25.2108 27.3437 24.1282 25.7451 24.1282H21.3391C19.4812 24.1282 17.9698 25.6465 17.9698 27.5129C17.9698 28.7187 18.6164 29.8424 19.6531 30.4453L19.8877 30.5823L19.4048 31.4209L19.1702 31.2839C17.8334 30.5083 17.0041 29.064 17.0041 27.5156C17.0041 25.1148 18.9492 23.1608 21.3391 23.1608H26.5881C27.9003 23.1608 29.0788 22.4428 29.6681 21.289C30.9258 18.8197 33.4221 17.285 36.1802 17.285C38.9384 17.285 41.4346 18.8197 42.6923 21.2917C43.2816 22.4455 44.4601 23.1635 45.7724 23.1635H46.9618C47.4147 23.1635 47.7803 22.7963 47.7803 22.3414C47.7803 21.8864 47.4147 21.5192 46.9618 21.5192H45.7724C45.0876 21.5192 44.4519 21.1355 44.1491 20.5408C42.6105 17.5179 39.5577 15.6406 36.1802 15.6406C32.8028 15.6406 29.75 17.5179 28.2113 20.5408C27.9085 21.1355 27.2728 21.5192 26.5881 21.5192H21.3391C18.0462 21.5192 15.3672 24.2105 15.3672 27.5183C15.3672 29.656 16.5103 31.6457 18.3518 32.7118L18.8974 33.0269C19.0229 34.2739 19.8632 35.5675 21.0472 36.2526C21.7592 36.6664 22.6841 36.8939 23.6035 36.8939C23.7944 36.8939 23.9854 36.8829 24.1764 36.8638C25.4641 36.7267 26.4598 36.1539 26.9754 35.255C27.9303 33.5915 26.9291 31.188 25.3904 29.9602L25.5268 29.4011C25.7587 28.4529 26.5962 27.7924 27.5675 27.7924H27.7066C28.0667 28.927 28.6614 30.1466 29.7009 31.9033C30.211 32.7638 30.5711 33.6984 30.773 34.6822L31.8125 39.7551C28.8497 41.3337 26.8281 44.4634 26.8281 48.0591C26.8281 53.2388 31.024 57.4538 36.1802 57.4538C41.3364 57.4538 45.5323 53.2388 45.5323 48.0591C45.5323 46.7545 45.2704 45.4911 44.7548 44.3045C44.5747 43.8879 44.0918 43.6988 43.6772 43.8797C43.2625 44.0605 43.0742 44.5456 43.2543 44.9622C43.6799 45.9406 43.8954 46.982 43.8954 48.0591C43.8954 52.3316 40.4334 55.8095 36.1802 55.8095C31.927 55.8095 28.465 52.3316 28.465 48.0591C28.465 43.7865 31.927 40.3087 36.1802 40.3087C38.3354 40.3087 40.4088 41.224 41.8684 42.8218C42.1739 43.1562 42.6923 43.1781 43.0251 42.8711C43.358 42.5642 43.3798 42.0435 43.0742 41.7091C42.3458 40.9089 41.4865 40.2539 40.548 39.7551L41.5874 34.6795C41.7893 33.6984 42.1494 32.7611 42.6596 31.9005C43.7017 30.1438 44.2964 28.9243 44.6538 27.7897H44.793C45.7642 27.7897 46.6017 28.4529 46.8336 29.3984L46.97 29.9575C46.3207 30.4754 45.7533 31.2072 45.3959 32.0129C44.8694 33.2023 44.8666 34.3534 45.385 35.255C45.9033 36.1567 46.8964 36.7267 48.1841 36.8638C48.3723 36.8829 48.566 36.8939 48.757 36.8939C49.6763 36.8939 50.6012 36.6664 51.3132 36.2526C52.4972 35.5675 53.3375 34.2739 53.463 33.0269L54.0086 32.7118C55.8501 31.6457 56.9932 29.6533 56.9932 27.5183C56.9932 24.2105 54.3142 21.5192 51.0213 21.5192V21.5165ZM25.5595 34.4301C25.314 34.8576 24.7466 35.1481 24.0045 35.2276C23.2515 35.3071 22.4304 35.1536 21.8656 34.8275C21.1236 34.3972 20.5507 33.5065 20.5179 32.7721L21.6092 30.8756C22.2585 30.5357 23.3115 30.5905 24.0536 31.0208C25.164 31.6649 26.1106 33.4709 25.5595 34.4329V34.4301ZM23.9363 29.0065L23.8926 29.1819C22.9187 28.9051 21.8574 28.9544 21.0144 29.3354L20.4688 29.0202C19.9341 28.7105 19.604 28.1322 19.604 27.5129C19.604 26.5537 20.3815 25.7726 21.3364 25.7726H25.7423C26.1843 25.7726 26.5962 25.9315 26.9154 26.2001C25.4722 26.4523 24.291 27.5348 23.9336 29.0065H23.9363ZM45.4395 26.2001C45.7615 25.9315 46.1707 25.7726 46.6126 25.7726H51.0186C51.9734 25.7726 52.751 26.5537 52.751 27.5129C52.751 28.1322 52.4181 28.7105 51.8861 29.0202L51.3405 29.3354C50.4975 28.9544 49.4363 28.9051 48.4623 29.1819L48.4187 29.0065C48.0613 27.5348 46.88 26.4523 45.4368 26.2001H45.4395ZM50.4921 34.8248C49.9273 35.1509 49.1089 35.3044 48.3532 35.2249C47.6111 35.1454 47.0437 34.8549 46.7982 34.4274C46.5526 33.9998 46.5854 33.3613 46.8882 32.6761C47.1965 31.98 47.7366 31.3442 48.3014 31.0153C48.7188 30.7742 49.2371 30.6508 49.7255 30.6508C50.1019 30.6508 50.4621 30.7248 50.7458 30.8728L51.837 32.7693C51.8043 33.5038 51.2314 34.3945 50.4893 34.8248H50.4921Z" fill="#BDA37E"/>
<path d="M36.1803 53.8131C33.4876 53.8131 31.2969 51.6124 31.2969 48.9102C31.2969 45.5393 35.5337 42.574 35.7165 42.4506C35.9947 42.256 36.3658 42.256 36.644 42.4506C36.8241 42.574 41.0636 45.542 41.0636 48.9102C41.0636 51.6152 38.8729 53.8131 36.1803 53.8131ZM36.1803 44.1498C34.9744 45.1008 32.9338 47.0959 32.9338 48.9102C32.9338 50.7245 34.3906 52.1688 36.1803 52.1688C37.9699 52.1688 39.4268 50.7053 39.4268 48.9102C39.4268 47.1151 37.3861 45.1008 36.183 44.1498H36.1803Z" fill="#BDA37E"/>
</svg>
