<svg width="73" height="73" viewBox="0 0 73 73" fill="none" xmlns="http://www.w3.org/2000/svg">
<circle cx="36.1797" cy="36.4844" r="35.5" fill="#FCFAF7" stroke="#BDA37E"/>
<path fill-rule="evenodd" clip-rule="evenodd" d="M31.1797 16.4844C30.6274 16.4844 30.1797 16.9321 30.1797 17.4844V21.4844C30.1797 22.0367 30.6274 22.4844 31.1797 22.4844H32.1797V23.7573C31.5971 23.9632 31.1797 24.5188 31.1797 25.1719V51.4844C31.1797 54.2458 33.4183 56.4844 36.1797 56.4844C38.9411 56.4844 41.1797 54.2458 41.1797 51.4844V25.1719C41.1797 24.5188 40.7623 23.9632 40.1797 23.7573V22.4844H41.1797C41.732 22.4844 42.1797 22.0367 42.1797 21.4844V17.4844C42.1797 16.9321 41.732 16.4844 41.1797 16.4844H31.1797ZM33.1797 25.5865C33.7623 25.3806 34.1797 24.825 34.1797 24.1719V22.4844H38.1797V24.1719C38.1797 24.825 38.5971 25.3806 39.1797 25.5865V30.4844H33.1797V25.5865ZM39.1797 37.4697L34.195 32.4844H33.1797V33.6413L39.1797 39.6413V37.4697ZM37.0233 32.4844L39.1797 34.6411V33.4697L38.1944 32.4844H37.0233ZM39.1797 42.4698L33.1797 36.4698V38.6413L39.1797 44.6413V42.4698ZM39.1797 49.6413L33.1797 43.6413V41.4698L39.1797 47.4698V49.6413ZM39.0545 52.3446L33.1797 46.4698V48.6412L38.2211 53.6827C38.6078 53.3235 38.8995 52.8636 39.0545 52.3446ZM36.1797 54.4844C34.5228 54.4844 33.1797 53.1413 33.1797 51.4844V51.4697L36.1943 54.4844H36.1797ZM32.1797 18.4844V20.4844H40.1797V18.4844H32.1797Z" fill="#BDA37E"/>
</svg>
