<svg width="73" height="73" viewBox="0 0 73 73" fill="none" xmlns="http://www.w3.org/2000/svg">
<circle cx="36.1797" cy="36.5469" r="35.5" fill="#FCFAF7" stroke="#BDA37E"/>
<path d="M49.9695 48.3867L42.6041 45.7867C42.2288 45.6533 41.9127 45.4163 41.6708 45.12C43.9029 44.5546 45.8683 43.9521 47.5226 43.3249C49.1695 42.7027 50.0782 40.9398 49.6362 39.2262C49.2387 37.6879 49.0387 35.8262 49.0387 33.6904V26.5595C49.0387 19.4657 43.2683 13.6953 36.1745 13.6953C29.0806 13.6953 23.3103 19.4657 23.3103 26.5595V33.6904C23.3103 35.8262 23.1103 37.6904 22.7127 39.2262C22.2708 40.9398 23.1794 42.7027 24.8263 43.3249C26.4806 43.9521 28.4461 44.5546 30.6782 45.12C30.4387 45.4163 30.1226 45.6533 29.7448 45.7867L22.3794 48.3867C20.3769 49.0928 19.0312 50.9965 19.0312 53.12V58.6509C19.0312 59.0607 19.3621 59.3916 19.772 59.3916C20.1819 59.3916 20.5127 59.0607 20.5127 58.6509V53.12C20.5127 52.7225 20.5819 52.3348 20.7078 51.9719L23.9992 54.7941C24.4683 55.1965 24.7374 55.7793 24.7374 56.3965V58.6509C24.7374 59.0607 25.0683 59.3916 25.4782 59.3916C25.888 59.3916 26.2189 59.0607 26.2189 58.6509V56.3965C26.2189 55.3472 25.7621 54.3521 24.9646 53.6681L21.4856 50.6879C21.8633 50.2904 22.335 49.9743 22.8732 49.7842L28.135 47.9274C30.3473 50.6311 32.6658 52.3941 34.2461 53.4064C34.8313 53.7817 35.5029 53.9694 36.1745 53.9694C36.8461 53.9694 37.5177 53.7817 38.1053 53.4064C39.688 52.3916 42.0041 50.6286 44.2164 47.9299L49.4782 49.7867C50.0189 49.9768 50.4905 50.2904 50.8658 50.6904L47.3868 53.6706C46.5893 54.3546 46.1325 55.3496 46.1325 56.399V58.6533C46.1325 59.0632 46.4634 59.3941 46.8732 59.3941C47.2831 59.3941 47.614 59.0632 47.614 58.6533V56.399C47.614 55.7817 47.8831 55.1965 48.3522 54.7965L51.6436 51.9743C51.7695 52.3373 51.8387 52.7249 51.8387 53.1225V58.6533C51.8387 59.0632 52.1695 59.3941 52.5794 59.3941C52.9893 59.3941 53.3201 59.0632 53.3201 58.6533V53.1225C53.3201 50.999 51.9745 49.0953 49.972 48.3891L49.9695 48.3867ZM46.9992 41.9398C45.3695 42.557 43.4189 43.1521 41.1942 43.7126V40.92C44.1769 39.1842 46.1868 35.9546 46.1868 32.2632V30.0163C46.6337 30.0706 47.0905 30.1126 47.5572 30.1323V33.6904C47.5572 35.9496 47.7745 37.9373 48.2016 39.5965C48.4535 40.5768 47.9374 41.5842 46.9992 41.9398ZM24.1498 39.5965C24.5769 37.9398 24.7942 35.9521 24.7942 33.6904V26.5595C24.7942 20.283 29.9004 15.1768 36.1769 15.1768C42.4535 15.1768 47.5596 20.283 47.5596 26.5595V28.6509C39.2189 28.2484 33.9769 21.204 33.9226 21.1299C33.6831 20.799 33.2189 20.7274 32.888 20.9669C32.5572 21.2064 32.4831 21.6706 32.7251 22.0015C32.935 22.2904 37.3226 28.204 44.7053 29.7694V32.2607C44.7053 36.9644 40.8782 40.7916 36.1745 40.7916C31.4708 40.7916 27.6436 36.9644 27.6436 32.2607V30.5521C27.6436 29.1817 28.3103 27.8879 29.4238 27.0928L31.8436 25.3644C32.609 26.1817 33.6683 27.2015 35.009 28.2336C35.1448 28.3373 35.3029 28.3867 35.4609 28.3867C35.6831 28.3867 35.9029 28.2879 36.0485 28.0978C36.2979 27.7743 36.2387 27.3077 35.9127 27.0583C33.2016 24.9694 31.6782 22.8904 31.614 22.804C31.372 22.4731 30.9103 22.399 30.5794 22.641C30.2485 22.883 30.1745 23.3447 30.4164 23.6756C30.4633 23.7398 30.614 23.9422 30.8609 24.2435L28.5646 25.883C27.0609 26.957 26.1646 28.7002 26.1646 30.5472V32.2558C26.1646 35.9472 28.1745 39.1768 31.1572 40.9126V43.7052C28.9325 43.1447 26.9819 42.5496 25.3547 41.9323C24.4164 41.5768 23.8979 40.5694 24.1522 39.5891L24.1498 39.5965ZM37.3053 52.157C36.6189 52.5965 35.7325 52.5965 35.0461 52.157C33.6387 51.2558 31.609 49.72 29.6263 47.399L30.2387 47.1817C31.6732 46.6756 32.6362 45.3151 32.6362 43.7941V41.6262C33.7374 42.0435 34.93 42.2731 36.1745 42.2731C37.4189 42.2731 38.6115 42.0435 39.7127 41.6262V43.7941C39.7127 45.3151 40.6757 46.6756 42.1103 47.1817L42.7226 47.399C40.7424 49.7151 38.7152 51.2509 37.3053 52.1546V52.157Z" fill="#BDA37E"/>
</svg>
