<svg width="73" height="73" viewBox="0 0 73 73" fill="none" xmlns="http://www.w3.org/2000/svg">
<circle cx="36.1797" cy="36.5469" r="35.5" fill="#FCFAF7" stroke="#BDA37E"/>
<path d="M42.7455 15.3392C37.9851 15.0898 34.2852 17.317 32.0461 21.7812C30.0722 25.712 28.1793 27.6824 26.9395 28.6429L26.7382 28.796C25.9329 29.4108 25.1964 30.0108 24.5335 30.5984C24.4697 30.6404 24.4107 30.6923 24.3616 30.7491C19.5103 35.0849 18.3417 38.6108 18.2803 40.9194C18.1944 44.1589 18.9137 47.2577 20.3598 49.8824C22.0661 52.9762 24.6636 55.2453 28.0787 56.6231C30.0256 57.3935 32.1002 57.7836 34.1895 57.7737C36.0873 57.7737 37.9703 57.47 39.7748 56.8774C43.8282 55.5416 47.0788 52.8849 48.9398 49.396C52.7403 42.2651 54.0709 39.1737 54.0906 32.4947C54.1029 28.7046 52.9048 24.4849 50.8916 21.2058C48.6672 17.5812 45.7727 15.4972 42.7455 15.3392ZM47.5698 48.6528C45.9003 51.7886 42.9616 54.1762 39.2936 55.3861C35.7607 56.5491 31.889 56.47 28.663 55.1688C25.5892 53.9293 23.2593 51.8947 21.7248 49.1219C20.4114 46.7441 19.7632 43.9219 19.8393 40.9639C19.8933 38.9836 20.9417 35.9268 25.2749 32.0281C25.9967 32.0133 26.6081 32.1244 26.8634 32.2429C26.8192 32.2972 26.7676 32.3589 26.7259 32.4058C26.3896 32.8009 25.7635 33.5318 26.2693 34.5071C26.5688 35.0873 27.2488 35.1466 27.9068 35.2034C28.0492 35.2157 28.253 35.233 28.4126 35.2577C28.3905 35.2997 28.3635 35.3491 28.3242 35.4133C28.1057 35.7886 27.7006 36.4873 28.2505 37.4083C28.3414 37.5589 28.4543 37.6947 28.5844 37.8108C28.2383 38.07 27.897 38.3392 27.5705 38.6009C27.2685 37.8379 26.7873 36.9688 26.09 36.6528C25.6776 36.4651 25.2013 36.4824 24.8036 36.6997C23.2249 37.5367 23.1414 39.8824 24.5777 43.4923C24.8821 44.2503 25.6137 44.7466 26.4264 44.7466C26.6645 44.7466 26.8978 44.7021 27.1212 44.6182C28.0148 44.2774 29.0239 43.9688 29.8243 43.7441C29.4192 44.8355 29.0583 45.9639 28.9404 46.7639C28.7759 47.8972 29.321 49.2997 30.443 50.6133C31.4766 51.8231 32.7729 52.7046 33.9071 52.9614C34.106 53.0058 34.3073 53.0256 34.5111 53.0231C37.17 53.0231 42.0532 49.9441 44.7563 46.433C47.9553 42.2774 49.1681 39.3268 48.9422 36.2404C48.8686 35.2083 48.7041 34.1861 48.4463 33.1836C48.2523 32.3787 48.1443 31.9367 48.326 31.1392C48.6771 29.596 48.0707 26.8429 46.2612 24.7812C45.2129 23.5836 43.3838 22.2256 40.6145 22.5071C35.5938 23.0182 32.6624 26.3737 32.7287 29.317C32.7704 31.1194 33.3645 33.2256 33.7574 34.4379C33.0454 34.5268 32.353 34.7416 31.7147 35.075C31.5969 35.1342 31.4962 35.2231 31.4225 35.3318C31.2433 35.5935 31.1255 35.8923 31.0764 36.2034C30.7793 36.354 30.4798 36.5268 30.1778 36.712C29.9323 36.7293 29.6426 36.6898 29.5886 36.596C29.5378 36.512 29.5648 36.3795 29.6696 36.1984C29.8537 35.8849 30.1631 35.3491 29.9618 34.6305C29.7236 33.7787 28.7489 33.6947 28.0369 33.633C27.951 33.6256 27.8479 33.6182 27.7497 33.6058C27.8013 33.5392 27.8602 33.47 27.9044 33.4182C28.2162 33.0552 28.8594 32.3021 28.2432 31.4009C27.9608 30.9886 27.4649 30.7491 26.9297 30.6133C27.1703 30.4231 27.4183 30.2305 27.6736 30.033L27.8823 29.8725C29.8734 28.3318 31.7393 25.8404 33.4308 22.475C35.2795 18.8058 38.2502 16.8799 42.0556 16.8799C42.2545 16.8799 42.4583 16.8799 42.6645 16.8972C45.1294 17.0256 47.6435 18.8947 49.5683 22.0182C51.4391 25.0577 52.5463 28.9663 52.5365 32.4774C52.5169 38.8009 51.2353 41.7663 47.5698 48.6478V48.6528ZM31.9111 38.2898C32.0854 38.4824 32.3457 38.5713 32.5985 38.5219C32.8146 38.4947 33.8384 38.4404 34.2557 39.8528C34.6756 41.2651 35.3114 42.196 36.1683 42.6898C36.0946 44.3737 35.7214 45.6725 35.0045 46.7466C34.7664 47.1071 34.8622 47.5935 35.2181 47.833C35.5766 48.0725 36.0602 47.9762 36.2984 47.6182C37.1307 46.3688 37.5824 44.912 37.7052 43.0873H37.7469C38.0759 43.0873 38.4049 43.0478 38.7265 42.9762C40.5973 42.5762 44.9207 40.5392 45.1049 40.4528C45.5002 40.2799 45.6794 39.8157 45.5051 39.4207C45.3332 39.0231 44.8716 38.8429 44.4788 39.0182C44.4666 39.0231 44.4543 39.0305 44.442 39.0355C44.3978 39.0552 40.0965 41.0824 38.4024 41.4453C37.9679 41.5392 37.58 41.5639 37.2313 41.4602C37.2117 41.4528 37.1896 41.4453 37.17 41.4404C36.5881 41.2379 36.1216 40.6602 35.7509 39.4083C35.1838 37.4947 33.777 36.9737 32.817 36.9466C32.6182 36.6725 32.6035 36.4972 32.6378 36.3737C35.0045 35.2923 36.8017 36.591 38.0513 37.9589C37.7886 38.2009 37.5382 38.4552 37.3001 38.7219C37.03 39.0602 37.084 39.554 37.4204 39.8231C37.7297 40.0725 38.179 40.0478 38.4589 39.7663C40.202 37.8157 42.7136 36.5984 45.92 36.1441C46.3472 36.0923 46.6541 35.7046 46.6025 35.2725C46.5509 34.8404 46.1655 34.5342 45.7358 34.5861C45.7236 34.5861 45.7137 34.5886 45.7015 34.591C43.1702 34.9491 41.0171 35.7491 39.2666 36.9762C38.2207 35.8256 37.1307 35.0528 36.0185 34.6774C35.827 34.6133 35.6331 34.5589 35.4342 34.517C35.1224 33.6355 34.3294 31.2034 34.2901 29.2824C34.2263 26.475 37.607 24.391 40.7741 24.0676C42.8855 23.8528 44.2898 24.9046 45.0975 25.8207C46.0452 26.8972 47.1672 29.2256 46.8112 30.791C46.5485 31.9515 46.7203 32.6602 46.9364 33.5565C47.1745 34.4725 47.3268 35.4108 47.3906 36.354C47.587 39.0108 46.4675 41.6528 43.5287 45.47C40.7102 49.1293 35.7583 51.7737 34.2607 51.4281C32.5028 51.0231 30.2809 48.4083 30.4896 46.9861C30.7572 45.154 32.6501 41.0009 32.6722 40.9589C32.849 40.5639 32.6746 40.0972 32.2818 39.9194C31.889 39.7416 31.425 39.917 31.2482 40.312C31.2163 40.3812 30.9192 41.033 30.5461 41.9293C29.2007 42.2676 27.8749 42.6775 26.5737 43.1565C26.3576 43.2379 26.117 43.1293 26.0311 42.9145C25.054 40.4528 24.8428 38.5416 25.4984 38.1145C25.7291 38.2898 26.1711 39.0947 26.4264 40.1293C26.527 40.5491 26.9493 40.8083 27.3667 40.7071C27.4845 40.6799 27.5926 40.6231 27.6834 40.5466C28.8005 39.6058 30.1901 38.4873 31.4839 37.7737C31.6116 37.9589 31.7515 38.1318 31.9087 38.2923L31.9111 38.2898Z" fill="#BDA37E"/>
</svg>
