<svg width="73" height="73" viewBox="0 0 73 73" fill="none" xmlns="http://www.w3.org/2000/svg">
<circle cx="36.1797" cy="36.4844" r="35.5" fill="#FCFAF7" stroke="#BDA37E"/>
<path d="M35.6654 28.5253C36.8095 27.9261 37.1797 27.2725 37.1797 26.8184C37.1797 26.4218 36.9058 25.8762 36.0441 25.3296L37.1153 23.6406C38.2526 24.362 39.1797 25.4422 39.1797 26.8184C39.1797 28.3894 37.9829 29.5692 36.5935 30.297C35.1566 31.0496 33.2409 31.4851 31.1797 31.4851C29.1185 31.4851 27.2028 31.0496 25.7659 30.297C24.3765 29.5692 23.1797 28.3894 23.1797 26.8184C23.1797 25.4422 24.1068 24.362 25.2441 23.6406L26.3153 25.3296C25.4536 25.8762 25.1797 26.4218 25.1797 26.8184C25.1797 27.2725 25.5499 27.9261 26.694 28.5253C27.7906 29.0998 29.3749 29.4851 31.1797 29.4851C32.9845 29.4851 34.5688 29.0998 35.6654 28.5253Z" fill="#BDA37E"/>
<path fill-rule="evenodd" clip-rule="evenodd" d="M35.1769 37.0273C40.4018 35.7954 44.1815 32.2125 44.1815 27.9844C44.1815 22.7377 38.3612 18.4844 31.1815 18.4844C24.0018 18.4844 18.1815 22.7377 18.1815 27.9844C18.1815 30.9602 20.0539 33.6165 22.9847 35.3584C18.5104 38.02 16.473 42.8752 18.4332 46.2703C20.4146 49.7023 25.7304 50.3427 30.3063 47.7008C34.74 45.141 36.8523 40.4389 35.1769 37.0273ZM39.1939 33.0871C41.1705 31.6426 42.1815 29.8145 42.1815 27.9844C42.1815 26.1543 41.1705 24.3262 39.1939 22.8817C37.2187 21.4383 34.3924 20.4844 31.1815 20.4844C27.9706 20.4844 25.1443 21.4383 23.1691 22.8817C21.1925 24.3262 20.1815 26.1543 20.1815 27.9844C20.1815 29.8145 21.1925 31.6426 23.1691 33.0871C25.1443 34.5305 27.9706 35.4844 31.1815 35.4844C34.3924 35.4844 37.2187 34.5305 39.1939 33.0871ZM24.1309 37.0048C24.5023 36.7903 24.8771 36.6027 25.2521 36.441C26.3375 36.8482 27.5114 37.1471 28.7473 37.3181L28.6053 38.564C29.2509 38.6375 29.5853 38.885 29.7296 39.1348C29.8931 39.418 29.9307 39.9251 29.5375 40.6472C29.1539 41.3516 28.4257 42.1084 27.4145 42.6922C26.4034 43.276 25.3839 43.5283 24.582 43.5083C23.7601 43.4877 23.3397 43.2016 23.1762 42.9183C23.032 42.6685 22.9849 42.2552 23.244 41.6593L21.4099 40.8618C20.9914 41.8244 20.8817 42.9441 21.4442 43.9183C22.0879 45.0333 23.3257 45.4775 24.5322 45.5076C25.7587 45.5382 27.1378 45.1614 28.4145 44.4242C29.6913 43.6871 30.7072 42.6812 31.294 41.6037C31.8711 40.5438 32.1053 39.2497 31.4616 38.1348C31.3173 37.8849 31.1427 37.6685 30.9451 37.4829C31.0237 37.4839 31.1025 37.4844 31.1815 37.4844C31.8208 37.4844 32.4494 37.4507 33.064 37.3855C33.1396 37.4881 33.2089 37.594 33.2719 37.7032C33.8773 38.7518 33.939 40.1579 33.2749 41.7126C32.6105 43.268 31.2557 44.8433 29.3063 45.9688C27.3568 47.0943 25.3152 47.4799 23.636 47.2776C21.9576 47.0754 20.7706 46.3189 20.1653 45.2703C19.5599 44.2218 19.4982 42.8156 20.1623 41.2609C20.8267 39.7055 22.1815 38.1303 24.1309 37.0048Z" fill="#BDA37E"/>
<path d="M48.7764 46.8549C48.6824 47.2056 48.319 47.6161 47.487 47.8614C46.6744 48.101 45.5691 48.1215 44.3845 47.804C43.1999 47.4866 42.2529 46.9163 41.669 46.3024C41.0712 45.674 40.9617 45.1368 41.0556 44.7862C41.1384 44.4772 41.4225 44.1285 42.0623 43.8765L41.3293 42.0156C40.3174 42.4142 39.4231 43.1515 39.1238 44.2685C38.7812 45.5468 39.357 46.7738 40.2199 47.6809C41.0967 48.6026 42.386 49.3391 43.8669 49.7359C45.3477 50.1327 46.8326 50.1395 48.0527 49.7797C49.2536 49.4256 50.3657 48.6509 50.7082 47.3726C51.0075 46.2556 50.6016 45.1699 49.9246 44.3188L48.3594 45.5638C48.7875 46.1019 48.8592 46.5459 48.7764 46.8549Z" fill="#BDA37E"/>
<path fill-rule="evenodd" clip-rule="evenodd" d="M54.4298 48.9402C53.3585 52.9384 48.1684 55.0216 42.8374 53.5932C37.5064 52.1648 34.0533 47.7656 35.1246 43.7673C36.196 39.7691 41.3861 37.6859 46.717 39.1143C52.048 40.5427 55.5011 44.9419 54.4298 48.9402ZM52.498 48.4225C52.1618 49.6772 51.1443 50.78 49.486 51.4456C47.827 52.1115 45.643 52.2744 43.3551 51.6613C41.0672 51.0483 39.2572 49.8153 38.1534 48.4091C37.05 47.0034 36.7203 45.5397 37.0565 44.285C37.3927 43.0303 38.4101 41.9275 40.0685 41.2619C41.7275 40.596 43.9115 40.4331 46.1994 41.0462C48.4873 41.6592 50.2973 42.8922 51.4011 44.2985C52.5044 45.7041 52.8342 47.1678 52.498 48.4225Z" fill="#BDA37E"/>
<path fill-rule="evenodd" clip-rule="evenodd" d="M48.0135 37.2461C50.4085 37.8878 52.7401 36.9519 53.2214 35.1556C53.7027 33.3594 52.1514 31.383 49.7564 30.7413C47.3614 30.0996 45.0298 31.0355 44.5485 32.8317C44.0672 34.628 45.6185 36.6043 48.0135 37.2461ZM50.5901 35.259C51.0931 35.0571 51.2484 34.7917 51.2896 34.638C51.3308 34.4843 51.329 34.1768 50.9943 33.7504C50.6592 33.3235 50.0587 32.8929 49.2388 32.6732C48.4189 32.4535 47.6835 32.5262 47.1798 32.7283C46.6768 32.9302 46.5215 33.1956 46.4803 33.3494C46.4391 33.5031 46.4409 33.8106 46.7756 34.2369C47.1107 34.6639 47.7112 35.0945 48.5311 35.3142C49.351 35.5339 50.0864 35.4612 50.5901 35.259Z" fill="#BDA37E"/>
</svg>
