<svg width="73" height="73" viewBox="0 0 73 73" fill="none" xmlns="http://www.w3.org/2000/svg">
<circle cx="36.1797" cy="36.4844" r="35.5" fill="#FCFAF7" stroke="#BDA37E"/>
<path fill-rule="evenodd" clip-rule="evenodd" d="M34.7031 16.4844C34.1508 16.4844 33.7031 16.9321 33.7031 17.4844C33.7031 18.0367 34.1508 18.4844 34.7031 18.4844H35.7031V21.5172C32.3133 21.7403 29.2311 23.0895 26.827 25.1942L24.6823 23.0494L25.3894 22.3423C25.7799 21.9518 25.7799 21.3186 25.3894 20.9281C24.9989 20.5376 24.3657 20.5376 23.9752 20.9281L21.1468 23.7565C20.7563 24.1471 20.7563 24.7802 21.1468 25.1708C21.5373 25.5613 22.1705 25.5613 22.561 25.1708L23.2681 24.4636L25.4128 26.6084C23.3081 29.0125 21.959 32.0948 21.7359 35.4846H18.7031V34.4846C18.7031 33.9324 18.2554 33.4846 17.7031 33.4846C17.1508 33.4846 16.7031 33.9324 16.7031 34.4846V38.4846C16.7031 39.0369 17.1508 39.4846 17.7031 39.4846C18.2554 39.4846 18.7031 39.0369 18.7031 38.4846V37.4846H21.7359C21.9591 40.8743 23.3082 43.9563 25.4128 46.3603L23.268 48.5051L22.5609 47.798C22.1704 47.4075 21.5372 47.4075 21.1467 47.798C20.7562 48.1885 20.7562 48.8217 21.1467 49.2122L23.9751 52.0406C24.3656 52.4312 24.9988 52.4312 25.3893 52.0406C25.7799 51.6501 25.7799 51.0169 25.3893 50.6264L24.6822 49.9193L26.827 47.7746C29.2311 49.8793 32.3133 51.2285 35.7031 51.4516V54.4844H34.7031C34.1508 54.4844 33.7031 54.9321 33.7031 55.4844C33.7031 56.0367 34.1508 56.4844 34.7031 56.4844H38.7031C39.2554 56.4844 39.7031 56.0367 39.7031 55.4844C39.7031 54.9321 39.2554 54.4844 38.7031 54.4844H37.7031V51.4516C41.0928 51.2285 44.175 49.8793 46.5791 47.7747L48.7239 49.9195L48.0168 50.6266C47.6263 51.0171 47.6263 51.6503 48.0168 52.0408C48.4073 52.4313 49.0405 52.4313 49.431 52.0408L52.2594 49.2124C52.65 48.8219 52.65 48.1887 52.2594 47.7982C51.8689 47.4076 51.2358 47.4076 50.8452 47.7982L50.1381 48.5053L47.9933 46.3605C50.098 43.9564 51.4471 40.8743 51.6703 37.4846H54.7031V38.4846C54.7031 39.0369 55.1508 39.4846 55.7031 39.4846C56.2554 39.4846 56.7031 39.0369 56.7031 38.4846V34.4846C56.7031 33.9324 56.2554 33.4846 55.7031 33.4846C55.1508 33.4846 54.7031 33.9324 54.7031 34.4846V35.4846H51.6703C51.4472 32.0947 50.098 29.0124 47.9933 26.6083L50.1381 24.4635L50.8452 25.1706C51.2357 25.5611 51.8689 25.5611 52.2594 25.1706C52.6499 24.78 52.6499 24.1469 52.2594 23.7564L49.431 20.9279C49.0404 20.5374 48.4073 20.5374 48.0168 20.9279C47.6262 21.3184 47.6262 21.9516 48.0168 22.3421L48.7239 23.0493L46.579 25.1941C44.175 23.0894 41.0928 21.7403 37.7031 21.5172V18.4844H38.7031C39.2554 18.4844 39.7031 18.0367 39.7031 17.4844C39.7031 16.9321 39.2554 16.4844 38.7031 16.4844H34.7031ZM28.2449 26.612C30.2816 24.8654 32.865 23.7382 35.7031 23.5223V24.4844C35.7031 25.0367 36.1508 25.4844 36.7031 25.4844C37.2554 25.4844 37.7031 25.0367 37.7031 24.4844V23.5223C40.5412 23.7382 43.1245 24.8654 45.1612 26.6119L44.4812 27.2919C44.0907 27.6824 44.0907 28.3156 44.4812 28.7061C44.8717 29.0966 45.5049 29.0966 45.8954 28.7061L46.5754 28.0261C48.3221 30.0629 49.4494 32.6464 49.6652 35.4846H48.7031C48.1508 35.4846 47.7031 35.9324 47.7031 36.4846C47.7031 37.0369 48.1508 37.4846 48.7031 37.4846H49.6652C49.4492 40.3227 48.322 42.906 46.5755 44.9426L45.8955 44.2626C45.505 43.8721 44.8718 43.8721 44.4813 44.2626C44.0907 44.6532 44.0907 45.2863 44.4813 45.6769L45.1613 46.3569C43.1246 48.1034 40.5412 49.2306 37.7031 49.4465V48.4844C37.7031 47.9321 37.2554 47.4844 36.7031 47.4844C36.1508 47.4844 35.7031 47.9321 35.7031 48.4844V49.4465C32.8649 49.2306 30.2815 48.1034 28.2448 46.3567L28.9249 45.6767C29.3154 45.2861 29.3154 44.653 28.9249 44.2625C28.5343 43.8719 27.9012 43.8719 27.5107 44.2625L26.8306 44.9425C25.0841 42.9059 23.957 40.3226 23.741 37.4846H24.7031C25.2554 37.4846 25.7031 37.0369 25.7031 36.4846C25.7031 35.9324 25.2554 35.4846 24.7031 35.4846H23.741C23.9568 32.6464 25.084 30.063 26.8306 28.0262L27.5107 28.7063C27.9012 29.0968 28.5344 29.0968 28.9249 28.7063C29.3154 28.3158 29.3154 27.6826 28.9249 27.2921L28.2449 26.612Z" fill="#BDA37E"/>
</svg>
