<svg width="73" height="73" viewBox="0 0 73 73" fill="none" xmlns="http://www.w3.org/2000/svg">
<circle cx="36.1797" cy="36.5469" r="35.5" fill="#FCFAF7" stroke="#BDA37E"/>
<path d="M54.67 38.5164C54.4108 38.3188 53.9589 38.146 53.4799 37.9633C52.9441 37.7584 52.3886 37.546 52.07 37.2892L52.0355 37.2621C50.2404 35.8102 47.6355 33.6003 44.9737 30.983L42.0157 27.9164C42.0034 27.9016 41.996 27.8867 41.9836 27.8719C37.391 22.783 34.875 18.383 34.5071 14.788C34.4083 13.825 33.6083 13.1016 32.6454 13.1016H24.27C23.2379 13.1016 22.3984 13.9411 22.3984 14.9732V58.1114C22.3984 59.1435 23.2379 59.983 24.27 59.983H28.8157L33.0034 59.9855L37.9688 59.983C39.0009 59.983 39.8404 59.1435 39.8404 58.1114V54.0472C40.917 54.183 42.9145 54.2892 45.1046 53.667C48.1639 52.7979 52.1861 50.3139 53.9737 43.4176C54.0404 43.1633 54.2577 42.8374 54.5095 42.4596C54.9046 41.867 55.3515 41.1979 55.4577 40.4645C55.5663 39.7213 55.2651 38.9756 54.67 38.5188V38.5164ZM44.717 52.0991C43.0009 52.5954 40.7935 52.6793 39.2231 52.304L35.233 51.3386C34.8009 51.2349 34.3639 51.5016 34.2602 51.9337C34.1565 52.3658 34.4231 52.8028 34.8552 52.9065L38.2281 53.7238V58.1114C38.2281 58.2547 38.112 58.3707 37.9688 58.3707H32.6182C32.5812 58.3707 32.5466 58.3756 32.5095 58.3806H29.5392C29.5021 58.3756 29.4676 58.3707 29.4305 58.3707H24.2725C24.1293 58.3707 24.0133 58.2547 24.0133 58.1114V14.9732C24.0133 14.83 24.1293 14.7139 24.2725 14.7139H32.6478C32.7812 14.7139 32.8923 14.8176 32.9046 14.9534C33.2972 18.8028 35.8429 23.388 40.4602 28.583L40.4454 28.5979L40.7812 28.946C40.7812 28.946 40.7861 28.9509 40.7886 28.9534C40.7886 28.9534 40.791 28.9559 40.7935 28.9584L42.875 31.1164C42.9095 31.1806 42.9515 31.2423 43.0058 31.2966C45.8429 34.1707 48.6972 36.6201 50.6133 38.183C50.0256 40.1929 50.7095 42.4374 52.2577 43.583C50.9342 48.1682 48.3984 51.0324 44.7194 52.0991H44.717ZM53.8602 40.2275C53.8058 40.5954 53.4898 41.0744 53.1836 41.5361C53.0849 41.6867 52.9812 41.8423 52.8873 41.9929C52.2182 41.2892 51.8997 40.1929 52.0552 39.1263C52.3688 39.267 52.7219 39.4028 53.0133 39.5139C53.3244 39.6324 53.6157 39.7435 53.6898 39.7979C53.8207 39.8966 53.8849 40.0621 53.8626 40.2275H53.8602Z" fill="#BDA37E"/>
</svg>
