<svg width="73" height="73" viewBox="0 0 73 73" fill="none" xmlns="http://www.w3.org/2000/svg">
<circle cx="36.1797" cy="36.5469" r="35.5" fill="#FCFAF7" stroke="#BDA37E"/>
<path d="M42.3611 33.2607C42.3865 32.9398 42.4007 32.619 42.4007 32.2953C42.4007 32.2413 42.3979 32.1845 42.3979 32.1306C42.3865 31.2588 42.2848 30.39 42.0898 29.5381C42.0134 29.203 41.9202 28.8708 41.8156 28.5414C41.8071 28.5159 41.7986 28.4875 41.7901 28.4591C41.6742 28.1042 41.5414 27.7521 41.3916 27.4056C41.3774 27.3772 41.3633 27.3489 41.3492 27.3176C40.88 26.3295 39.8511 25.7275 38.7572 25.8127L37.3919 25.9206C37.31 25.9263 37.2252 25.9291 37.1432 25.9348C36.8181 25.9547 36.4931 25.9689 36.1652 25.9689C35.8373 25.9689 35.5122 25.9547 35.1872 25.9348C35.1052 25.9291 35.0204 25.9263 34.9384 25.9206L33.5732 25.8127C32.4793 25.7275 31.4504 26.3295 30.9812 27.3176C30.9671 27.346 30.9529 27.3744 30.9388 27.4056C30.789 27.7521 30.6561 28.1042 30.5402 28.4591C30.5318 28.4847 30.5233 28.513 30.5148 28.5414C30.3961 28.9134 30.2943 29.2911 30.2123 29.6744C30.0371 30.4837 29.9438 31.3043 29.9325 32.1306C29.9325 32.1845 29.9297 32.2413 29.9297 32.2953C29.9297 32.6161 29.9438 32.9398 29.9693 33.2607C29.9721 33.309 29.9749 33.3572 29.9806 33.4055C29.9806 33.4311 29.9862 33.4566 29.989 33.4822C30.0767 34.3795 30.2604 35.2711 30.5459 36.1428L31.1084 37.8607L31.7529 39.8256C31.8687 40.1834 31.979 40.544 32.0836 40.9046C32.1344 41.0835 32.1853 41.2624 32.2334 41.4441C32.2956 41.6713 32.3577 41.9013 32.4143 42.1285C32.4623 42.3187 32.5076 42.5089 32.5528 42.6992C32.6037 42.9207 32.6517 43.1393 32.6998 43.3608C32.7422 43.5567 32.7817 43.7555 32.8185 43.9543C32.8609 44.1729 32.9005 44.3915 32.9372 44.6102C32.9711 44.8089 33.005 45.0077 33.0361 45.2093C33.0701 45.4336 33.1011 45.6551 33.1294 45.8794C33.1548 46.0754 33.1831 46.2713 33.2029 46.4672C33.2312 46.7029 33.251 46.9414 33.2736 47.1771C33.2905 47.3617 33.3103 47.5462 33.3244 47.7308C33.3442 47.9977 33.3584 48.2675 33.3725 48.5344C33.381 48.6905 33.3923 48.8439 33.3979 49C33.4149 49.4146 33.4234 49.8263 33.4234 50.2409C33.4234 50.2523 33.4234 50.2608 33.4234 50.2721C33.4234 51.7061 34.5851 52.8731 36.0125 52.8731H36.315C37.7424 52.8731 38.9042 51.7061 38.9042 50.2721C38.9042 50.2608 38.9042 50.2523 38.9042 50.2409C38.9042 49.8263 38.9126 49.4118 38.9296 49C38.9353 48.8439 38.9466 48.6905 38.955 48.5344C38.9692 48.2675 38.9833 47.9977 39.0031 47.7308C39.0172 47.5462 39.037 47.3617 39.054 47.1771C39.0766 46.9414 39.0964 46.7029 39.1246 46.4672C39.1473 46.2713 39.1727 46.0754 39.1981 45.8794C39.2264 45.6551 39.2575 45.4308 39.2914 45.2093C39.3225 45.0105 39.3564 44.8118 39.3903 44.6102C39.4271 44.3915 39.4667 44.1729 39.5091 43.9543C39.5458 43.7555 39.5882 43.5596 39.6278 43.3608C39.6758 43.1393 39.7239 42.9178 39.7748 42.6992C39.82 42.5089 39.8652 42.3187 39.9133 42.1285C39.9698 41.8985 40.032 41.6713 40.0942 41.4441C40.1422 41.2652 40.1931 41.0835 40.244 40.9046C40.3486 40.544 40.456 40.1834 40.5747 39.8256L41.2192 37.8607L41.7817 36.1428C41.9908 35.5096 42.1406 34.8622 42.2452 34.2091C42.2876 33.9422 42.3244 33.6724 42.347 33.4027C42.3526 33.3544 42.3526 33.3061 42.3583 33.2579L42.3611 33.2607ZM36.0182 51.0416C35.597 51.0416 35.2522 50.6952 35.2522 50.2721C35.2522 50.1813 35.2465 50.0876 35.2465 49.9967C35.2465 49.6446 35.2381 49.2925 35.2268 48.9404C35.2183 48.7473 35.207 48.5514 35.1957 48.3583C35.1815 48.1056 35.1702 47.8557 35.1504 47.6059C35.1335 47.3901 35.1109 47.1742 35.0911 46.9584C35.0685 46.7313 35.0487 46.5013 35.0232 46.2741C34.9978 46.0498 34.9667 45.8283 34.9384 45.604C34.9102 45.3854 34.8791 45.1667 34.848 44.9481C34.8141 44.7238 34.7745 44.4994 34.7377 44.2751C34.701 44.0593 34.6614 43.8407 34.6219 43.6249C34.5795 43.4034 34.5342 43.1847 34.489 42.9633C34.441 42.7418 34.3929 42.5231 34.342 42.3017C34.294 42.0887 34.2431 41.8757 34.1894 41.6656C34.1329 41.4356 34.0707 41.2056 34.0085 40.9756C33.9548 40.7769 33.9011 40.5781 33.8417 40.3793C33.8191 40.3055 33.8021 40.2288 33.7795 40.155C33.7739 40.1351 33.7626 40.1181 33.7569 40.0982C33.6721 39.8171 33.5901 39.5331 33.4969 39.2549L32.2899 35.572C31.49 33.1329 31.6087 30.4922 32.6234 28.1382C32.6743 28.0161 32.7535 27.9139 32.8524 27.8316C33.005 27.7038 33.2029 27.6356 33.4092 27.6442C33.4205 27.6442 33.4319 27.6442 33.4432 27.6442L34.5879 27.735L34.8084 27.7521C35.2635 27.789 35.7214 27.806 36.1793 27.806C36.6372 27.806 37.0951 27.789 37.5502 27.7521L37.7707 27.735L38.9155 27.6442C38.9155 27.6442 38.9381 27.6442 38.9494 27.6442C39.1557 27.6356 39.3536 27.7038 39.5062 27.8316C39.6023 27.9139 39.6815 28.0161 39.7352 28.1382C40.7499 30.495 40.8687 33.1358 40.0687 35.572L38.8618 39.2549C38.7685 39.536 38.6865 39.8171 38.6017 40.0982C38.5932 40.1181 38.5848 40.1351 38.5791 40.155C38.5565 40.2288 38.5395 40.3055 38.5169 40.3793C38.4604 40.5781 38.4039 40.7769 38.3502 40.9756C38.288 41.2056 38.2258 41.4356 38.1692 41.6656C38.1155 41.8786 38.0647 42.0887 38.0166 42.3017C37.9657 42.5203 37.9177 42.7418 37.8696 42.9633C37.8244 43.1847 37.7792 43.4034 37.7368 43.6249C37.6944 43.8407 37.6576 44.0565 37.6209 44.2751C37.5813 44.4994 37.5446 44.7238 37.5106 44.9481C37.4767 45.1667 37.4485 45.3854 37.4202 45.604C37.3891 45.8283 37.3608 46.0498 37.3354 46.2741C37.31 46.5013 37.2902 46.7284 37.2676 46.9584C37.2478 47.1742 37.2252 47.3901 37.2082 47.6059C37.1884 47.8557 37.1771 48.1084 37.163 48.3583C37.1517 48.5514 37.1375 48.7445 37.1319 48.9404C37.1178 49.2925 37.1149 49.6446 37.1121 49.9967C37.1121 50.0876 37.1064 50.1813 37.1064 50.2721C37.1064 50.6952 36.7616 51.0416 36.3404 51.0416H36.038H36.0182Z" fill="#BDA37E"/>
<path d="M60.4678 24.0017C60.4706 23.9393 60.4763 23.874 60.4791 23.8115C60.4791 23.7377 60.4734 23.661 60.4706 23.5872C60.4678 23.5247 60.4678 23.4651 60.4621 23.4026C60.4537 23.3259 60.4395 23.2464 60.4282 23.1698C60.4197 23.113 60.4141 23.0562 60.4028 22.9994C60.3858 22.917 60.3632 22.8347 60.3406 22.7523C60.3265 22.7012 60.318 22.6501 60.301 22.6019C60.2727 22.511 60.236 22.4201 60.2021 22.3293C60.1879 22.2895 60.1766 22.2498 60.1597 22.21C60.1116 22.0964 60.0579 21.9857 60.0014 21.8749C59.9929 21.8579 59.9873 21.8437 59.9788 21.8267C59.9109 21.6989 59.8375 21.574 59.7555 21.4519C59.1365 20.512 57.9182 19.4727 55.6202 19.8703C55.5523 19.8816 55.4845 19.8987 55.4195 19.9128C55.3234 19.9327 55.2273 19.9498 55.134 19.9725C55.0972 19.981 55.0633 19.9924 55.0266 20.0009C54.9022 20.0321 54.7806 20.0662 54.6591 20.1031C54.2068 20.2422 53.7772 20.4154 53.3843 20.5943C53.3702 20.6 53.356 20.6057 53.3419 20.6114C53.3249 20.6199 53.308 20.6284 53.291 20.6369C52.9094 20.813 52.5646 20.9947 52.2734 21.1537C50.7216 22.0056 47.9657 23.1357 45.1419 24.0841C45.026 24.1238 44.9073 24.1607 44.7914 24.2005C44.2996 23.3742 43.6127 22.7041 42.81 22.2327C42.7958 22.2242 42.7817 22.2157 42.7676 22.2072C42.6799 22.1561 42.5895 22.1106 42.5019 22.0652C42.4849 22.0567 42.4708 22.0482 42.4538 22.0396C42.3916 22.0084 42.3238 21.98 42.2616 21.9516C42.2192 21.9317 42.174 21.9119 42.1316 21.892C42.075 21.8693 42.0185 21.8494 41.962 21.8267C41.9083 21.8068 41.8546 21.7841 41.8009 21.767C41.7415 21.7472 41.6821 21.7301 41.6228 21.7131C41.5691 21.6961 41.5126 21.679 41.4588 21.662C41.4136 21.6506 41.3656 21.6393 41.3203 21.6307C41.2497 21.6137 41.1818 21.5967 41.1112 21.5825C40.902 21.5399 40.6872 21.5115 40.4724 21.4945C40.4017 21.4888 40.331 21.4859 40.2604 21.4831C40.184 21.4803 40.1077 21.4746 40.0314 21.4746H32.3233C32.2469 21.4746 32.1706 21.4803 32.0943 21.4831C32.0236 21.4859 31.953 21.4888 31.8823 21.4945C31.6675 21.5115 31.4527 21.5399 31.2435 21.5825C31.1728 21.5967 31.105 21.6137 31.0343 21.6307C30.9891 21.6421 30.941 21.6506 30.8958 21.662C30.8393 21.6762 30.7856 21.6961 30.7319 21.7131C30.6725 21.7301 30.6132 21.7472 30.5538 21.767C30.5001 21.7869 30.4464 21.8068 30.3927 21.8267C30.3361 21.8494 30.2768 21.8664 30.2231 21.892C30.1779 21.909 30.1355 21.9317 30.0931 21.9516C30.028 21.98 29.963 22.0084 29.9008 22.0396C29.8839 22.0482 29.8698 22.0567 29.8528 22.0652C29.7623 22.1106 29.6747 22.1561 29.5871 22.2072C29.573 22.2157 29.5588 22.2242 29.5447 22.2327C28.7419 22.7012 28.0551 23.3714 27.5632 24.2005C27.4445 24.1636 27.3286 24.1238 27.2127 24.0841C24.389 23.1357 21.633 22.0056 20.0812 21.1537C19.7957 20.9975 19.4565 20.8187 19.0834 20.6454C19.058 20.6341 19.0354 20.6227 19.0128 20.6114C18.9986 20.6057 18.9845 20.6 18.9704 20.5943C18.5775 20.4154 18.1478 20.2422 17.6956 20.1031C17.6023 20.0747 17.5062 20.0491 17.4129 20.0236C17.3479 20.0066 17.2857 19.9867 17.2207 19.9696C17.1274 19.9469 17.0313 19.9299 16.9352 19.91C16.8674 19.8958 16.8023 19.8788 16.7345 19.8674C14.4393 19.4727 13.2182 20.5091 12.5992 21.449C12.5172 21.5711 12.4437 21.6961 12.3759 21.8238C12.3674 21.8409 12.3617 21.8551 12.3533 21.8721C12.2967 21.9828 12.2402 22.0936 12.195 22.2072C12.178 22.2469 12.1667 22.2867 12.1526 22.3264C12.1187 22.4173 12.0819 22.5082 12.0536 22.599C12.0395 22.6501 12.0282 22.7012 12.0141 22.7495C11.9915 22.8319 11.9688 22.9142 11.9519 22.9965C11.9406 23.0533 11.9349 23.1101 11.9264 23.1669C11.9151 23.2436 11.901 23.3203 11.8925 23.3998C11.8869 23.4594 11.8869 23.5219 11.884 23.5843C11.8812 23.6581 11.8727 23.732 11.8756 23.8086C11.8756 23.8711 11.8812 23.9364 11.8869 23.9989C11.8897 24.0727 11.8925 24.1465 11.901 24.2175C11.9067 24.2828 11.9208 24.3481 11.9321 24.4135C11.9434 24.4816 11.9491 24.5469 11.9632 24.6151C11.9632 24.6207 11.9632 24.6236 11.966 24.6293C11.966 24.6349 11.966 24.6406 11.966 24.6463C11.9886 24.7514 12.0197 24.8564 12.048 24.9586C12.0565 24.9899 12.0621 25.0183 12.0706 25.0495C12.3844 26.0547 13.0543 26.9832 14.0323 27.7584C14.004 27.8549 13.9814 27.9543 13.9644 28.0537C13.9588 28.0878 13.9531 28.1218 13.9503 28.1559C13.939 28.2212 13.9305 28.2837 13.9249 28.349C13.9192 28.3944 13.9192 28.4427 13.9164 28.4881C13.9164 28.5393 13.9107 28.5904 13.9107 28.6443C13.9107 28.6983 13.9107 28.7551 13.9107 28.809C13.9107 28.8516 13.9164 28.8914 13.9192 28.9339C13.9249 28.9993 13.9305 29.0617 13.9362 29.127C13.939 29.1526 13.9446 29.181 13.9475 29.2065C14.0125 29.6381 14.151 30.0697 14.363 30.4871C14.3715 30.5042 14.3799 30.5212 14.3884 30.5383C14.4252 30.6064 14.4619 30.6746 14.5015 30.7427C14.5128 30.7626 14.5241 30.7796 14.5354 30.7995C14.5948 30.896 14.657 30.9926 14.722 31.0863C14.7587 31.1402 14.7983 31.1942 14.8379 31.2481C14.8633 31.2822 14.8887 31.3134 14.9142 31.3475C14.9679 31.4157 15.0216 31.4838 15.0809 31.5491C15.0979 31.5662 15.112 31.586 15.129 31.6031C15.2929 31.7905 15.4738 31.9665 15.666 32.1369C15.6717 32.1426 15.6774 32.1454 15.6802 32.1511C15.8809 32.3271 16.0985 32.4918 16.3275 32.6452C16.6412 32.8553 16.9776 33.0455 17.3337 33.2074C18.0319 33.5254 18.7753 33.7157 19.5018 33.7838C19.5244 33.7866 19.547 33.7952 19.5696 33.7952C19.6063 33.798 19.6403 33.7952 19.6742 33.8008C19.7251 33.8037 19.7731 33.8037 19.824 33.8065C19.9031 33.8094 19.9823 33.815 20.0586 33.815C20.101 33.815 20.1406 33.815 20.1801 33.8122C20.1886 33.8122 20.1971 33.8122 20.2056 33.8122C21.2119 33.7867 22.0966 33.5027 22.775 33.0086C22.7834 33.0029 22.7919 32.9973 22.8004 32.9916C22.9078 32.9121 23.0096 32.8269 23.1057 32.7389C23.1198 32.7247 23.1339 32.7105 23.1481 32.6963C23.2329 32.6168 23.312 32.5316 23.3855 32.4436C23.3968 32.4294 23.4081 32.418 23.4194 32.4038C23.4958 32.3073 23.5692 32.2079 23.6343 32.1057C23.6512 32.0801 23.6654 32.0546 23.6795 32.0318C23.7445 31.9239 23.8039 31.816 23.8576 31.7025C23.9311 31.5463 23.9848 31.3844 24.03 31.2197C24.0752 31.0579 24.112 30.8932 24.1317 30.7257C24.1996 30.1634 24.1233 29.5728 23.9028 28.9794C23.4053 27.642 22.2464 26.4778 20.7229 25.7849C19.482 25.2199 18.1422 25.041 16.9522 25.2767C16.825 25.3022 16.7006 25.3335 16.579 25.3675C15.9685 25.5407 15.4343 25.8218 15.0075 26.2023C14.9764 26.1768 14.9481 26.1484 14.9198 26.1228C14.8661 26.0746 14.8124 26.0291 14.7615 25.9809C14.7361 25.9553 14.7107 25.9269 14.6852 25.9014C14.6343 25.8502 14.5863 25.7991 14.5382 25.748C14.5071 25.7139 14.4817 25.6799 14.4534 25.6458C14.4139 25.6004 14.3743 25.5549 14.3404 25.5095C14.3093 25.4698 14.2838 25.4328 14.2584 25.3931C14.2273 25.3505 14.1962 25.3079 14.1679 25.2653C14.1397 25.2227 14.1171 25.1801 14.0916 25.1404C14.0662 25.1006 14.0408 25.058 14.0181 25.0183C13.9955 24.9757 13.9757 24.9331 13.956 24.8877C13.9362 24.8479 13.9136 24.8053 13.8966 24.7656C13.8768 24.723 13.8627 24.6775 13.8457 24.6349C13.8316 24.5952 13.8146 24.5526 13.8005 24.5128C13.7864 24.4674 13.775 24.4248 13.7637 24.3794C13.7524 24.3396 13.7411 24.2999 13.7327 24.2601C13.7242 24.2119 13.7157 24.1664 13.71 24.1181C13.7044 24.0898 13.6987 24.0585 13.6959 24.0301C13.6903 23.9819 13.6903 23.9336 13.6874 23.8825C13.6874 23.8541 13.6846 23.8257 13.6846 23.8001C13.6846 23.749 13.6874 23.6979 13.6931 23.6468C13.6931 23.6212 13.6931 23.5957 13.6959 23.573C13.7016 23.5162 13.7129 23.4622 13.7213 23.4054C13.7242 23.3856 13.727 23.3657 13.7298 23.3458C13.744 23.2833 13.7609 23.2209 13.7779 23.1556C13.7807 23.1442 13.7835 23.1328 13.7864 23.1215C13.809 23.0477 13.8372 22.9767 13.8655 22.9057C13.8655 22.9057 13.8655 22.9028 13.8655 22.9C13.9277 22.7523 14.0068 22.6075 14.1029 22.4627C14.5806 21.7358 15.3156 21.4859 16.4094 21.6733C16.9182 21.7614 17.4383 21.9374 17.8962 22.1277C18.0263 22.1816 18.1506 22.2384 18.2694 22.2924C18.3881 22.3463 18.4983 22.4003 18.6029 22.4514C18.7584 22.528 18.894 22.599 19.0043 22.6586C19.0778 22.6984 19.14 22.7325 19.1908 22.7609C19.1965 22.7637 19.205 22.7694 19.2106 22.7722C20.9405 23.7178 23.6625 24.8394 26.5683 25.8048C26.6502 25.8332 26.735 25.8616 26.817 25.89L25.3274 29.8511C24.9175 30.9443 24.8554 32.1199 25.155 33.25C25.1635 33.2841 25.1748 33.3181 25.1889 33.3522L29.5193 44.2843C30.4096 46.5332 30.8675 48.9042 30.8817 51.3262L30.8958 53.7966C30.9071 55.7587 31.9558 57.5419 33.5641 58.4875C33.9344 58.7061 34.3358 58.8793 34.7598 59.0014C34.8276 59.0213 34.8955 59.0355 34.9633 59.0525C35.3477 59.1462 35.7434 59.203 36.142 59.2115H36.1816C36.5801 59.203 36.9758 59.1491 37.3603 59.0525C37.4281 59.0355 37.4959 59.0213 37.5638 59.0014C37.9878 58.8793 38.3892 58.7061 38.7594 58.4875C40.3678 57.5391 41.4193 55.7587 41.4278 53.7966L41.4419 51.3262C41.456 48.9042 41.9139 46.5332 42.8043 44.2843L47.1347 33.3522C47.1488 33.3181 47.1601 33.2841 47.1686 33.25C47.4682 32.1199 47.4089 30.9443 46.9962 29.8511L45.5065 25.89C45.5885 25.8616 45.6733 25.8332 45.7553 25.8048C48.661 24.8394 51.3831 23.7178 53.1129 22.7722C53.1186 22.7694 53.1271 22.7637 53.1327 22.7609C53.1836 22.7325 53.2458 22.6984 53.3193 22.6586C53.4295 22.599 53.5652 22.528 53.7207 22.4514C53.8224 22.4003 53.9355 22.3463 54.0542 22.2924C54.1729 22.2384 54.2973 22.1816 54.4273 22.1277C54.8852 21.9374 55.4025 21.7614 55.9141 21.6733C57.008 21.4831 57.7429 21.7358 58.2206 22.4627C58.3167 22.6075 58.3959 22.7523 58.4581 22.9C58.4581 22.9 58.4581 22.9028 58.4581 22.9057C58.4892 22.9767 58.5146 23.0505 58.5372 23.1215C58.54 23.1328 58.5429 23.1442 58.5457 23.1556C58.5655 23.218 58.5824 23.2805 58.5937 23.3458C58.5966 23.3657 58.5994 23.3856 58.6022 23.4054C58.6135 23.4622 58.622 23.5162 58.6277 23.573C58.6277 23.5985 58.6277 23.6241 58.6305 23.6468C58.6333 23.6979 58.639 23.749 58.639 23.8001C58.639 23.8285 58.6361 23.8569 58.6361 23.8825C58.6361 23.9307 58.6333 23.979 58.6277 24.0301C58.6248 24.0585 58.6192 24.0898 58.6135 24.1181C58.6079 24.1664 58.5994 24.2119 58.5909 24.2601C58.5824 24.2999 58.5711 24.3396 58.5598 24.3794C58.5485 24.4248 58.5372 24.4674 58.5231 24.5128C58.5089 24.5526 58.492 24.5952 58.4779 24.6349C58.4609 24.6775 58.4468 24.723 58.427 24.7656C58.41 24.8053 58.3874 24.8479 58.3676 24.8877C58.3478 24.9302 58.328 24.9728 58.3054 25.0183C58.2828 25.058 58.2574 25.1006 58.2319 25.1404C58.2065 25.183 58.1839 25.2256 58.1556 25.2653C58.1274 25.3079 58.0963 25.3505 58.0652 25.3931C58.0369 25.4328 58.0115 25.4698 57.9832 25.5095C57.9464 25.5549 57.9069 25.6004 57.8701 25.6458C57.8419 25.6799 57.8164 25.7139 57.7853 25.748C57.7401 25.7991 57.6892 25.8502 57.6383 25.9014C57.6129 25.9269 57.5903 25.9553 57.562 25.9809C57.5112 26.0291 57.4574 26.0774 57.4037 26.1228C57.3755 26.1484 57.3472 26.1768 57.3161 26.2023C56.8893 25.8218 56.3522 25.5407 55.7445 25.3675C55.623 25.3335 55.4986 25.3022 55.3714 25.2767C54.1814 25.0381 52.8416 25.2199 51.6007 25.7849C50.0743 26.4778 48.9154 27.642 48.4208 28.9794C48.2003 29.5728 48.124 30.1634 48.1918 30.7257C48.2003 30.7881 48.2144 30.8506 48.2257 30.9159C48.2342 30.9642 48.2399 31.0125 48.2512 31.0607C48.2597 31.0976 48.271 31.1346 48.2823 31.1686C48.3303 31.3504 48.3897 31.5292 48.4688 31.7025C48.5225 31.816 48.5819 31.9268 48.6469 32.0318C48.661 32.0574 48.678 32.0829 48.6921 32.1057C48.76 32.2079 48.8306 32.3101 48.907 32.4038C48.9183 32.418 48.9296 32.4294 48.9409 32.4436C49.0144 32.5316 49.0935 32.6168 49.1783 32.6963C49.1924 32.7105 49.2066 32.7247 49.2207 32.7389C49.3168 32.8297 49.4186 32.9121 49.526 32.9916C49.5345 32.9973 49.5429 33.0029 49.5514 33.0086C50.2298 33.5027 51.1145 33.7867 52.1208 33.8122C52.1293 33.8122 52.1378 33.8122 52.1462 33.8122C52.1886 33.8122 52.2282 33.815 52.2678 33.815C52.3441 33.815 52.4233 33.8094 52.5024 33.8065C52.5533 33.8065 52.6013 33.8037 52.6522 33.8008C52.689 33.8008 52.7229 33.8008 52.7568 33.7952C52.7794 33.7952 52.802 33.7866 52.8246 33.7838C53.5511 33.7157 54.2916 33.5254 54.9926 33.2074C55.3488 33.0455 55.688 32.8553 55.9989 32.6452C56.2279 32.4918 56.4427 32.3243 56.6462 32.1483C56.6519 32.1426 56.6575 32.1397 56.6603 32.1341C56.8526 31.9637 57.0335 31.7876 57.1974 31.6002C57.2144 31.5832 57.2285 31.5633 57.2454 31.5463C57.302 31.481 57.3585 31.4128 57.4122 31.3447C57.4377 31.3106 57.4631 31.2794 57.4885 31.2453C57.5281 31.1913 57.5677 31.1374 57.6044 31.0834C57.6694 30.9897 57.7316 30.8932 57.791 30.7967C57.8023 30.7768 57.8164 30.7569 57.8277 30.7399C57.8673 30.6717 57.904 30.6036 57.9408 30.5354C57.9493 30.5184 57.9578 30.5013 57.9662 30.4843C58.1782 30.0669 58.3167 29.6353 58.3817 29.2037C58.3846 29.1781 58.3902 29.1497 58.3931 29.1242C58.4015 29.0589 58.4072 28.9964 58.41 28.9311C58.4128 28.8885 58.4157 28.8488 58.4185 28.8062C58.4185 28.7522 58.4213 28.6954 58.4185 28.6415C58.4185 28.5904 58.4185 28.5393 58.4128 28.4853C58.4128 28.4399 58.4072 28.3916 58.4044 28.3462C58.3987 28.2809 58.3902 28.2155 58.3789 28.1531C58.3733 28.119 58.3704 28.0849 58.3648 28.0509C58.345 27.9515 58.3252 27.8521 58.2969 27.7555C59.275 26.9804 59.9449 26.0518 60.2586 25.0467C60.2671 25.0183 60.2727 24.987 60.2812 24.9558C60.3123 24.8507 60.3406 24.7485 60.3632 24.6435C60.3632 24.6378 60.3632 24.6321 60.3632 24.6264C60.3632 24.6207 60.3632 24.6179 60.366 24.6122C60.3802 24.5441 60.3858 24.4788 60.3971 24.4106C60.4084 24.3453 60.4197 24.28 60.4282 24.2147C60.4367 24.1409 60.4367 24.067 60.4423 23.9961L60.4678 24.0017ZM40.0258 23.3089C41.5663 23.3089 42.9654 24.28 43.5081 25.7281L45.3002 30.4957C45.5687 31.2112 45.614 31.9807 45.4302 32.7218C45.4302 32.7218 45.4302 32.7247 45.4302 32.7275L41.1225 43.6056C40.1473 46.0703 39.6442 48.6628 39.63 51.3149L39.6159 53.7853C39.6074 55.3924 38.5616 56.815 37.072 57.2409C37.0154 57.258 36.9561 57.2665 36.8995 57.2778C36.6621 57.3346 36.419 57.3715 36.1703 57.3772C35.9243 57.3715 35.6813 57.3318 35.441 57.2778C35.3845 57.2636 35.3251 57.2551 35.2686 57.2409C33.779 56.8122 32.7331 55.3924 32.7246 53.7853L32.7105 51.3149C32.6964 48.6628 32.1932 46.0703 31.218 43.6056L26.9103 32.7275C26.9103 32.7275 26.9103 32.7247 26.9103 32.7218C26.7266 31.9807 26.769 31.2112 27.0403 30.4957L28.8324 25.7281C29.3751 24.2828 30.7771 23.3089 32.3148 23.3089H40.0229H40.0258ZM17.3281 31.126C17.2235 31.055 17.1246 30.9812 17.0285 30.9046C17.0059 30.8875 16.9861 30.8705 16.9635 30.8534C16.7713 30.6944 16.5988 30.5241 16.4434 30.348C16.4292 30.331 16.4151 30.3168 16.4038 30.2997C16.2483 30.1123 16.1127 29.9136 16.0052 29.712C16.0052 29.7091 16.0024 29.7063 15.9996 29.7034C15.9459 29.5984 15.8978 29.4905 15.8583 29.3854C15.83 29.3088 15.8017 29.2207 15.7791 29.1299C15.7763 29.1157 15.7706 29.1015 15.7678 29.0844C15.7593 29.0447 15.7508 29.0049 15.7452 28.9623C15.7424 28.9425 15.7395 28.9226 15.7367 28.9027C15.7311 28.8658 15.7282 28.826 15.7254 28.7891C15.7254 28.7636 15.7254 28.7352 15.7254 28.7096C15.7254 28.6755 15.7254 28.6443 15.7254 28.6102C15.7254 28.5506 15.7339 28.4881 15.7452 28.4314C15.7508 28.403 15.7593 28.3717 15.765 28.3433C15.7735 28.3121 15.7763 28.2809 15.7876 28.2496C15.8046 28.19 15.8272 28.1304 15.8554 28.0707C15.8922 27.9941 15.9346 27.9202 15.9855 27.8493C15.9968 27.8322 16.0109 27.818 16.0222 27.801C16.0646 27.747 16.107 27.6959 16.1579 27.6448C16.172 27.6306 16.1861 27.6164 16.2003 27.6051C16.2568 27.5539 16.3162 27.5057 16.3784 27.4602C16.3868 27.4546 16.3981 27.446 16.4066 27.4404C16.808 27.1706 17.3648 27.0173 18.0178 27.0173C18.1761 27.0173 18.34 27.0258 18.5011 27.0457C18.5068 27.0457 18.5124 27.0457 18.5181 27.0457C18.8262 27.0826 19.1343 27.1507 19.4396 27.2501C19.4791 27.2615 19.5159 27.2757 19.5555 27.2899C19.6855 27.3353 19.8155 27.3864 19.9455 27.4432C19.9568 27.4489 19.971 27.4517 19.9823 27.4574C21.0536 27.943 21.8846 28.7522 22.2068 29.6239C22.3312 29.959 22.4329 30.4588 22.2125 30.9415C22.1729 31.0267 22.1248 31.1062 22.0683 31.1828C22.057 31.197 22.0457 31.2112 22.0344 31.2254C21.9807 31.2936 21.9213 31.3589 21.8563 31.4185C21.8507 31.4213 21.8478 31.427 21.8422 31.4299C21.6867 31.5662 21.5002 31.6826 21.2853 31.7706C21.2853 31.7706 21.2825 31.7706 21.2797 31.7706C21.1751 31.8132 21.0677 31.8501 20.9518 31.8813C20.9462 31.8813 20.9377 31.8842 20.932 31.887C20.819 31.9183 20.7002 31.941 20.5787 31.958C20.5533 31.9608 20.5278 31.9637 20.4995 31.9665C20.4091 31.9779 20.3186 31.9836 20.2254 31.9892C20.1773 31.9892 20.1321 31.9921 20.084 31.9921C19.9936 31.9921 19.9003 31.9921 19.8042 31.9836C19.253 31.9495 18.6623 31.8075 18.0885 31.5491C17.8199 31.427 17.5684 31.285 17.3366 31.1289L17.3281 31.126ZM52.5476 31.9836C52.4543 31.9892 52.3582 31.9921 52.2678 31.9921C52.2197 31.9921 52.1717 31.9921 52.1265 31.9892C52.0332 31.9864 51.9427 31.9779 51.8523 31.9665C51.8268 31.9637 51.7986 31.9608 51.7731 31.958C51.6516 31.941 51.5329 31.9183 51.4198 31.887C51.4142 31.887 51.4057 31.8842 51.4 31.8813C51.2841 31.8501 51.1767 31.8132 51.0721 31.7706C51.0721 31.7706 51.0693 31.7706 51.0665 31.7706C50.8517 31.6797 50.6651 31.5662 50.5096 31.4299C50.504 31.427 50.5012 31.4213 50.4955 31.4185C50.4277 31.3589 50.3711 31.2936 50.3174 31.2254C50.3061 31.2112 50.2948 31.197 50.2835 31.1828C50.227 31.1062 50.1789 31.0267 50.1394 30.9415C49.9189 30.4588 50.0206 29.959 50.145 29.6239C50.4672 28.7522 51.2983 27.943 52.3696 27.4574C52.3809 27.4517 52.395 27.4489 52.4063 27.4432C52.5335 27.3864 52.6663 27.3353 52.7964 27.2899C52.8359 27.2757 52.8727 27.2643 52.9123 27.2501C53.2175 27.1507 53.5256 27.0826 53.8337 27.0457C53.8394 27.0457 53.845 27.0457 53.8507 27.0457C54.0118 27.0286 54.1729 27.0173 54.334 27.0173C54.9842 27.0173 55.541 27.1678 55.9452 27.4404C55.9537 27.446 55.965 27.4546 55.9735 27.4602C56.0385 27.5057 56.0978 27.5539 56.1516 27.6051C56.1657 27.6193 56.1798 27.6306 56.194 27.6448C56.242 27.6931 56.2872 27.747 56.3296 27.801C56.3409 27.818 56.3551 27.8322 56.3664 27.8493C56.4144 27.9202 56.4597 27.9912 56.4964 28.0707C56.5247 28.1304 56.5473 28.19 56.5642 28.2496C56.5727 28.2809 56.5784 28.3121 56.5868 28.3433C56.5925 28.3746 56.6038 28.403 56.6066 28.4314C56.6151 28.491 56.6236 28.5506 56.6264 28.6102C56.6264 28.6443 56.6264 28.6784 56.6264 28.7096C56.6264 28.7352 56.6264 28.7607 56.6264 28.7891C56.6264 28.8289 56.6179 28.8658 56.6151 28.9027C56.6151 28.9226 56.6095 28.9425 56.6066 28.9623C56.601 29.0049 56.5925 29.0447 56.584 29.0844C56.5812 29.0986 56.5784 29.1128 56.5727 29.1299C56.5501 29.2207 56.5218 29.3088 56.4936 29.3854C56.454 29.4933 56.4059 29.5984 56.3522 29.7063C56.3522 29.7091 56.3494 29.712 56.3466 29.7148C56.2392 29.9164 56.1063 30.1152 55.948 30.3026C55.9339 30.3196 55.9198 30.3338 55.9085 30.3509C55.7558 30.5297 55.5806 30.6973 55.3884 30.8563C55.3658 30.8733 55.346 30.8904 55.3234 30.9074C55.2273 30.9841 55.1283 31.0579 55.0237 31.1289C54.7891 31.2879 54.5376 31.4299 54.2719 31.5491C53.6981 31.8104 53.1101 31.9495 52.5561 31.9836H52.5476Z" fill="#BDA37E"/>
</svg>
