<svg width="73" height="73" viewBox="0 0 73 73" fill="none" xmlns="http://www.w3.org/2000/svg">
<circle cx="36.1797" cy="36.4844" r="35.5" fill="#FCFAF7" stroke="#BDA37E"/>
<path fill-rule="evenodd" clip-rule="evenodd" d="M33.1475 19.0079L34.6378 18.1599L35.6185 19.8585C36.9434 19.4247 38.4396 19.9593 39.1671 21.2103L43.6898 28.9871C44.5227 30.4194 44.0326 32.2484 42.5952 33.0723L41.7467 33.5587L42.4238 34.8673L39.7499 36.2296L39.1408 35.0523L38.4736 35.4347C37.0361 36.2586 35.1956 35.7655 34.3627 34.3332L31.4409 29.3091C28.878 30.7832 27.1106 32.4292 26.1626 34.3115C25.3647 35.8957 25.1024 37.7374 25.5438 39.9486C26.9759 39.1569 28.6228 38.7063 30.375 38.7063C33.6447 38.7063 36.5479 40.2755 38.3725 42.702L50.4586 35.8909L51.4514 37.6271L39.4092 44.4133C40.0284 45.7141 40.375 47.1697 40.375 48.7063C40.375 49.3912 40.3061 50.0601 40.175 50.7063H53.375C53.9273 50.7063 54.375 51.154 54.375 51.7063C54.375 52.2586 53.9273 52.7063 53.375 52.7063H21.2071C20.6719 51.4814 20.375 50.1285 20.375 48.7063C20.375 45.7109 21.692 43.0231 23.7786 41.1903C23.0172 38.2629 23.2335 35.6811 24.3763 33.4119C25.5616 31.0584 27.6822 29.1652 30.4355 27.5802L29.84 26.5563C29.2 25.4559 29.3411 24.1212 30.0928 23.1882L29.0315 21.3499L30.5398 20.4917L29.2986 18.2643L31.9286 16.8203L33.1475 19.0079ZM41.9546 29.9817L37.4319 22.2048C37.1543 21.7274 36.5408 21.563 36.0616 21.8377L31.9401 24.2001C31.4609 24.4747 31.2976 25.0844 31.5752 25.5618L36.0979 33.3386C36.3755 33.8161 36.989 33.9805 37.4682 33.7058L41.5897 31.3434C42.0689 31.0688 42.2322 30.4591 41.9546 29.9817ZM38.1235 50.7063C38.2875 50.0683 38.375 49.3985 38.375 48.7063C38.375 47.5266 38.1197 46.4066 37.6612 45.3984L32.8572 48.1057L31.8645 46.3695L36.611 43.6946C35.1447 41.8724 32.896 40.7063 30.375 40.7063C25.9567 40.7063 22.375 44.288 22.375 48.7063C22.375 49.3985 22.4625 50.0683 22.6265 50.7063H38.1235Z" fill="#BDA37E"/>
</svg>
