<svg width="73" height="73" viewBox="0 0 73 73" fill="none" xmlns="http://www.w3.org/2000/svg">
<circle cx="36.1797" cy="36.5469" r="35.5" fill="#FCFAF7" stroke="#BDA37E"/>
<path d="M54.6506 20.0488H54.4793C52.4461 20.0488 50.41 20.5312 48.593 21.4453L47.3096 22.0885C46.9108 22.2888 46.5008 22.4553 46.0823 22.5992C45.2567 22.5568 44.4451 21.9729 43.4256 21.2365C41.7406 20.0178 39.64 18.5 36.1717 18.5C32.7033 18.5 30.6027 20.0178 28.9177 21.2365C27.8982 21.9729 27.0866 22.554 26.261 22.5992C25.8425 22.4553 25.4325 22.286 25.0337 22.0885L23.7503 21.4453C21.9333 20.5312 19.8972 20.0488 17.864 20.0488H17.6927C14.2553 20.0488 11.4609 22.8587 11.4609 26.309C11.4609 28.659 13.1825 30.6056 15.4263 30.9611C15.8167 32.3294 17.2012 33.345 18.8497 33.345C20.4982 33.345 21.8659 32.3406 22.2675 30.9837C24.2558 30.7664 25.8116 29.6803 26.862 28.659V31.9795C26.862 33.754 27.3647 35.458 28.2718 36.9194L26.8395 38.3582C26.3059 38.0309 25.6796 37.8391 25.0084 37.8391C23.0566 37.8391 21.4699 39.433 21.4699 41.3938C21.4699 43.3545 23.0566 44.9484 25.0084 44.9484C26.9602 44.9484 28.547 43.3545 28.547 41.3938C28.547 40.7195 28.356 40.0932 28.0302 39.5544L29.2996 38.2792C29.7883 38.8152 30.3387 39.3004 30.9509 39.718C31.097 39.8167 31.2598 39.8647 31.4227 39.8647C31.6923 39.8647 31.9591 39.7349 32.122 39.4923C32.3832 39.1058 32.2821 38.5782 31.8973 38.3159C29.7995 36.8855 28.547 34.5186 28.547 31.9795V24.9689C29.7489 25.3583 30.6252 26.5544 30.6252 27.9707V29.638C30.6252 32.0021 31.4705 34.2788 33.0656 36.2282L35.3291 38.9901V44.8723V46.0317C35.3291 46.6327 34.8433 47.1207 34.2479 47.1207C33.6526 47.1207 33.1667 46.6327 33.1667 46.0317V45.2926C33.1667 45.2926 33.1667 45.2785 33.1667 45.2729C33.2734 44.844 33.411 44.4209 33.5795 44.009C33.8183 43.4306 33.939 42.8636 33.939 42.3219C33.939 42.0511 33.9165 41.7746 33.8744 41.5066C33.8014 41.0439 33.3689 40.728 32.9083 40.8041C32.4478 40.8775 32.136 41.3119 32.2091 41.7746C32.2371 41.9552 32.2512 42.1385 32.2512 42.3219C32.2512 42.6435 32.1754 42.9849 32.0209 43.3629C31.1952 45.3744 30.9987 47.5608 31.448 49.6682L32.6556 56.1428C32.8662 57.2741 33.852 58.0951 34.9978 58.0951H37.3512C38.497 58.0951 39.4827 57.2741 39.6933 56.1428L40.8981 49.6908C41.3531 47.5636 41.1565 45.3744 40.3308 43.3629C40.1764 42.9849 40.1005 42.6435 40.1005 42.3219C40.1005 42.0793 40.1258 41.8367 40.1764 41.6025C40.3421 40.8323 40.9711 40.1581 41.8614 39.7998C44.5321 38.7249 46.2593 36.1605 46.2593 33.2688C46.2593 32.5014 46.1357 31.7454 45.8914 31.0203C45.6555 30.3179 45.5263 29.5251 45.501 28.6675C46.5513 29.6831 48.1044 30.7636 50.0842 30.9808C50.483 32.3378 51.8619 33.3421 53.502 33.3421C55.1421 33.3421 56.535 32.3294 56.9282 30.9639C59.1693 30.6113 60.8908 28.6562 60.8908 26.3062C60.8908 22.8531 58.0937 20.046 54.6591 20.046L54.6506 20.0488ZM25.0056 43.2557C23.9834 43.2557 23.1521 42.4207 23.1521 41.3938C23.1521 40.3668 23.9834 39.5318 25.0056 39.5318C26.0279 39.5318 26.8591 40.3668 26.8591 41.3938C26.8591 42.4207 26.0279 43.2557 25.0056 43.2557ZM36.1717 20.1955C39.098 20.1955 40.8756 21.4792 42.4427 22.6133C42.7151 22.8107 42.9847 23.0054 43.2543 23.1888C41.4738 23.5753 39.5838 23.8094 37.6151 23.8856C37.2669 22.9998 36.4047 22.3706 35.4022 22.3706C34.3996 22.3706 33.5964 22.9574 33.2257 23.7953C31.7934 23.6768 30.4089 23.4737 29.089 23.186C29.3586 23.0026 29.6282 22.8079 29.9034 22.6104C31.4705 21.4763 33.2482 20.1927 36.1745 20.1927L36.1717 20.1955ZM34.7057 24.7602C34.7057 24.7602 34.7057 24.7517 34.7057 24.7461C34.7057 24.7461 34.7057 24.7432 34.7057 24.7404C34.7197 24.3652 35.0258 24.0633 35.3994 24.0633C35.7729 24.0633 36.0958 24.3765 36.0958 24.763C36.0958 25.1495 35.7841 25.4626 35.3994 25.4626C35.0146 25.4626 34.7029 25.1495 34.7029 24.763C34.7029 24.763 34.7029 24.763 34.7029 24.7602H34.7057ZM18.8469 31.6523C17.8247 31.6523 16.9934 30.9921 16.9934 30.1768C16.9934 29.3615 17.8247 28.7013 18.8469 28.7013C19.8692 28.7013 20.7004 29.3615 20.7004 30.1768C20.7004 30.9921 19.8692 31.6523 18.8469 31.6523ZM22.2366 29.2797C21.8041 27.9707 20.4477 27.0115 18.8469 27.0115C17.2461 27.0115 15.9094 27.9565 15.4657 29.2486C14.1373 28.9355 13.146 27.7393 13.146 26.309C13.146 23.7897 15.1848 21.7415 17.6927 21.7415H17.864C19.6361 21.7415 21.4109 22.1619 22.9977 22.9574L24.2811 23.6007C25.1039 24.0126 25.9689 24.3201 26.862 24.5288V26.0551C26.4154 26.7096 24.7416 28.9157 22.2394 29.2768L22.2366 29.2797ZM32.3074 29.638V27.9707C32.3074 26.9917 32.0265 26.0833 31.5463 25.3216C32.0658 25.3865 32.5938 25.4429 33.1274 25.4852C33.4335 26.4529 34.335 27.1553 35.3994 27.1553C36.4637 27.1553 37.3034 26.4952 37.6376 25.5783C38.7132 25.536 39.7663 25.4514 40.7942 25.3216C40.314 26.0833 40.0331 26.9917 40.0331 27.9707V29.4094C39.7804 29.3587 39.5192 29.3305 39.2496 29.3305C37.0872 29.3305 35.3263 31.0993 35.3263 33.2716C35.3263 34.5694 35.9554 35.7176 36.9215 36.437L36.1688 37.3567L34.3631 35.1533C33.0179 33.5114 32.3046 31.6043 32.3046 29.6408L32.3074 29.638ZM37.0142 33.2716C37.0142 32.0331 38.0167 31.0232 39.2524 31.0232C40.4881 31.0232 41.4907 32.0303 41.4907 33.2716C41.4907 34.5129 40.4881 35.5201 39.2524 35.5201C38.0167 35.5201 37.0142 34.5129 37.0142 33.2716ZM34.2479 48.8162C34.995 48.8162 35.6746 48.5144 36.1717 48.0291C36.6715 48.5144 37.3484 48.8162 38.0954 48.8162C38.5588 48.8162 38.994 48.7006 39.3788 48.4974C39.3451 48.7852 39.303 49.073 39.2412 49.3607L39.0811 50.2184H33.2594L33.0965 49.341C33.0375 49.0617 32.9954 48.7796 32.9617 48.4974C33.3464 48.7006 33.7817 48.8162 34.2451 48.8162H34.2479ZM33.5795 51.9111H38.7694L38.5082 53.3132H33.8435L33.5823 51.9111H33.5795ZM37.3512 56.408H34.9978C34.6636 56.408 34.3743 56.1682 34.3125 55.8353L34.1581 55.0059H38.1909L38.0364 55.8353C37.9746 56.1654 37.6854 56.408 37.3512 56.408ZM41.2323 38.234C39.8197 38.8011 38.8087 39.9296 38.5251 41.2527C38.4492 41.6053 38.4127 41.9664 38.4127 42.3276C38.4127 42.8664 38.5335 43.4363 38.7722 44.0146C38.9407 44.4265 39.0783 44.8469 39.1822 45.2729V46.0374C39.1822 46.6383 38.6964 47.1264 38.101 47.1264C37.5056 47.1264 37.0198 46.6383 37.0198 46.0374V38.9929L38.5335 37.1451C38.7694 37.1902 39.0081 37.2156 39.2552 37.2156C41.4177 37.2156 43.1785 35.4467 43.1785 33.2744C43.1785 32.0331 42.6028 30.9244 41.7069 30.2022C41.7182 30.016 41.7238 29.827 41.7238 29.6408V27.9735C41.7238 26.5601 42.6028 25.3611 43.802 24.9718V28.3346C43.802 29.511 43.9676 30.5972 44.2934 31.5676C44.4788 32.1149 44.5714 32.6905 44.5714 33.2716C44.5714 35.4665 43.2599 37.4131 41.2323 38.2312V38.234ZM56.1952 29.3361C55.729 29.3361 55.3527 29.7141 55.3527 30.1824C55.3527 30.9949 54.5214 31.6579 53.4992 31.6579C52.477 31.6579 51.6457 30.9978 51.6457 30.1824C51.6457 29.3671 52.477 28.707 53.4992 28.707C53.9654 28.707 54.3417 28.3289 54.3417 27.8606C54.3417 27.3923 53.9654 27.0143 53.4992 27.0143C51.8984 27.0143 50.542 27.9735 50.1095 29.2825C47.6213 28.9186 45.9335 26.7124 45.487 26.0607V24.5345C46.38 24.3285 47.245 24.0182 48.0678 23.6063L49.3513 22.9631C50.9352 22.1675 52.7101 21.7472 54.4849 21.7472H54.6562C57.1641 21.7472 59.203 23.7953 59.203 26.3146C59.203 27.9819 57.855 29.3361 56.1952 29.3361Z" fill="#BDA37E"/>
</svg>
