<svg width="73" height="73" viewBox="0 0 73 73" fill="none" xmlns="http://www.w3.org/2000/svg">
<circle cx="36.1797" cy="36.5469" r="35.5" fill="#FCFAF7" stroke="#BDA37E"/>
<path d="M33.9958 33.2311C33.6995 32.9398 33.2205 32.9447 32.9316 33.241C32.1736 34.0138 31.1637 34.4385 30.0822 34.4385C27.8822 34.4385 26.0921 32.6484 26.0921 30.4484C26.0921 30.0336 25.7538 29.6953 25.339 29.6953C24.9242 29.6953 24.5859 30.0336 24.5859 30.4484C24.5859 33.1546 26.5761 35.4657 29.2378 35.878C28.9316 37.0138 27.8798 37.8262 26.6946 37.8262C26.2798 37.8262 25.9415 38.1644 25.9415 38.5793C25.9415 38.9941 26.2798 39.3323 26.6946 39.3323C28.6946 39.3323 30.4329 37.8632 30.7736 35.9002C32.0106 35.7472 33.1267 35.1916 34.0082 34.2953C34.1489 34.1521 34.2254 33.962 34.223 33.7595C34.2205 33.557 34.1415 33.3694 33.9958 33.2286V33.2311Z" fill="#BDA37E"/>
<path d="M31.4378 40.5391C28.4205 40.5391 25.9637 42.981 25.9415 45.9934C25.7366 45.9712 25.5366 45.9588 25.339 45.9588C24.9242 45.9588 24.5859 46.2971 24.5859 46.7119C24.5859 47.1267 24.9242 47.465 25.339 47.465C27.539 47.465 29.3291 49.2551 29.3291 51.4551C29.3291 51.8699 29.6674 52.2082 30.0822 52.2082C30.497 52.2082 30.8353 51.8699 30.8353 51.4551C30.8353 49.2304 29.5143 47.2502 27.4625 46.3884C27.4526 46.2699 27.4477 46.1514 27.4477 46.0354C27.4477 43.8354 29.2378 42.0452 31.4378 42.0452C31.8526 42.0452 32.1909 41.707 32.1909 41.2921C32.1909 40.8773 31.8526 40.5391 31.4378 40.5391Z" fill="#BDA37E"/>
<path d="M53.8749 35.8672C53.8749 34.4104 53.3144 33.045 52.2922 32.0104C52.4428 31.5018 52.5193 30.9783 52.5193 30.4475C52.5193 27.8672 50.7144 25.6351 48.2082 25.082C48.3712 24.6327 48.4552 24.1586 48.4552 23.6722C48.4552 22.0203 47.4749 20.5314 45.9589 19.8722C43.5564 17.9611 40.9169 16.8203 38.8947 16.8203C37.8428 16.8203 36.8403 17.3067 36.1835 18.1314C35.5268 17.3067 34.5268 16.8203 33.4724 16.8203C31.4502 16.8203 28.8107 17.9611 26.4082 19.8722C24.8922 20.5314 23.9119 22.0203 23.9119 23.6722C23.9119 24.1586 23.9934 24.6302 24.1589 25.082C21.6527 25.6351 19.8477 27.8697 19.8477 30.4475C19.8477 30.9783 19.9243 31.5043 20.0749 32.0104C19.0527 33.045 18.4922 34.4104 18.4922 35.8672C18.4922 36.9561 18.8107 38.008 19.4181 38.9141C18.8132 39.8178 18.4922 40.8697 18.4922 41.966C18.4922 43.9265 19.5416 45.7413 21.2379 46.7215C21.2132 46.9413 21.2033 47.166 21.2033 47.3857C21.2033 50.0672 22.9119 52.4178 25.4601 53.2475C26.5687 55.1117 28.5959 56.2672 30.7663 56.2672C33.0428 56.2672 35.0996 55.0376 36.186 53.045C37.2724 55.0401 39.3292 56.2672 41.6058 56.2672C43.8823 56.2672 45.8033 55.1117 46.9119 53.2475C49.4601 52.4154 51.1687 50.0648 51.1687 47.3857C51.1687 47.1635 51.1564 46.9413 51.1342 46.7215C52.8305 45.7413 53.8798 43.9265 53.8798 41.966C53.8798 40.8722 53.5613 39.8178 52.9539 38.9141C53.5589 38.008 53.8798 36.9586 53.8798 35.8672H53.8749ZM48.3786 39.8573C47.9638 39.8573 47.6255 40.1956 47.6255 40.6104C47.6255 41.0253 47.9638 41.3635 48.3786 41.3635C49.665 41.3635 50.9095 40.9092 51.8971 40.0845C52.2058 40.6573 52.3663 41.3067 52.3663 41.966C52.3663 43.5388 51.4354 44.9709 49.9934 45.6104C49.6675 45.7561 49.4897 46.0993 49.5613 46.4499C49.6231 46.7561 49.6552 47.0722 49.6552 47.3882C49.6552 49.4919 48.2354 51.3413 46.2033 51.8895C46.0008 51.9438 45.8305 52.082 45.7317 52.2672C44.9218 53.808 43.3366 54.766 41.6008 54.766C39.028 54.766 36.9342 52.6722 36.9342 50.0993C36.9342 49.929 36.9268 49.7536 36.9119 49.5783C36.9268 49.5191 36.9342 49.4574 36.9342 49.3981V28.4203C36.9342 27.3413 37.8132 26.4623 38.8922 26.4623C39.307 26.4623 39.6453 26.124 39.6453 25.7092C39.6453 25.2944 39.307 24.9561 38.8922 24.9561C38.1835 24.9561 37.5119 25.166 36.9342 25.5635V20.2894C36.9342 19.2104 37.8132 18.3314 38.8922 18.3314C40.0675 18.3314 41.549 18.8253 43.0872 19.724C42.0033 20.0648 41.0798 20.8499 40.586 21.8697C40.4971 22.0499 40.4848 22.2549 40.5515 22.445C40.6181 22.6351 40.7539 22.7882 40.9342 22.8746C41.1144 22.9635 41.3193 22.9734 41.5095 22.9092C41.6996 22.8425 41.8527 22.7067 41.9416 22.5265C42.386 21.6104 43.2947 21.0401 44.3119 21.0401C44.6329 21.0401 44.9465 21.0969 45.2329 21.2055C45.2749 21.2277 45.3193 21.245 45.3514 21.2549C46.3218 21.6722 46.9465 22.6228 46.9465 23.6746C46.9465 24.1314 46.828 24.5783 46.6058 24.9709C43.7514 25.1857 41.5268 27.5808 41.5268 30.4499C41.5268 30.8648 41.865 31.203 42.2798 31.203C42.6947 31.203 43.0329 30.8648 43.0329 30.4499C43.0329 28.2499 44.8231 26.4598 47.0231 26.4598C49.2231 26.4598 51.0132 28.2499 51.0132 30.4499C51.0132 30.9635 50.9144 31.4672 50.7193 31.9462C50.5959 32.2499 50.6823 32.5956 50.9342 32.808C51.8453 33.5685 52.3687 34.6845 52.3687 35.8697C52.3687 38.0697 50.5786 39.8598 48.3786 39.8598V39.8573ZM32.7193 28.4154C32.7193 28.8302 33.0576 29.1685 33.4724 29.1685C34.5514 29.1685 35.4305 30.0475 35.4305 31.1265V46.0623C34.6206 45.124 33.5687 44.4623 32.3663 44.1388C31.9663 44.0302 31.5514 44.2697 31.4428 44.6697C31.391 44.8648 31.4181 45.0672 31.5169 45.2401C31.6181 45.4154 31.7786 45.5388 31.9737 45.5907C34.0082 46.1364 35.428 47.9882 35.428 50.0919C35.428 52.6648 33.3342 54.7586 30.7613 54.7586C29.0255 54.7586 27.4428 53.8006 26.6305 52.2598C26.5342 52.0746 26.3613 51.9364 26.1589 51.882C24.1268 51.3339 22.707 49.4845 22.707 47.3808C22.707 47.0648 22.7391 46.7512 22.8008 46.4425C22.87 46.0993 22.6897 45.7462 22.3687 45.603C20.9268 44.9635 19.9959 43.5314 19.9959 41.9586C19.9959 41.2993 20.1589 40.6524 20.465 40.0771C21.4527 40.9043 22.6971 41.3561 23.9835 41.3561C24.3984 41.3561 24.7366 41.0178 24.7366 40.603C24.7366 40.1882 24.3984 39.8499 23.9835 39.8499C21.7835 39.8499 19.9934 38.0598 19.9934 35.8598C19.9934 34.6746 20.5169 33.5586 21.428 32.7981C21.6798 32.5882 21.7663 32.2401 21.6428 31.9364C21.4477 31.4573 21.349 30.9536 21.349 30.4401C21.349 28.2401 23.1391 26.4499 25.3391 26.4499C27.5391 26.4499 29.3292 28.2401 29.3292 30.4401C29.3292 30.8549 29.6675 31.1932 30.0823 31.1932C30.4971 31.1932 30.8354 30.8549 30.8354 30.4401C30.8354 27.5709 28.6082 25.1759 25.7564 24.9611C25.5342 24.5685 25.4156 24.1215 25.4156 23.6648C25.4156 22.6129 26.0428 21.6623 26.9984 21.2499C27.0428 21.2376 27.0873 21.2178 27.1169 21.203C27.4156 21.0894 27.7292 21.0327 28.0502 21.0327C29.0675 21.0327 29.9761 21.603 30.4206 22.5191C30.5095 22.6993 30.6626 22.8351 30.8527 22.9018C31.0428 22.9685 31.2477 22.9561 31.428 22.8672C31.6082 22.7783 31.744 22.6253 31.8107 22.4351C31.8774 22.245 31.865 22.0401 31.7761 21.8598C31.2823 20.8425 30.3589 20.0549 29.2749 19.7141C30.8132 18.8154 32.2922 18.3215 33.47 18.3215C34.549 18.3215 35.428 19.2006 35.428 20.2796V28.2648C34.8502 27.8672 34.1786 27.6574 33.47 27.6574C33.0552 27.6574 32.7169 27.9956 32.7169 28.4104L32.7193 28.4154Z" fill="#BDA37E"/>
<path d="M47.0212 37.1465C45.836 37.1465 44.7867 36.3341 44.478 35.1983C47.1398 34.786 49.1299 32.4749 49.1299 29.7687C49.1299 29.3539 48.7916 29.0156 48.3768 29.0156C47.962 29.0156 47.6237 29.3539 47.6237 29.7687C47.6237 31.9687 45.8336 33.7588 43.6336 33.7588C42.5521 33.7588 41.5398 33.3341 40.7842 32.5613C40.6435 32.4181 40.4558 32.3366 40.2533 32.3341C40.0509 32.3366 39.8632 32.4082 39.7175 32.549C39.4212 32.8403 39.4163 33.3169 39.7077 33.6132C40.5867 34.5119 41.7052 35.065 42.9422 35.2181C43.283 37.1811 45.0212 38.6502 47.0212 38.6502C47.436 38.6502 47.7743 38.3119 47.7743 37.8971C47.7743 37.4823 47.436 37.144 47.0212 37.144V37.1465Z" fill="#BDA37E"/>
<path d="M44.9847 44.5994C44.7896 44.5994 44.5871 44.6118 44.3822 44.634C44.36 41.6217 41.9032 39.1797 38.8859 39.1797C38.4711 39.1797 38.1328 39.518 38.1328 39.9328C38.1328 40.3476 38.4711 40.6859 38.8859 40.6859C41.0859 40.6859 42.876 42.476 42.876 44.676C42.876 44.7945 42.8711 44.9106 42.8612 45.0291C40.8094 45.8908 39.4884 47.871 39.4884 50.0957C39.4884 50.5106 39.8266 50.8488 40.2415 50.8488C40.6563 50.8488 40.9945 50.5106 40.9945 50.0957C40.9945 47.8957 42.7847 46.1056 44.9847 46.1056C45.3995 46.1056 45.7378 45.7673 45.7378 45.3525C45.7378 44.9377 45.3995 44.5994 44.9847 44.5994Z" fill="#BDA37E"/>
</svg>
