<svg width="73" height="73" viewBox="0 0 73 73" fill="none" xmlns="http://www.w3.org/2000/svg">
<circle cx="36.1797" cy="36.5469" r="35.5" fill="#FCFAF7" stroke="#BDA37E"/>
<g clip-path="url(#clip0_512_23463)">
<path d="M29.387 21.2987L29.9119 20.8626C30.5254 20.3542 30.6047 19.4517 30.092 18.8471L28.8102 17.343C28.2945 16.7384 27.3789 16.6601 26.7655 17.1655L21.3241 21.6657L19.3892 19.3946C19.5663 19.0516 19.67 18.6636 19.67 18.2545C19.67 17.8213 19.5601 17.4152 19.3648 17.0602L21.8338 14.0129C22.1481 13.6249 22.084 13.0563 21.6903 12.7435C21.2966 12.4337 20.7198 12.4968 20.4025 12.8849L17.9701 15.884C17.7046 15.7908 17.4178 15.7366 17.1187 15.7366C15.7118 15.7366 14.5674 16.8647 14.5674 18.2515C14.5674 19.6382 15.7118 20.7663 17.1187 20.7663C17.4391 20.7663 17.7443 20.7061 18.0251 20.5978L19.9203 22.8239L14.4789 27.3241C13.8654 27.8325 13.7861 28.735 14.2988 29.3396L15.5806 30.8437C15.8674 31.1806 16.2794 31.3551 16.6945 31.3551C17.0241 31.3551 17.3537 31.2468 17.6253 31.0212L18.1502 30.585L19.551 31.5717C19.8775 31.8003 20.256 31.9146 20.6344 31.9146C21.0616 31.9146 21.4889 31.7702 21.8338 31.4844L23.8205 29.842C24.4705 29.3035 24.672 28.398 24.3057 27.643L23.5641 26.1118L23.97 25.7779L25.3708 26.7646C25.6974 26.9932 26.0758 27.1075 26.4542 27.1075C26.8815 27.1075 27.3087 26.9631 27.6536 26.6774L29.6403 25.0349C30.2904 24.4964 30.4918 23.591 30.1256 22.8359L29.384 21.3048L29.387 21.2987ZM16.4015 18.2545C16.4015 17.8634 16.725 17.5445 17.1217 17.5445C17.5185 17.5445 17.842 17.8634 17.842 18.2545C17.842 18.6455 17.5185 18.9644 17.1217 18.9644C16.725 18.9644 16.4015 18.6455 16.4015 18.2545ZM15.9498 28.4702L27.6505 18.7929L28.444 19.7255L16.7433 29.4028L15.9498 28.4702ZM22.6578 28.4221C22.6578 28.4221 22.6578 28.4522 22.6486 28.4612L20.6619 30.1037C20.6619 30.1037 20.6344 30.1157 20.6191 30.1037L19.6029 29.3877L22.1176 27.3061L22.6547 28.4161L22.6578 28.4221ZM28.4654 23.6511L26.4786 25.2936C26.4786 25.2936 26.4481 25.3026 26.4359 25.2936L25.4197 24.5807L27.9344 22.499L28.4715 23.609C28.4715 23.609 28.4715 23.6391 28.4623 23.6481L28.4654 23.6511Z" fill="#BDA37E"/>
<path d="M58.1581 29.1711C58.3321 28.9064 58.4175 28.5936 58.387 28.2747C58.3535 27.8927 58.1703 27.5497 57.8713 27.3061L56.5346 26.2051C56.4979 26.175 56.4613 26.1539 56.4216 26.1299L54.0473 24.1655C54.0321 24.1505 54.0168 24.1325 54.0015 24.1174L52.4268 22.8209L54.322 20.5978C54.6058 20.7031 54.9079 20.7663 55.2284 20.7663C56.6353 20.7663 57.7797 19.6382 57.7797 18.2515C57.7797 16.8647 56.6353 15.7366 55.2284 15.7366C54.9293 15.7366 54.6424 15.7908 54.3769 15.884L51.9446 12.8849C51.6303 12.4968 51.0535 12.4337 50.6567 12.7435C50.2631 13.0533 50.199 13.6219 50.5133 14.0129L52.9822 17.0602C52.7869 17.4152 52.6771 17.8213 52.6771 18.2545C52.6771 18.6877 52.7808 19.0516 52.9578 19.3946L51.023 21.6657L49.4452 20.3602C49.4269 20.3452 49.4085 20.3361 49.3902 20.3241L47.0098 18.3628C46.9793 18.3297 46.9518 18.2966 46.9183 18.2695L45.5816 17.1655C45.0383 16.7173 44.2601 16.7293 43.7321 17.1535C43.6558 17.2136 43.5857 17.2798 43.5216 17.355L42.9356 18.0469L42.2551 18.8471C42.191 18.9223 42.136 19.0065 42.0872 19.0907C41.7576 19.6773 41.8827 20.4324 42.426 20.8806L42.9509 21.3138L42.2184 22.8299C41.8522 23.585 42.0506 24.4904 42.7037 25.0289L44.6904 26.6713C45.0353 26.9571 45.4625 27.1015 45.8898 27.1015C46.2682 27.1015 46.6466 26.9872 46.9732 26.7586L48.374 25.7749L48.5815 25.9464L48.7799 26.1088L48.0383 27.64C47.6721 28.395 47.8704 29.3005 48.5235 29.839L50.5103 31.4814C50.8551 31.7672 51.2824 31.9116 51.7096 31.9116C52.088 31.9116 52.4665 31.7973 52.793 31.5687L54.1938 30.582L54.7218 31.0182C54.9934 31.2438 55.323 31.3521 55.6526 31.3521C55.793 31.3521 55.9334 31.325 56.0707 31.2829C56.0798 31.2829 56.0859 31.2769 56.0951 31.2739C56.1714 31.2498 56.2477 31.2227 56.3179 31.1836C56.3484 31.1686 56.3759 31.1475 56.4064 31.1325C56.4552 31.1024 56.5071 31.0753 56.5529 31.0362C56.6353 30.973 56.7116 30.9039 56.7787 30.8226L57.3647 30.1308L58.0452 29.3306C58.091 29.2794 58.1246 29.2223 58.1581 29.1651V29.1711ZM55.9791 28.9546L55.616 29.3817L49.7046 24.5145L43.9061 19.7164L44.312 19.2351L44.6874 18.7959L50.6018 23.6662L56.3972 28.4612L55.9791 28.9546ZM55.9486 18.2485C55.9486 18.6395 55.6251 18.9584 55.2284 18.9584C54.8316 18.9584 54.5082 18.6395 54.5082 18.2485C54.5082 17.8574 54.8316 17.5385 55.2284 17.5385C55.6251 17.5385 55.9486 17.8574 55.9486 18.2485ZM45.9111 25.2876C45.9111 25.2876 45.8806 25.2966 45.8684 25.2876L43.8817 23.6451C43.8817 23.6451 43.8664 23.6181 43.8725 23.606L44.4036 22.508L46.9213 24.5807L45.9081 25.2936L45.9111 25.2876ZM51.7279 30.1007C51.7279 30.1007 51.6974 30.1097 51.6852 30.1007L49.6985 28.4582C49.6985 28.4582 49.6832 28.4311 49.6893 28.4191L50.2264 27.3091L52.7411 29.3907L51.7249 30.1067L51.7279 30.1007Z" fill="#BDA37E"/>
<path d="M55.5528 42.1415H54.7776V39.3619C54.7776 38.3993 53.9842 37.6172 53.0076 37.6172H19.349C18.3724 37.6172 17.5789 38.3993 17.5789 39.3619V42.1415H16.8037C16.0621 42.1415 15.4609 42.7341 15.4609 43.4651V46.1875C15.4609 46.9185 16.0652 47.5111 16.8037 47.5111H33.4698V50.9223C31.6661 51.5811 30.3783 53.2868 30.3783 55.2902V58.7436H21.3693C20.8627 58.7436 20.4537 59.1467 20.4537 59.6461C20.4537 60.1454 20.8627 60.5485 21.3693 60.5485H50.9903C51.4969 60.5485 51.9059 60.1454 51.9059 59.6461C51.9059 59.1467 51.4969 58.7436 50.9903 58.7436H41.9813V55.2902C41.9813 54.6916 41.8623 54.12 41.6517 53.5936H43.9131V53.8523C43.9131 55.7264 45.4574 57.2485 47.3586 57.2485C49.2599 57.2485 50.8042 55.7234 50.8042 53.8523V47.5111H55.5559C56.2974 47.5111 56.8987 46.9185 56.8987 46.1875V43.4651C56.8987 42.7341 56.2944 42.1415 55.5559 42.1415H55.5528ZM19.41 39.4221H52.9465V42.1415H19.407V39.4221H19.41ZM37.0557 47.5141V50.6336H35.3009V47.5141H37.0557ZM32.2063 58.7466V55.2932C32.2063 53.7199 33.5064 52.4385 35.1025 52.4385H37.251C38.8471 52.4385 40.1472 53.7199 40.1472 55.2932V58.7466H32.2063ZM48.97 53.8553C48.97 54.7337 48.2467 55.4466 47.3556 55.4466C46.4645 55.4466 45.7412 54.7337 45.7412 53.8553V53.5966C45.7412 52.5979 44.9172 51.7887 43.907 51.7887H40.3608C39.9305 51.4187 39.433 51.1239 38.8868 50.9254V47.5141H48.97V53.8553ZM55.0645 45.7092H49.8886H37.9804H34.4006H17.3103V43.9464H55.0859V45.7092H55.0645Z" fill="#BDA37E"/>
</g>
<defs>
<clipPath id="clip0_512_23463">
<rect width="50.6667" height="48" fill="white" transform="translate(10.8438 12.5469)"/>
</clipPath>
</defs>
</svg>
