<svg width="73" height="73" viewBox="0 0 73 73" fill="none" xmlns="http://www.w3.org/2000/svg">
<path d="M71.6797 36.5469C71.6797 56.153 55.7858 72.0469 36.1797 72.0469C16.5736 72.0469 0.679688 56.153 0.679688 36.5469C0.679688 16.9408 16.5736 1.04688 36.1797 1.04688C55.7858 1.04688 71.6797 16.9408 71.6797 36.5469Z" fill="#FCFAF7" stroke="#BDA37E"/>
<g clip-path="url(#clip0_486_11903)">
<path d="M57.0675 22.8712C53.7565 19.5601 48.7971 18.4468 44.4162 19.9385C44.0137 15.7503 40.4401 12.4609 36.1772 12.4609C36.1434 12.4609 36.1097 12.4609 36.076 12.4609C35.8615 12.4633 35.6422 12.4754 35.4277 12.4923C34.0614 12.6128 32.9264 13.4369 32.3649 14.596C32.3288 14.5791 32.295 14.5647 32.2589 14.5502C31.548 14.2659 30.7504 14.437 30.2202 14.9888C28.9189 16.3479 28.1261 18.1215 27.9502 19.9963C27.0875 19.7023 26.1959 19.5071 25.2874 19.4059V19.3722C22.5186 19.2589 21.4077 19.5505 21.1426 19.6372C18.9931 20.1288 17.0291 21.1915 15.4459 22.7242C13.0602 25.0303 11.73 28.1293 11.7035 31.4427C11.677 34.7586 12.9518 37.8768 15.2965 40.2215L22.2583 47.1833C22.3644 49.2485 23.5114 51.1426 25.3139 52.1836L27.8225 53.6319C28.9334 57.7743 32.6517 60.6395 36.9748 60.6395C42.2016 60.6395 46.4524 56.3863 46.4524 51.1619C46.4524 51.0582 46.4452 50.9546 46.4428 50.851L49.908 47.3858L57.0699 40.2239C61.8533 35.4405 61.8533 27.657 57.0699 22.8736L57.0675 22.8712ZM43.58 22.4446H44.1366C44.5005 22.4446 44.7969 22.741 44.7969 23.1049V23.3435C44.7969 24.2447 44.1945 25.0086 43.3727 25.2544L43.58 22.4422V22.4446ZM31.2636 15.9888C31.36 15.8876 31.4661 15.8587 31.5552 15.8587C31.6251 15.8587 31.6854 15.878 31.7191 15.89C31.7986 15.9214 31.9818 16.0226 31.9818 16.278C31.9818 16.678 32.3047 17.0009 32.7047 17.0009C33.1047 17.0009 33.4276 16.678 33.4276 16.278C33.4276 15.0683 34.3626 14.0393 35.5555 13.9333C35.7338 13.9188 35.9145 13.9092 36.0928 13.9068C39.7991 13.8562 42.9028 16.8347 43.0065 20.5337C43.0161 20.8542 42.7848 21.1361 42.4715 21.1891L41.5076 21.353C38.3436 21.8928 35.1337 20.5289 33.3288 17.8733C33.177 17.6492 32.9119 17.5287 32.642 17.5624C32.3721 17.5962 32.1456 17.7769 32.0516 18.0323C31.4444 19.6999 30.5624 21.0614 29.4274 22.0807L29.372 21.3144C29.225 19.3336 29.9142 17.3889 31.2612 15.984L31.2636 15.9888ZM44.9415 31.4282C44.3342 32.0355 43.6451 32.5464 42.8956 32.9609H40.7557V31.2451C41.3413 30.7656 41.8715 30.2017 42.2932 29.5703C42.833 30.486 43.8258 31.1029 44.9608 31.1029H45.2644L44.9391 31.4282H44.9415ZM31.6034 31.2451V32.9609H29.4635C28.7141 32.5464 28.0249 32.0331 27.4177 31.4282L27.0923 31.1029H27.396C28.5334 31.1029 29.5262 30.486 30.0636 29.5703C30.4853 30.2041 31.0179 30.7656 31.601 31.2451H31.6034ZM30.2901 23.2495C30.3046 23.2374 30.3238 23.2278 30.3383 23.2133C31.3986 22.2759 32.2661 21.0976 32.9288 19.6975C35.1241 22.1458 38.4592 23.3411 41.7558 22.7772L42.1124 22.7169L41.8136 26.7774C41.6064 29.5944 37.9387 31.7391 36.182 31.7391C34.4253 31.7391 30.7576 29.5944 30.5504 26.7774L30.2901 23.2495ZM31.6781 34.4067C32.4348 34.4067 33.0517 33.7898 33.0517 33.0332V32.2211C34.1843 32.8452 35.3386 33.185 36.182 33.185C37.0254 33.185 38.1797 32.8452 39.3123 32.2211V33.0332C39.3123 33.7898 39.9292 34.4067 40.6859 34.4067H41.2738L40.0593 35.6622C39.0328 36.7225 37.6568 37.3057 36.1796 37.3057C34.7024 37.3057 33.3264 36.7225 32.2999 35.6622L31.0853 34.4067H31.6733H31.6781ZM27.5646 23.1049C27.5646 22.8085 27.7622 22.5603 28.0321 22.4759C28.1334 22.9121 28.4346 23.2736 28.8563 23.4519L28.9888 25.2544C28.1671 25.0086 27.5646 24.2447 27.5646 23.3435V23.1049ZM22.2463 41.7373V45.1278L16.3182 39.1998C14.2507 37.1322 13.1253 34.3802 13.1494 31.4548C13.1735 28.5293 14.347 25.799 16.4508 23.7628C17.9159 22.3458 19.7498 21.3843 21.7547 20.9819C21.8053 20.9722 21.8511 20.9578 21.8969 20.9385C22.3113 20.8638 23.2174 20.7554 24.8609 20.8036C24.8826 20.8084 24.9043 20.8132 24.9259 20.8156C25.6995 20.8879 26.4586 21.0397 27.196 21.2687C26.555 21.6301 26.1212 22.3169 26.1212 23.1025V23.3411C26.1212 25.064 27.396 26.493 29.0515 26.7412V28.0016C29.0515 28.9124 28.3117 29.6522 27.4008 29.6522H25.7621C25.4007 29.6522 25.0754 29.8691 24.938 30.2041C24.7982 30.539 24.8753 30.9222 25.1308 31.1776L26.4007 32.4476C26.5863 32.6331 26.7815 32.8139 26.9791 32.985C25.7597 33.1054 24.6295 33.6452 23.7596 34.532C22.7861 35.5225 22.2487 36.8334 22.2487 38.2214V41.7324L22.2463 41.7373ZM26.0344 50.9305C24.5886 50.0967 23.6921 48.5424 23.6921 46.8725V42.4578H27.4924V46.8918C27.4924 47.193 27.6538 47.4749 27.9189 47.6291L33.9819 51.1281L37.3796 53.0849C37.3869 53.0897 37.3917 53.0945 37.3965 53.0969L38.2496 53.5885C38.4183 53.6873 38.4761 53.9042 38.3797 54.0729C37.9194 54.8705 37.1748 55.4416 36.2856 55.6802C35.3964 55.9188 34.4686 55.7959 33.671 55.3356L26.0393 50.9281L26.0344 50.9305ZM48.6694 46.5737L46.209 49.034C45.9536 47.9255 45.5006 46.8701 44.8668 45.9158V42.4578H48.667V46.5737H48.6694ZM48.6694 41.0119H44.8692V38.86C44.8692 38.46 44.5463 38.1371 44.1463 38.1371C43.7463 38.1371 43.4234 38.46 43.4234 38.86V44.2193C42.4016 43.2699 41.1774 42.5493 39.8473 42.1252C39.4665 42.0047 39.0593 42.2144 38.9388 42.5951C38.8183 42.9759 39.0279 43.3831 39.4087 43.5036C41.0666 44.0314 42.5366 45.1109 43.5438 46.5399C43.5438 46.5399 43.5463 46.5423 43.5487 46.5447C43.5487 46.5472 43.5511 46.552 43.5535 46.5544C44.3921 47.7496 44.8861 49.1521 44.9849 50.6076C44.9969 50.7884 45.0042 50.9739 45.0042 51.1595C45.0042 55.5886 41.4016 59.1912 36.9724 59.1912C33.8638 59.1912 31.1239 57.4417 29.7913 54.7669L32.9457 56.5887C33.6999 57.0248 34.5361 57.2465 35.3844 57.2465C35.8085 57.2465 36.235 57.1911 36.6567 57.0779C37.9194 56.7405 38.9749 55.9308 39.6304 54.7982C40.1268 53.9379 39.8304 52.8342 38.9725 52.3378L38.5243 52.08L35.1458 50.1329C35.1362 50.1281 35.1289 50.1208 35.1193 50.1136L28.9406 46.5472V38.8576C28.9406 38.4576 28.6177 38.1346 28.2177 38.1346C27.8177 38.1346 27.4948 38.4576 27.4948 38.8576V41.0095H23.6946V38.2214C23.6946 37.2141 24.0825 36.2647 24.791 35.5441C25.5139 34.8092 26.4803 34.4019 27.514 34.4019H29.0804L31.2685 36.6623C32.5697 38.0069 34.3168 38.7467 36.1868 38.7467C38.0568 38.7467 39.8039 38.0069 41.1052 36.6623L43.2932 34.4019H44.8596C45.1078 34.4019 45.356 34.426 45.597 34.4718C45.6042 34.4718 45.6114 34.4718 45.6187 34.4718C46.2813 34.6429 47.2428 35.026 47.8887 35.8767C47.9031 35.9032 47.9176 35.9297 47.9344 35.9538C48.0188 36.0671 48.0935 36.1875 48.1634 36.308C48.1778 36.3345 48.1923 36.3611 48.2067 36.39C48.5128 36.9466 48.6742 37.5683 48.6742 38.2166V41.0047L48.6694 41.0119ZM56.0433 39.1974L50.1153 45.1254V38.2214C50.1153 37.3033 49.8791 36.4189 49.4309 35.6333C48.3875 33.6645 46.3319 33.1079 45.4138 32.956C45.6018 32.7922 45.7849 32.6235 45.9633 32.4476L47.2332 31.1776C47.4886 30.9222 47.5658 30.539 47.426 30.2041C47.2862 29.8691 46.9633 29.6522 46.6018 29.6522H44.9632C44.0523 29.6522 43.3125 28.91 43.3125 28.0016V26.7412C44.968 26.493 46.2428 25.064 46.2428 23.3411V23.1025C46.2428 22.288 45.7777 21.5819 45.0981 21.2301C48.908 20.0228 53.1757 21.0204 56.0433 23.8881C60.2628 28.1076 60.2628 34.9754 56.0433 39.1949V39.1974Z" fill="#BDA37E"/>
</g>
<defs>
<clipPath id="clip0_486_11903">
<rect width="50.6667" height="48" fill="white" transform="translate(10.7344 12.5469)"/>
</clipPath>
</defs>
</svg>
