<svg width="73" height="73" viewBox="0 0 73 73" fill="none" xmlns="http://www.w3.org/2000/svg">
<circle cx="36.1797" cy="36.4844" r="35.5" fill="#FCFAF7" stroke="#BDA37E"/>
<path fill-rule="evenodd" clip-rule="evenodd" d="M29.5156 20.506C31.4782 20.6553 33.2276 21.5672 34.4681 22.946L36.6368 20.7773L38.051 22.1916L35.6107 24.6319C36.0986 25.6214 36.3727 26.7352 36.3727 27.913C36.3727 30.2353 37.1877 32.3673 38.5472 34.0386L40.8084 31.7774L42.2227 33.1916L39.9614 35.4529C41.6327 36.8123 43.7647 37.6273 46.087 37.6273C46.7422 37.6273 47.3776 37.7121 47.9828 37.8714L49.6496 34.9844L51.3817 35.9844L49.8448 38.6464C52.0412 39.9369 53.5156 42.3242 53.5156 45.0558C53.5156 46.1433 53.2819 47.1761 52.8621 48.1069L55.4797 49.6182L54.4797 51.3502L51.8007 49.8035C50.4381 51.4416 48.3843 52.4844 46.087 52.4844C45.896 52.4844 45.7056 52.4822 45.5156 52.4779V55.4844H43.5156V52.3515C40.4435 52.032 37.5395 51.1464 34.91 49.801L33.3816 52.4483L31.6495 51.4483L33.1681 48.8181C31.1939 47.5954 29.4057 46.101 27.8559 44.3869L25.2228 47.02L23.8085 45.6058L26.5706 42.8437C24.9329 40.7062 23.6383 38.2918 22.7694 35.6829L19.7744 36.4854L19.2568 34.5535L22.2157 33.7607C21.7582 31.8865 21.5156 29.9281 21.5156 27.913C21.5156 27.232 21.6072 26.5725 21.7788 25.946L19.0156 24.3506L20.0156 22.6186L22.5711 24.094C23.6353 22.3219 25.4176 21.0303 27.5156 20.6216V17.4844H29.5156V20.506ZM28.9442 22.4844C25.9461 22.4844 23.5156 24.9149 23.5156 27.913C23.5156 40.3788 33.6212 50.4844 46.087 50.4844C49.0851 50.4844 51.5156 48.0539 51.5156 45.0558C51.5156 42.0577 49.0851 39.6273 46.087 39.6273C39.6174 39.6273 34.3727 34.3826 34.3727 27.913C34.3727 24.9149 31.9423 22.4844 28.9442 22.4844ZM28.5156 27.4844C27.9633 27.4844 27.5156 27.9321 27.5156 28.4844C27.5156 29.0367 27.9633 29.4844 28.5156 29.4844C29.0679 29.4844 29.5156 29.0367 29.5156 28.4844C29.5156 27.9321 29.0679 27.4844 28.5156 27.4844ZM25.5156 28.4844C25.5156 26.8275 26.8587 25.4844 28.5156 25.4844C30.1725 25.4844 31.5156 26.8275 31.5156 28.4844C31.5156 30.1413 30.1725 31.4844 28.5156 31.4844C26.8587 31.4844 25.5156 30.1413 25.5156 28.4844ZM36.5156 42.4844C36.5156 41.9321 36.9633 41.4844 37.5156 41.4844C38.0679 41.4844 38.5156 41.9321 38.5156 42.4844C38.5156 43.0367 38.0679 43.4844 37.5156 43.4844C36.9633 43.4844 36.5156 43.0367 36.5156 42.4844ZM37.5156 39.4844C35.8587 39.4844 34.5156 40.8275 34.5156 42.4844C34.5156 44.1413 35.8587 45.4844 37.5156 45.4844C39.1725 45.4844 40.5156 44.1413 40.5156 42.4844C40.5156 40.8275 39.1725 39.4844 37.5156 39.4844ZM32.5156 36.4844C32.5156 37.589 31.6202 38.4844 30.5156 38.4844C29.411 38.4844 28.5156 37.589 28.5156 36.4844C28.5156 35.3798 29.411 34.4844 30.5156 34.4844C31.6202 34.4844 32.5156 35.3798 32.5156 36.4844ZM45.5156 46.4844C46.6202 46.4844 47.5156 45.589 47.5156 44.4844C47.5156 43.3798 46.6202 42.4844 45.5156 42.4844C44.411 42.4844 43.5156 43.3798 43.5156 44.4844C43.5156 45.589 44.411 46.4844 45.5156 46.4844Z" fill="#BDA37E"/>
</svg>
