<svg width="73" height="73" viewBox="0 0 73 73" fill="none" xmlns="http://www.w3.org/2000/svg">
<circle cx="36.1797" cy="36.5469" r="35.5" fill="#FCFAF7" stroke="#BDA37E"/>
<path d="M35.604 20.6108C36.162 20.6256 36.6954 20.3763 37.0386 19.9367C38.762 20.5614 40.9744 21.9367 40.446 24.8479C39.1867 31.8133 37.7546 34.4207 37.0164 35.359C36.8781 35.5318 36.7299 35.6948 36.5719 35.8479C36.3151 35.5071 35.9299 35.2874 35.5053 35.2429C35.1003 35.2158 34.7053 35.3688 34.4213 35.6577C33.4583 36.6479 31.7892 37.1664 30.6386 37.1664C29.488 37.1664 27.8188 36.6479 26.8559 35.6577C26.5719 35.3664 26.1769 35.2158 25.7719 35.2429C25.3472 35.2849 24.962 35.5047 24.7053 35.8454C24.5472 35.6923 24.4015 35.5293 24.2633 35.359C23.5225 34.4232 22.088 31.8108 20.8336 24.8479C20.3077 21.9367 22.5225 20.5614 24.246 19.9392C24.5966 20.3688 25.125 20.6158 25.6806 20.6108C26.046 20.6108 26.5299 20.475 27.0139 20.3491C28.0707 20.0898 28.7176 19.0256 28.4608 17.9688C28.2015 16.9121 27.1374 16.2651 26.0806 16.5219C26.0509 16.5293 26.0213 16.5367 25.9941 16.5466L25.2139 16.7763C24.4509 16.9935 23.8978 17.6528 23.8114 18.4405C22.9102 18.759 21.8188 19.2726 20.9225 20.1046C19.5003 21.4108 18.9398 23.1466 19.3028 25.1318C20.5571 32.0627 22.0312 35.0479 23.046 36.3343C23.2633 36.6084 23.5053 36.8676 23.762 37.1046C23.2435 37.7688 23.3102 38.6874 23.9028 39.1614C25.3423 40.3121 26.8509 41.1195 28.3941 41.5688V44.717C28.3941 45.4849 29.0904 46.1096 29.8583 46.1096V48.5639C29.8583 49.3516 30.1275 51.3121 31.1423 53.0997C32.4657 55.4355 34.5867 56.6676 37.2756 56.6676C40.204 56.6676 43.9028 55.2503 44.9053 48.5022C45.5596 44.0997 46.4435 41.2182 49.2411 38.6034C50.5053 37.4207 52.1053 36.5639 53.1917 36.0651C53.4781 36.2849 53.8287 36.4034 54.1892 36.4009C54.6435 36.4084 55.0756 36.2182 55.3793 35.8824C55.6386 35.5861 55.7818 35.2034 55.7793 34.8084C55.7719 33.9244 55.0509 33.2108 54.1645 33.2182C53.7225 33.2207 53.3003 33.4084 52.9991 33.7343C52.7843 33.9787 52.6485 34.2849 52.6114 34.6108C51.4139 35.154 49.6238 36.1047 48.1719 37.4651C45.0411 40.3935 44.0657 43.5219 43.362 48.275C43.2485 49.033 42.9867 50.8084 42.0732 52.3713C40.9991 54.2158 39.4287 55.1121 37.2732 55.1121C35.1176 55.1121 33.5423 54.1763 32.4904 52.3318C31.6065 50.7738 31.4114 49.0849 31.4114 48.5664V46.1121C32.1793 46.1121 32.8756 45.4874 32.8756 44.7195V41.5713C34.4188 41.1219 35.9275 40.3145 37.367 39.1639C37.9596 38.6898 37.967 37.717 37.5102 37.1121C37.7719 36.875 38.0114 36.6158 38.2312 36.3392C39.2485 35.0553 40.725 32.0701 41.9744 25.1367C42.3324 23.1565 41.7744 21.4182 40.3571 20.1121C39.4559 19.28 38.3645 18.7614 37.4633 18.4479C37.3769 17.6602 36.8238 17.0034 36.0633 16.7837L35.2855 16.554C34.2633 16.1738 33.125 16.6948 32.7472 17.7195C32.367 18.7417 32.888 19.88 33.9127 20.2577C34.0312 20.3022 34.1546 20.3343 34.2781 20.354C34.7966 20.4824 35.3028 20.6084 35.609 20.6182L35.604 20.6108ZM34.8534 18.0405C35.0435 18.0923 35.6114 18.2627 35.6114 18.2627C35.8361 18.3145 35.9744 18.5367 35.925 18.7614C35.925 18.7713 35.9201 18.7812 35.9176 18.7935C35.8262 19.1318 35.5201 19.0528 35.4188 19.0256H35.4065L34.6411 18.838C34.4238 18.7812 34.288 18.5614 34.3398 18.3417C34.3991 18.0775 34.562 17.9614 34.8534 18.0405ZM26.9448 18.3367C26.9991 18.5565 26.8657 18.7763 26.646 18.8306C26.646 18.8306 26.646 18.8306 26.6435 18.8306L25.8781 19.0182H25.8682C25.7645 19.0454 25.4633 19.1219 25.3694 18.7886C25.3028 18.5688 25.4287 18.3367 25.6485 18.2701C25.6559 18.2701 25.6657 18.2651 25.6732 18.2627C25.6732 18.2627 26.2386 18.0923 26.4312 18.0405C26.688 17.9688 26.8732 18.0553 26.9448 18.3343V18.3367ZM25.6978 37.1195C25.7867 37.0009 25.9571 36.9787 26.0756 37.0676C26.0806 37.0701 26.083 37.075 26.088 37.0775C27.4164 38.2108 29.325 38.7318 30.6361 38.7318C31.9472 38.7318 33.8583 38.2133 35.1843 37.0775C35.2978 36.9812 35.4682 36.9935 35.5645 37.1071C35.567 37.1121 35.5719 37.1145 35.5744 37.1195L36.1053 37.8232C36.1941 37.9417 36.1719 38.1096 36.0534 38.2009C34.7176 39.2059 33.3299 39.8775 31.9225 40.2009C31.5695 40.2824 31.3176 40.596 31.3176 40.959V44.275C31.3176 44.4232 31.1966 44.5442 31.0485 44.5442H30.2164C30.0682 44.5442 29.9472 44.4256 29.9472 44.275V40.959C29.9472 40.596 29.6978 40.2824 29.3448 40.2009C27.9374 39.8775 26.5497 39.2059 25.2139 38.2009C25.0954 38.1121 25.0732 37.9417 25.162 37.8232L25.6978 37.1195Z" fill="#BDA37E"/>
<path d="M54.1842 30.4971C52.1027 30.4947 50.3151 31.9835 49.9422 34.0305C49.8657 34.4552 50.1472 34.8601 50.5694 34.9366C50.9941 35.0132 51.399 34.7317 51.4756 34.3095C51.7496 32.8156 53.1842 31.8255 54.678 32.0996C56.1719 32.3737 57.162 33.8082 56.8879 35.3021C56.6138 36.7959 55.1793 37.786 53.6855 37.5119C53.3472 37.4502 53.0237 37.3243 52.7324 37.144C52.3669 36.9169 51.8854 37.028 51.6583 37.3934C51.4311 37.7589 51.5422 38.2403 51.9077 38.4675C53.9299 39.7243 56.5892 39.1021 57.8459 37.0798C59.1027 35.0576 58.4805 32.3984 56.4583 31.1416C55.7743 30.7169 54.9867 30.4922 54.1842 30.4922V30.4971Z" fill="#BDA37E"/>
</svg>
