<svg width="73" height="73" viewBox="0 0 73 73" fill="none" xmlns="http://www.w3.org/2000/svg">
<circle cx="36.1797" cy="36.5469" r="35.5" fill="#FCFAF7" stroke="#BDA37E"/>
<path d="M56.4158 54.0768H15.938C14.7392 54.0768 13.7656 53.1032 13.7656 51.9044V21.1958C13.7656 19.997 14.7392 19.0234 15.938 19.0234H56.4158C57.6146 19.0234 58.5882 19.997 58.5882 21.1958V51.9044C58.5882 53.1032 57.6146 54.0768 56.4158 54.0768ZM15.938 20.577C15.5962 20.577 15.3192 20.854 15.3192 21.1958V51.9044C15.3192 52.2462 15.5962 52.5232 15.938 52.5232H56.4158C56.7576 52.5232 57.0346 52.2462 57.0346 51.9044V21.1958C57.0346 20.854 56.7576 20.577 56.4158 20.577H15.938Z" fill="#BDA37E"/>
<path d="M52.6932 43.1791L40.3036 24.596C40.1897 24.4251 40.0111 24.306 39.8091 24.2646C39.6071 24.2257 39.3974 24.2646 39.2265 24.3811C38.3203 24.987 37.2665 25.3054 36.1738 25.3054C35.0811 25.3054 34.0273 24.9844 33.1211 24.3811C32.9502 24.2672 32.7378 24.2257 32.5385 24.2646C32.3365 24.306 32.1579 24.4251 32.0439 24.596L19.6543 43.1791C19.4161 43.5364 19.5119 44.018 19.8693 44.2562C24.7034 47.485 30.3428 49.1939 36.1738 49.1939C42.0048 49.1939 47.6416 47.4876 52.4783 44.2562C52.8356 44.018 52.9314 43.5364 52.6932 43.1791ZM36.1738 47.6403C30.9098 47.6403 25.8142 46.1722 21.384 43.3862L22.0727 42.3557C24.0509 43.5959 26.1767 44.5695 28.406 45.2505C28.4811 45.2738 28.5588 45.2841 28.6339 45.2841C28.9679 45.2841 29.2734 45.0692 29.377 44.7326C29.5013 44.3235 29.2708 43.8885 28.8617 43.7642C26.7774 43.1299 24.7888 42.2185 22.9375 41.0636L27.5024 34.2177C28.4578 34.7925 29.465 35.2793 30.5111 35.6547C30.5965 35.6858 30.6846 35.7013 30.7726 35.7013C31.0911 35.7013 31.3914 35.5045 31.5028 35.186C31.6478 34.7821 31.438 34.3368 31.0341 34.1944C30.1046 33.8629 29.2113 33.4357 28.3646 32.9282L30.2133 30.1551C31.0548 30.6419 31.9481 31.0225 32.8803 31.2892C32.9528 31.3099 33.0227 31.3203 33.0952 31.3203C33.4318 31.3203 33.7451 31.0976 33.8409 30.7584C33.96 30.3467 33.7218 29.9169 33.3075 29.7978C32.5281 29.5751 31.7824 29.2566 31.0781 28.8579L32.932 26.077C33.9315 26.5949 35.0397 26.8668 36.1764 26.8668C37.3131 26.8668 38.4213 26.5949 39.4207 26.077L43.9907 32.9334C43.4988 33.2286 42.9913 33.4953 42.4683 33.7335C42.2559 32.8013 41.8106 31.965 41.1296 31.2866C39.4673 29.6243 36.759 29.6243 35.0967 31.2866C34.2215 32.1618 33.7839 33.3606 33.8564 34.5672C33.7269 34.5931 33.5975 34.6293 33.4732 34.6811C32.9346 34.896 32.5126 35.3103 32.2821 35.8437C32.1604 36.1259 32.1035 36.4263 32.1061 36.7241C31.8161 36.6283 31.5105 36.5739 31.1921 36.5739H29.7214C29.1414 36.5739 28.595 36.7991 28.1859 37.2108C27.7768 37.6199 27.549 38.1663 27.549 38.7463C27.549 39.3263 27.7742 39.8726 28.1859 40.2817C28.595 40.6908 29.1414 40.9186 29.7214 40.9186H30.1305L30.1978 41.1206C30.7907 42.8968 32.422 44.0439 34.2344 44.0439C34.4701 44.0439 34.7083 44.0232 34.9465 43.9843C38.4679 43.3992 41.3342 40.0668 42.2456 37.2264C42.4501 36.5894 42.5641 35.9654 42.5977 35.3647C43.3745 35.0436 44.1306 34.663 44.853 34.228L46.7043 37.0063C45.5857 37.6924 44.405 38.2672 43.1803 38.723C42.779 38.8731 42.5718 39.3185 42.722 39.7224C42.8385 40.0357 43.1337 40.2299 43.4496 40.2299C43.5402 40.2299 43.6308 40.2144 43.7189 40.1807C45.0575 39.6862 46.3496 39.0544 47.5665 38.3009L49.4152 41.0714C45.4485 43.5467 40.8836 44.8569 36.1764 44.8569C34.6513 44.8569 33.1236 44.7197 31.64 44.4478C31.218 44.3701 30.814 44.6498 30.7364 45.0718C30.6587 45.4939 30.9383 45.8978 31.3604 45.9755C32.9372 46.2655 34.5581 46.4105 36.1764 46.4105C41.1943 46.4105 46.0544 45.0097 50.2775 42.3634L50.9662 43.394C46.536 46.18 41.4403 47.6481 36.1764 47.6481L36.1738 47.6403ZM32.4427 39.0181L32.8466 40.2273C33.0744 40.9109 33.7787 41.3381 34.4882 41.2216C35.2624 41.0921 36.0676 40.7219 36.834 40.147L36.8781 40.1652C36.979 40.2092 37.0826 40.2273 37.1836 40.2273C37.4839 40.2273 37.7714 40.0512 37.8982 39.7561C38.0665 39.3625 37.8853 38.9042 37.4891 38.7359L34.0351 37.2549C33.8823 37.1901 33.7658 37.071 33.7036 36.9157C33.6415 36.7629 33.6441 36.5946 33.7088 36.4418C33.7735 36.2891 33.8952 36.1725 34.048 36.1104C34.2008 36.0483 34.3691 36.0508 34.5218 36.1156L37.9759 37.5966C38.3695 37.7649 38.8278 37.5837 38.9961 37.1875C39.1644 36.7914 38.9831 36.3357 38.587 36.1674L35.454 34.8261C35.2753 33.9406 35.5446 33.0188 36.1893 32.3741C37.2483 31.3177 38.9676 31.3177 40.0266 32.3741C41.0545 33.402 41.3212 34.9944 40.7619 36.7422C39.98 39.1761 37.4943 41.9751 34.6876 42.4411C33.3644 42.6586 32.0957 41.8948 31.6685 40.6183L31.4251 39.8855C31.3189 39.5696 31.0238 39.3547 30.6897 39.3547H29.7214C29.5557 39.3547 29.4003 39.29 29.2838 39.1735C29.1673 39.057 29.1025 38.9016 29.1025 38.7359C29.1025 38.5702 29.1673 38.4148 29.2838 38.2983C29.4003 38.1818 29.5557 38.1171 29.7214 38.1171H31.1921C31.7591 38.1171 32.2614 38.4796 32.4427 39.0181ZM34.061 38.9586L35.0915 39.4013C34.8196 39.5334 34.5529 39.6292 34.2992 39.6784L34.061 38.9612V38.9586Z" fill="#BDA37E"/>
</svg>
