<svg width="73" height="73" viewBox="0 0 73 73" fill="none" xmlns="http://www.w3.org/2000/svg">
<circle cx="36.1797" cy="36.5469" r="35.5" fill="#FCFAF7" stroke="#BDA37E"/>
<path d="M53.1901 19.4375H27.3728C26.9308 19.4375 26.5703 19.798 26.5703 20.24V36.5461C26.5703 36.9881 26.9308 37.3486 27.3728 37.3486H53.1901C53.632 37.3486 53.9925 36.9881 53.9925 36.5461V20.24C53.9925 19.798 53.632 19.4375 53.1901 19.4375ZM52.3876 35.7437H28.1753V21.0424H52.3876V35.7437Z" fill="#BDA37E"/>
<path d="M19.3766 24.8501C19.2803 24.8501 19.184 24.8329 19.0902 24.7958C17.8606 24.3242 16.5075 24.3242 15.2778 24.7958C14.863 24.9538 14.3988 24.7489 14.2408 24.3341C14.0828 23.9193 14.2877 23.4551 14.7025 23.297C16.3025 22.6822 18.0655 22.6822 19.6655 23.297C20.0803 23.4551 20.2852 23.9193 20.1272 24.3341C20.0038 24.6526 19.7001 24.8501 19.3791 24.8501H19.3766Z" fill="#BDA37E"/>
<path d="M18.3923 27.3874C18.296 27.3874 18.1997 27.3701 18.1058 27.3331C17.5058 27.1035 16.8441 27.1035 16.2466 27.3331C15.8318 27.4936 15.3676 27.2862 15.2095 26.8714C15.0515 26.4565 15.2565 25.9923 15.6713 25.8343C16.6416 25.4615 17.7108 25.4615 18.6812 25.8343C19.096 25.9923 19.3009 26.4565 19.1429 26.8714C19.0194 27.1899 18.7157 27.3874 18.3947 27.3874H18.3923Z" fill="#BDA37E"/>
<path d="M53.2967 40.0669C55.1757 40.0669 56.7065 38.5385 56.7065 36.657V20.1286C56.7065 18.2496 55.1781 16.7188 53.2967 16.7188H27.2572C25.3781 16.7188 23.8473 18.2471 23.8473 20.1286V36.6546C23.8473 38.5336 25.3757 40.0644 27.2572 40.0644H38.1164V41.178H34.8423C33.6497 41.178 32.6818 42.1484 32.6818 43.3385V43.8941H26.0102C24.8177 43.8941 23.8498 44.8644 23.8498 46.0546V48.7731C23.8498 49.9212 24.751 50.8595 25.8819 50.9286C25.8201 53.0546 24.0744 54.7657 21.9337 54.7657C19.793 54.7657 17.9806 52.9928 17.9806 50.8126V41.9484C18.7757 41.6299 19.3386 40.8521 19.3386 39.9434V34.9015C19.3386 34.6842 19.4547 34.4842 19.6226 34.415C20.7337 33.9558 21.4374 32.8397 21.3732 31.6373C21.2942 30.1286 19.9979 28.9484 18.4201 28.9484H15.9337C14.3584 28.9484 13.0596 30.1286 12.9806 31.6373C12.9164 32.8397 13.6201 33.9558 14.7312 34.415C14.8991 34.4842 15.0152 34.6842 15.0152 34.9015V37.2249V39.941C15.0152 40.8496 15.5781 41.6274 16.3732 41.9459V50.8126C16.3732 53.8768 18.867 56.3706 21.9312 56.3706C24.9954 56.3706 27.4201 53.9434 27.4868 50.936H54.5411C55.7337 50.936 56.7016 49.9657 56.7016 48.7755V46.057C56.7016 44.8644 55.7312 43.8965 54.5411 43.8965H47.8695V43.341C47.8695 42.1484 46.8991 41.1805 45.709 41.1805H42.4349V40.0669H53.2942H53.2967ZM16.6226 39.9434V38.0274H17.7362V39.9434C17.7362 40.2496 17.4868 40.499 17.1806 40.499C16.8744 40.499 16.6251 40.2496 16.6251 39.9434H16.6226ZM15.3485 32.9336C14.8646 32.7336 14.5584 32.2471 14.588 31.7237C14.6226 31.0792 15.2275 30.5558 15.9362 30.5558H18.4226C19.1337 30.5558 19.7386 31.0792 19.7707 31.7237C19.7979 32.2471 19.4917 32.7336 19.0102 32.9336C18.2349 33.2546 17.7362 34.0274 17.7362 34.9015V36.4225H16.6226V34.9015C16.6226 34.0274 16.1214 33.2546 15.3485 32.9336ZM47.8744 46.0595V45.5039H54.546C54.8522 45.5039 55.1016 45.7533 55.1016 46.0595V48.778C55.1016 49.0842 54.8522 49.3336 54.546 49.3336H26.0127C25.7065 49.3336 25.4572 49.0842 25.4572 48.778V46.0595C25.4572 45.7533 25.7065 45.5039 26.0127 45.5039H32.6843V46.0595C32.6843 47.2521 33.6547 48.22 34.8448 48.22H45.7139C46.9065 48.22 47.8744 47.2496 47.8744 46.0595ZM45.7139 42.7854C46.0201 42.7854 46.2695 43.0348 46.2695 43.341V46.0595C46.2695 46.3657 46.0201 46.615 45.7139 46.615H34.8448C34.5386 46.615 34.2893 46.3657 34.2893 46.0595V43.341C34.2893 43.0348 34.5386 42.7854 34.8448 42.7854H38.9189H41.6325H45.7065H45.7139ZM39.7214 41.1805V40.0669H40.8349V41.1805H39.7214ZM27.2572 38.462C26.2621 38.462 25.4522 37.6521 25.4522 36.657V20.1286C25.4522 19.1336 26.2621 18.3237 27.2572 18.3237H53.2967C54.2917 18.3237 55.1016 19.1336 55.1016 20.1286V36.6546C55.1016 37.6496 54.2917 38.4595 53.2967 38.4595H27.2572V38.462Z" fill="#BDA37E"/>
<path d="M40.9652 45.5034H39.6072C39.1652 45.5034 38.8047 45.1429 38.8047 44.7009C38.8047 44.2589 39.1652 43.8984 39.6072 43.8984H40.9652C41.4072 43.8984 41.7677 44.2589 41.7677 44.7009C41.7677 45.1429 41.4072 45.5034 40.9652 45.5034Z" fill="#BDA37E"/>
<path d="M44.3565 45.5034H43.6775C43.2355 45.5034 42.875 45.1429 42.875 44.7009C42.875 44.2589 43.2355 43.8984 43.6775 43.8984H44.3565C44.7985 43.8984 45.159 44.2589 45.159 44.7009C45.159 45.1429 44.7985 45.5034 44.3565 45.5034Z" fill="#BDA37E"/>
<path d="M36.8877 45.5034H36.2087C35.7667 45.5034 35.4062 45.1429 35.4062 44.7009C35.4062 44.2589 35.7667 43.8984 36.2087 43.8984H36.8877C37.3297 43.8984 37.6902 44.2589 37.6902 44.7009C37.6902 45.1429 37.3297 45.5034 36.8877 45.5034Z" fill="#BDA37E"/>
<path d="M48.4879 31.1012L47.0262 28.9086C47.0139 28.8839 47.004 28.8617 46.9892 28.837C46.9744 28.8148 46.9571 28.7975 46.9398 28.7777L42.8361 22.6222C42.7176 22.4444 42.5349 22.321 42.325 22.2814C42.1151 22.2395 41.9003 22.2814 41.7225 22.4024C40.8682 22.9728 39.7028 22.9728 38.846 22.4024C38.6682 22.2839 38.4509 22.2419 38.2435 22.2814C38.0361 22.321 37.8509 22.4469 37.7324 22.6222L32.0805 31.1012C31.8336 31.4691 31.9349 31.9679 32.3028 32.2123C34.6707 33.795 37.4311 34.6321 40.2855 34.6321C43.1398 34.6321 45.8978 33.795 48.2682 32.2123C48.6361 31.9654 48.7349 31.4691 48.4904 31.1012H48.4879ZM40.283 33.0271C38.0163 33.0271 35.8163 32.4345 33.8731 31.3037L34.4904 30.3777C34.999 30.6691 35.5274 30.9209 36.0707 31.1308C36.167 31.1679 36.2632 31.1851 36.3595 31.1851C36.6805 31.1851 36.9842 30.9901 37.1077 30.6716C37.2682 30.2592 37.0632 29.7926 36.6484 29.6321C36.2139 29.4642 35.7916 29.2617 35.3818 29.0345L37.5176 25.8321C38.3719 26.2543 39.32 26.4765 40.2805 26.4765C40.7225 26.4765 41.083 26.116 41.083 25.674C41.083 25.2321 40.7225 24.8716 40.2805 24.8716C39.6361 24.8716 39.0015 24.7358 38.4188 24.479L38.6632 24.1135C39.683 24.5407 40.8805 24.5407 41.9003 24.1135L43.6657 26.7629C42.6237 27.3037 41.4657 27.5901 40.2805 27.5901C39.6558 27.5901 39.0386 27.5111 38.4435 27.358C38.0139 27.2469 37.5768 27.5061 37.4657 27.9358C37.3546 28.3654 37.6139 28.8024 38.0435 28.9135C38.7694 29.1012 39.5225 29.195 40.283 29.195C41.7867 29.195 43.2534 28.8172 44.562 28.1061L45.1842 29.037C44.4632 29.4395 43.7003 29.7506 42.9003 29.9654C41.767 30.2691 40.562 30.3728 39.3892 30.2691C38.9497 30.2296 38.5571 30.558 38.52 30.9975C38.4805 31.4395 38.8065 31.8296 39.2484 31.8666C39.5892 31.8963 39.9373 31.9111 40.283 31.9111C41.3126 31.9111 42.3324 31.7777 43.3151 31.5135C44.283 31.2543 45.2065 30.8716 46.0731 30.3728L46.6904 31.2987C44.7472 32.4296 42.5472 33.0222 40.2805 33.0222L40.283 33.0271Z" fill="#BDA37E"/>
</svg>
