<svg width="73" height="73" viewBox="0 0 73 73" fill="none" xmlns="http://www.w3.org/2000/svg">
<circle cx="36.1797" cy="36.4844" r="35.5" fill="#FCFAF7" stroke="#BDA37E"/>
<path fill-rule="evenodd" clip-rule="evenodd" d="M38.1018 17.9409C41.71 21.8916 51.1849 33.107 51.1849 41.9389C51.1849 49.9722 44.7129 56.4844 36.7292 56.4844C28.7455 56.4844 22.2734 49.9722 22.2734 41.9389C22.2734 33.107 31.7484 21.8916 35.3565 17.9409C36.2051 17.0117 36.7292 16.4844 36.7292 16.4844C36.7292 16.4844 37.2532 17.0117 38.1018 17.9409ZM36.7292 19.4039C36.9607 19.6584 37.2153 19.9418 37.489 20.2517C38.8141 21.7517 40.5773 23.859 42.3361 26.2924C44.099 28.7313 45.8303 31.4608 47.1145 34.2067C48.4084 36.9733 49.1849 39.6232 49.1849 41.9389C49.1849 48.8793 43.5966 54.4844 36.7292 54.4844C29.8618 54.4844 24.2734 48.8793 24.2734 41.9389C24.2734 39.6232 25.0499 36.9733 26.3438 34.2067C27.628 31.4608 29.3594 28.7313 31.1222 26.2924C32.881 23.859 34.6443 21.7517 35.9693 20.2517C36.2431 19.9418 36.4977 19.6584 36.7292 19.4039Z" fill="#BDA37E"/>
<path fill-rule="evenodd" clip-rule="evenodd" d="M43.6056 44.7854C42.9619 44.2966 42.0389 44.4157 41.5441 45.0515L41.3415 45.3117C38.9876 48.336 34.3718 48.336 32.0179 45.3117L31.8153 45.0515C31.3205 44.4157 30.3976 44.2966 29.7538 44.7854C29.1101 45.2742 28.9896 46.186 29.4844 46.8219L29.687 47.082C33.2178 51.6185 40.1416 51.6185 43.6725 47.082L43.875 46.8219C44.3699 46.186 44.2493 45.2742 43.6056 44.7854Z" fill="#BDA37E"/>
</svg>
