<svg width="73" height="73" viewBox="0 0 73 73" fill="none" xmlns="http://www.w3.org/2000/svg">
<circle cx="36.1797" cy="36.5469" r="35.5" fill="#FCFAF7" stroke="#BDA37E"/>
<path d="M25.0002 52.4117C25.4298 52.4117 25.7854 52.0759 25.8101 51.6463C25.8125 51.5895 26.0372 48.15 27.5607 45.2167C27.7311 52.4735 30.2644 56.15 35.5088 56.7476C35.973 56.8019 36.4397 56.829 36.9039 56.829C40.7335 56.829 44.4792 55.0117 47.1385 51.8043C50.5212 47.7303 52.3829 42.5179 52.3829 37.1303C52.3829 29.7871 48.9138 22.8858 43.099 18.671C38.2965 15.1846 31.6842 15.5204 27.3755 19.4685C25.0916 21.5624 24.0274 24.4093 24.0274 28.4266C24.0274 29.6587 24.5113 30.8834 25.1261 32.4364C25.6323 33.7155 26.2446 35.3006 26.7237 37.2636C23.0792 39.7476 19.2298 44.0364 20.1014 51.6932C20.1484 52.1031 20.494 52.4117 20.9064 52.4117H24.9977H25.0002ZM28.0965 38.2982C28.1113 38.2883 28.1261 38.2809 28.1385 38.271C29.4323 37.4463 30.6916 36.8389 31.6644 36.3722C32.3533 36.0438 32.8496 35.8068 33.1582 35.5747C34.2372 34.7722 34.9385 33.4858 35.0397 32.1303C35.136 30.7945 34.6397 29.508 33.6372 28.508C33.3212 28.192 32.8076 28.192 32.4916 28.508C32.1755 28.8241 32.1755 29.3377 32.4916 29.6537C33.3409 30.5031 33.4669 31.4043 33.4224 32.0117C33.3582 32.8908 32.8866 33.7574 32.1928 34.2735C32.0101 34.4093 31.5039 34.6513 30.9656 34.908C30.2051 35.271 29.2298 35.7377 28.178 36.3476C27.6965 34.5204 27.1163 33.0488 26.6372 31.834C26.0866 30.4438 25.6521 29.3451 25.6521 28.4216C25.6521 24.8438 26.5237 22.4488 28.4743 20.6611C32.215 17.2315 37.9656 16.9451 42.1483 19.9797C47.5409 23.8908 50.7607 30.3006 50.7607 37.1253C50.7607 42.1352 49.0298 46.9797 45.8891 50.7648C43.257 53.9377 39.4446 55.5722 35.694 55.1327C32.6545 54.7871 29.1656 53.2587 29.1656 44.429C29.1656 43.9278 29.1533 43.4562 29.1385 42.9895C30.0842 42.0266 31.294 41.3229 32.8446 41.1451C33.2891 41.0932 33.6101 40.6932 33.5582 40.2463C33.5064 39.8019 33.1014 39.4834 32.6595 39.5327C26.0125 40.2908 24.5558 48.2389 24.2595 50.7871H21.6471C21.1533 44.0932 24.7385 40.4463 28.094 38.2957L28.0965 38.2982Z" fill="#BDA37E"/>
</svg>
